<?xml version="1.0" encoding="UTF-8" standalone="no"?>
<svg
   xmlns:dc="http://purl.org/dc/elements/1.1/"
   xmlns:cc="http://creativecommons.org/ns#"
   xmlns:rdf="http://www.w3.org/1999/02/22-rdf-syntax-ns#"
   xmlns:svg="http://www.w3.org/2000/svg"
   xmlns="http://www.w3.org/2000/svg"
   viewBox="0 0 5333.3335 5333.3335"
   height="5333.3335"
   width="5333.3335"
   xml:space="preserve"
   id="svg2"
   version="1.1"><metadata
     id="metadata8"><rdf:RDF><cc:Work
         rdf:about=""><dc:format>image/svg+xml</dc:format><dc:type
           rdf:resource="http://purl.org/dc/dcmitype/StillImage" /></cc:Work></rdf:RDF></metadata><defs
     id="defs6" /><g
     transform="matrix(1.3333333,0,0,-1.3333333,0,5333.3333)"
     id="g10"><g
       transform="scale(0.1)"
       id="g12"><g
         transform="scale(2.45399)"
         id="g14"><path
           id="path16"
           style="fill:#3aaaff;fill-opacity:0;fill-rule:nonzero;stroke:none"
           d="M 16300,0 H 0 V 16300 H 16300 V 0" /></g><g
         transform="scale(1.62329)"
         id="g18"><path
           id="path20"
           style="fill:#398dda;fill-opacity:1;fill-rule:nonzero;stroke:none"
           d="m 11363.8,1672.78 c -2726.09,0 -4936.04,454.14 -4936.04,1014.36 0,303.21 647.45,575.37 1673.76,761.29 -16.7,-30.19 -31.97,-61.36 -44.17,-94.19 -42.94,-104.54 -58.89,-218.01 -53.91,-332.41 5.12,-115.26 46.15,-237.48 119.64,-332.91 72.75,-96.34 168.79,-164.6 266.06,-213.63 97.95,-48.98 199.17,-78.61 299.64,-100.91 100.66,-22.61 201.2,-33.82 301.12,-40.97 l 74.91,-4.37 71.65,-2.59 143.22,-4.87 c 168.92,-5.29 338.33,-9.24 508.6,-9.24 22.3,0 44.66,0.12 67.02,0.25 192.8,1.11 387,8.19 582.9,29.02 195.6,21.43 394.6,57.1 589.5,133 97,38.74 192.3,89.81 278.8,156.53 70.9,54.34 135,119.57 188.3,192.14 235.7,-126.53 675.9,-289.97 1376.8,-289.97 0.9,0 1.8,0 2.6,0 695.8,0.37 1296.4,25.51 1597.3,330.08 130.8,132.44 195.9,309.55 193.5,526.46 -0.3,17.61 -1.2,34.93 -2.8,51.99 1005.4,-185.73 1637.8,-455 1637.8,-754.7 0,-560.22 -2210,-1014.36 -4936.2,-1014.36" /></g><g
         transform="scale(1.87232)"
         id="g22"><path
           id="path24"
           style="fill:#ffffff;fill-opacity:1;fill-rule:nonzero;stroke:none"
           d="m 13249,15206 c 0,0 -572.6,318.3 -466.2,607.7 178.9,486.3 882.8,-71.1 882.8,-71.1 L 13249,15206" /></g><g
         transform="scale(1.85928)"
         id="g26"><path
           id="path28"
           style="fill:#371a45;fill-opacity:1;fill-rule:nonzero;stroke:none"
           d="m 13341.9,15211.3 c -16.7,0 -33.6,4.1 -49.2,12.7 -66.8,37.2 -648.5,373.2 -515.3,735.5 61.1,166 172,228.4 254.4,251.6 315.9,88.9 744.7,-240.8 792.5,-278.7 43.9,-34.7 51.3,-98.5 16.6,-142.3 -34.8,-43.9 -98.5,-51.2 -142.4,-16.5 -100.4,79.3 -428.6,294.2 -612,242.4 -34.7,-9.7 -84.8,-33.5 -118.9,-126.4 -58.4,-158.6 260.1,-397.6 423.6,-488.5 48.9,-27.2 66.4,-88.8 39.3,-137.7 -18.5,-33.3 -53.1,-52.1 -88.6,-52.1" /></g><g
         transform="scale(1.68902)"
         id="g30"><path
           id="path32"
           style="fill:#ffffff;fill-opacity:1;fill-rule:nonzero;stroke:none"
           d="m 13338.3,10533.9 c 0,0 2742.5,908.7 2961.7,4437.3 l -3882.7,-1564.1 921,-2873.2" /></g><g
         transform="scale(1.58675)"
         id="g34"><path
           id="path36"
           style="fill:#cdc6d0;fill-opacity:1;fill-rule:nonzero;stroke:none"
           d="m 14570.9,11511.6 c -27.9,133.8 -62,266.5 -105.8,397.1 419.4,169.7 1180.4,511.5 1135.8,740.8 -8.4,43.4 -209.5,73.2 -461.9,73.2 -296.1,0 -663,-41 -872.7,-149.6 -16.2,73.6 -32.3,144.2 -48.4,211.6 103.1,88.9 201.4,182.8 294.9,281.5 H 16300 c -224.8,-330.6 -463.9,-596.7 -686.2,-806 -386.3,-363.6 -767.7,-603.2 -1042.9,-748.6" /></g><g
         transform="scale(1.7008)"
         id="g38"><path
           id="path40"
           style="fill:#371a45;fill-opacity:1;fill-rule:nonzero;stroke:none"
           d="m 12468.2,13250 847.2,-2643.2 c 214.5,90.2 728.2,338.8 1251.4,831.3 607,571.5 1348.1,1595.7 1496.5,3260.2 L 12468.2,13250 m 777.7,-2899.8 c -17.3,0 -34.5,4.1 -50.2,12 -26.3,13.4 -46.2,36.8 -55.3,64.9 l -914.5,2853.3 c -17.7,55.3 10.2,114.8 64,136.5 l 3855.8,1553.4 c 35.3,14.2 75.4,9.3 106.2,-12.9 30.8,-22.2 48.1,-58.7 45.7,-96.7 -114.7,-1846.5 -926.3,-2972.2 -1587,-3591.3 -717.6,-672.6 -1401.1,-904.1 -1429.9,-913.6 -11.3,-3.8 -23.1,-5.6 -34.8,-5.6" /></g><g
         transform="scale(2.0151)"
         id="g42"><path
           id="path44"
           style="fill:#dbac54;fill-opacity:1;fill-rule:nonzero;stroke:none"
           d="m 16300,13962.6 -533.7,-240.2 533.7,-240.5 v -1763.7 l -750.8,-239.3 750.8,-120.1 v -976.6 H 3519.93 v 604.8 l 641.91,193.9 -641.91,157.8 v 740.9 l 799.17,285.4 -799.17,248.8 v 712.3 l 1199.7,-46 -1199.7,495.6 v 687.7 H 16300 v -500.8" /></g><g
         transform="scale(2.0151)"
         id="g46"><path
           id="path48"
           style="fill:#dd8e37;fill-opacity:1;fill-rule:nonzero;stroke:none"
           d="m 16300,11718.2 -750.8,-239.3 750.8,-120.1 v -976.6 h -3239.5 v 2917.3 l 2789,182.4 c 119.6,-720.6 450.5,-138.8 450.5,-138.8 v -1624.9" /></g><g
         transform="scale(1.95939)"
         id="g50"><path
           id="path52"
           style="fill:#db8216;fill-opacity:1;fill-rule:nonzero;stroke:none"
           d="m 16300,14359.6 -633.7,-247.1 633.7,-247.3 v -1813.9 l -891.6,-246.1 891.6,-123.6 V 10677.3 H 3619.93 v 622 l 680.59,199.7 -680.59,162 v 762.3 l 708.23,293.2 -708.23,256.1 v 732.3 l 1138.65,-47.4 -1138.65,509.8 v 707.5 H 16300 v -515.2" /></g><g
         transform="scale(1.78807)"
         id="g54"><path
           id="path56"
           style="fill:#c65d17;fill-opacity:1;fill-rule:nonzero;stroke:none"
           d="m 14573.6,15257.4 c -673.6,42.6 -825.1,713.9 -871.9,1042.6 h 2410.7 c 6.8,-87.7 19.9,-186.2 41.3,-296 88.5,-455.9 -571.5,-810.3 -1580.1,-746.6" /></g><g
         transform="scale(1.94784)"
         id="g58"><path
           id="path60"
           style="fill:#e8ae67;fill-opacity:1;fill-rule:nonzero;stroke:none"
           d="m 16300,14565.2 h -1467.7 c 5.9,40.8 4.8,83 -3.6,126.1 -12.1,62.2 -21.3,120.5 -28.1,174.9 H 16300 v -301 m -3623.9,0 h -393 c -60.3,103.7 -126.5,204.1 -198.3,301 h 508.8 c 16.7,-90.5 42.1,-195.7 82.5,-301" /></g><g
         transform="scale(1.7765)"
         id="g62"><path
           id="path64"
           style="fill:#da9668;fill-opacity:1;fill-rule:nonzero;stroke:none"
           d="m 16262.8,15970 h -228 c 63.2,88.1 91.4,210.6 93,330 h 100.3 c 7.4,-59.7 17.5,-123.6 30.8,-191.8 9.2,-47.3 10.4,-93.5 3.9,-138.2 m -2137,0 h -227.1 c -44.3,115.4 -72.2,230.8 -90.5,330 h 195 c 26,-116 67.1,-231.2 122.6,-330" /></g><g
         transform="scale(1.7765)"
         id="g66"><path
           id="path68"
           style="fill:#e8ae67;fill-opacity:1;fill-rule:nonzero;stroke:none"
           d="m 7188.34,15970 h -3089.7 v 330 H 6813.1 v 0 h 625.05 c -55.78,-75.4 -108.69,-152.9 -158.57,-232.6 -30.96,-32 -61.41,-64.5 -91.24,-97.4" /></g><g
         transform="scale(1.95939)"
         id="g70"><path
           id="path72"
           style="fill:#c65d17;fill-opacity:1;fill-rule:nonzero;stroke:none"
           d="m 15903.2,14020.1 396.8,-154.8 v -1813.9 l -430.2,-232.6 c 0,0 -821.7,-103.6 -823.5,187.8 -1.6,264.8 856.9,223.4 856.9,1472.9 v 540.6" /></g><g
         transform="scale(1.95939)"
         id="g74"><path
           id="path76"
           style="fill:#c65d17;fill-opacity:1;fill-rule:nonzero;stroke:none"
           d="M 16300,11681.6 V 10677.3 H 3619.93 v 618.9 H 6001.5 c -158.62,348.4 -256.15,731.5 -279.01,1136.4 -98.5,1753 1723.13,3254 3476.28,3352.5 1752.93,98.6 3566.13,-1242.7 3664.63,-2995.6 29.8,-531.6 -72.5,-1040.1 -279,-1493.3 H 15463 c 242.9,0 440.2,197.3 440.2,440.2 l 396.8,-54.8" /></g><g
         transform="scale(1.91169)"
         id="g78"><path
           id="path80"
           style="fill:#cd8322;fill-opacity:1;fill-rule:nonzero;stroke:none"
           d="m 16300,14559.3 v -189.4 l -242.9,94.6 242.9,94.8" /></g><g
         transform="scale(1.91169)"
         id="g82"><path
           id="path84"
           style="fill:#cd8322;fill-opacity:1;fill-rule:nonzero;stroke:none"
           d="m 15792.9,12099.8 507.1,139.9 v -210.3 l -507.1,70.4" /></g><g
         transform="scale(1.87914)"
         id="g86"><path
           id="path88"
           style="fill:#894e2e;fill-opacity:1;fill-rule:nonzero;stroke:none"
           d="m 13800.7,13597.9 2,138.4 c 0.2,11.7 0.1,23.4 -0.3,35.1 816,-7.6 1632,-19.3 2447.9,-36.7 27.7,-0.6 49.7,-23.4 49.1,-51.1 -0.6,-27 -22.4,-48.5 -49.1,-49.1 -816.5,-17.3 -1633,-29 -2449.6,-36.6 m -8038.23,44 -247.34,7.6 c -19.37,0.7 -34.59,16.9 -34.01,36.2 0.59,18.6 15.65,33.4 34.01,34 l 248.62,7.7 -1.28,-85.5" /></g><g
         transform="scale(1.72705)"
         id="g90"><path
           id="path92"
           style="fill:#894e2e;fill-opacity:1;fill-rule:nonzero;stroke:none"
           d="m 14454.9,13292.9 c 1.2,3.9 2.4,7.8 3.5,11.8 105.2,34.1 200.9,89.9 281.8,162 501.9,-7.7 1003.9,-17.6 1506,-30.3 30.1,-0.8 53.8,-25.8 53,-55.9 -0.6,-29.2 -24.3,-52.4 -53,-53.2 -597.1,-15.1 -1194.2,-26.3 -1791.3,-34.4 m -7835.86,44.1 c -58.48,2.2 -116.91,4.4 -175.39,6.7 -21.08,0.8 -37.52,18.6 -36.65,39.6 0.75,20.1 16.96,35.9 36.65,36.7 50.66,2 101.27,3.9 151.88,5.8 7.47,-29.8 15.34,-59.4 23.51,-88.8" /></g><g
         transform="scale(1.53192)"
         id="g94"><path
           id="path96"
           style="fill:#7e3b2e;fill-opacity:1;fill-rule:nonzero;stroke:none"
           d="m 16253.1,14985.5 c 15.8,4.2 31.4,8.8 46.9,13.8 -1.2,-4.4 -2.5,-8.8 -3.9,-13.2 -14.3,-0.2 -28.7,-0.4 -43,-0.6 m -8224.35,32 c -188.85,5.4 -377.77,11.5 -566.61,18.3 -9.21,33.2 -18.08,66.6 -26.5,100.1 58.42,2.2 116.84,4.2 175.27,6.2 100.13,-41.1 209.34,-64.4 323.84,-66.1 l 74.87,-1.1 c 6.2,-19.2 12.6,-38.3 19.13,-57.4" /></g><g
         transform="scale(1.79157)"
         id="g98"><path
           id="path100"
           style="fill:#894e2e;fill-opacity:1;fill-rule:nonzero;stroke:none"
           d="m 13627.2,15390.2 c -28.2,47 -57.5,93.1 -88,138.8 l 115,-0.8 c 100.4,-0.9 200.7,-1.7 301.1,-2.4 39,-48.2 83.2,-92.8 133.5,-132.2 -144.9,-1 -289.7,-2 -434.6,-3.2 l -27,-0.2 m -6833.5,20.9 c -102.59,2.1 -205.24,4.3 -307.88,6 -217.19,4 -434.43,8.5 -651.67,14.6 -15.23,0.4 -27.23,13.1 -26.79,28.4 0.39,14.6 12.28,26.3 26.79,26.8 217.24,6 434.48,10.5 651.67,14.5 125.47,2.1 250.89,5 376.32,7.4 -23.34,-32.3 -46.22,-64.9 -68.44,-97.7 m 8962.2,0.4 c 56.5,28.5 107.2,59.7 151.7,93.3 117.8,-1.8 235.5,-3.8 353.3,-6.1 21.8,-0.5 39.1,-18.4 38.7,-40.2 -0.5,-21.3 -17.7,-38.2 -38.7,-38.7 -168.3,-3.3 -336.7,-6 -505,-8.3" /></g><g
         transform="scale(1.74844)"
         id="g102"><path
           id="path104"
           style="fill:#7e3b2e;fill-opacity:1;fill-rule:nonzero;stroke:none"
           d="m 14436.3,15773.3 c -51.5,40.4 -96.8,86.1 -136.8,135.5 342.3,-2.4 684.7,-4.4 1027,-8.7 324.5,-4.5 649,-7.9 973.5,-12.8 -45.6,-34.4 -97.6,-66.4 -155.5,-95.6 -272.7,-3.8 -545.3,-6.8 -818,-10.6 -296.7,-3.8 -593.4,-5.7 -890.2,-7.8" /></g><g
         transform="scale(1.70685)"
         id="g106"><path
           id="path108"
           style="fill:#7e3b2e;fill-opacity:1;fill-rule:nonzero;stroke:none"
           d="m 14247.4,16153.6 c -20,49.3 -41.1,98.1 -63.3,146.4 l 27.1,-0.2 c 32,-48 62.7,-96.4 92.4,-145.7 l -56.2,-0.5 m -6955.26,19.3 c -53.73,1 -107.51,2 -161.24,3.1 23.32,34.5 47.34,68.7 71.83,102.6 45.47,0.8 90.99,1.7 136.45,2.4 -16.23,-35.7 -31.93,-71.8 -47.04,-108.1" /></g><g
         transform="scale(2.02664)"
         id="g110"><path
           id="path112"
           style="fill:#371a45;fill-opacity:1;fill-rule:nonzero;stroke:none"
           d="M 3592.76,10416 H 16114.1 v 798.7 l -668.2,107 c -42.5,6.8 -74.7,41.9 -77.9,84.8 -3.3,42.9 23.4,82.4 64.4,95.5 l 681.7,217.3 v 1625.8 l -475.7,214.3 c -33.4,15.1 -54.8,48.2 -54.8,84.8 0,36.5 21.4,69.7 54.8,84.7 l 475.7,214.3 v 345 H 3592.76 v -528.8 l 1135.56,-469.1 c 41.61,-17.2 64.92,-61.8 55.3,-105.7 -9.6,-44.1 -48.97,-74.9 -94.36,-73.1 l -1096.5,42.2 v -543.2 l 729.41,-227.2 c 38.18,-11.9 64.47,-46.9 65.28,-86.9 0.81,-39.9 -24.03,-76 -61.68,-89.4 l -733.01,-261.5 v -598.6 l 567.46,-139.3 c 40.66,-10 69.64,-46 70.73,-87.8 1.11,-41.9 -25.92,-79.3 -66.01,-91.5 l -572.18,-172.9 V 10416 M 16207,10230.1 H 3499.82 c -51.33,0 -92.94,41.6 -92.94,92.9 v 601.4 c 0,41 26.83,77.1 66.06,89 l 313.21,94.6 -308.5,75.8 c -41.55,10.2 -70.77,47.5 -70.77,90.3 v 736.9 c 0,39.3 24.71,74.3 61.71,87.5 l 532.63,190 -529.03,164.8 c -38.85,12.1 -65.31,48.1 -65.31,88.8 v 708.1 c 0,25.3 10.29,49.5 28.5,67 18.22,17.6 42.92,26.8 68.01,25.9 l 672.86,-25.9 -711.92,294.2 c -34.76,14.3 -57.45,48.3 -57.45,85.9 v 683.8 c 0,51.3 41.61,92.9 92.94,92.9 H 16207 c 51.4,0 93,-41.6 93,-92.9 v -498 c 0,-36.5 -21.4,-69.7 -54.8,-84.7 l -342.4,-154.2 342.4,-154.3 c 33.4,-15 54.8,-48.2 54.8,-84.7 v -1753.8 c 0,-40.5 -26.2,-76.3 -64.7,-88.6 l -374.4,-119.3 360.8,-57.8 c 45.1,-7.2 78.3,-46.1 78.3,-91.8 V 10323 c 0,-51.3 -41.6,-92.9 -93,-92.9" /></g><g
         transform="scale(1.97095)"
         id="g114"><path
           id="path116"
           style="fill:#371a45;fill-opacity:1;fill-rule:nonzero;stroke:none"
           d="M 16204.5,10519.2 H 6140.94 c -52.81,0 -95.58,42.8 -95.58,95.5 0,52.8 42.77,95.6 95.58,95.6 h 9967.96 v 821.3 l -687.1,110 c -43.7,7 -76.9,43.1 -80.2,87.2 -3.3,44.1 24.1,84.8 66.3,98.2 l 701,223.4 v 1671.8 l -489.2,220.4 c -34.3,15.4 -56.3,49.5 -56.3,87.1 0,37.6 22,71.7 56.3,87.1 l 489.2,220.4 v 354.7 H 6140.94 c -52.81,0 -95.58,42.8 -95.58,95.5 0,52.8 42.77,95.6 95.58,95.6 H 16204.5 c 52.7,0 95.5,-42.8 95.5,-95.6 v -512 c 0,-37.6 -22,-71.6 -56.3,-87.1 l -352.1,-158.6 352.1,-158.6 c 34.3,-15.5 56.3,-49.5 56.3,-87.1 v -1803.4 c 0,-41.6 -26.9,-78.4 -66.5,-91.1 l -385,-122.6 371,-59.5 c 46.4,-7.4 80.5,-47.3 80.5,-94.3 v -998.4 c 0,-52.7 -42.8,-95.5 -95.5,-95.5" /></g><g
         transform="scale(1.9077)"
         id="g118"><path
           id="path120"
           style="fill:#ffffff;fill-opacity:1;fill-rule:nonzero;stroke:none"
           d="m 13065.6,15711.6 c -140.5,-230.5 -11.4,-943.3 335.8,-1081.1 296.5,-117.6 1344.8,45.5 1500.3,204.9 175.3,179.7 134.2,598.2 4.2,694.9 -129.9,96.6 -1481.9,769.7 -1840.3,181.3" /></g><g
         transform="scale(1.9077)"
         id="g122"><path
           id="path124"
           style="fill:#ffffff;fill-opacity:1;fill-rule:nonzero;stroke:none"
           d="m 13065.6,15711.6 c -140.5,-230.5 -11.4,-943.3 335.8,-1081.1 296.5,-117.6 1344.8,45.5 1500.3,204.9 175.3,179.7 134.2,598.2 4.2,694.9 -129.9,96.6 -1481.9,769.7 -1840.3,181.3" /></g><g
         transform="scale(1.74053)"
         id="g126"><path
           id="path128"
           style="fill:#a24c23;fill-opacity:1;fill-rule:nonzero;stroke:none"
           d="m 15036.9,15991.6 c -146.8,0 -271,13.3 -348.4,44.1 -111.1,44 -201.8,141.8 -270.7,264.3 h 0.1 c 68.9,-122.6 159.6,-220.3 270.6,-264.3 77.5,-30.7 201.8,-44 348.3,-44 371.2,0 885.9,84.9 1148.5,186.4 -262.5,-101.5 -777.2,-186.5 -1148.4,-186.5" /></g><g
         transform="scale(1.7765)"
         id="g130"><path
           id="path132"
           style="fill:#b1775f;fill-opacity:1;fill-rule:nonzero;stroke:none"
           d="m 14126,15970 h -0.2 c -55.5,98.8 -96.6,214 -122.6,330 h 0.2 c 25.9,-116 67.1,-231.3 122.6,-330" /></g><g
         transform="scale(1.82206)"
         id="g134"><path
           id="path136"
           style="fill:#cdc6d0;fill-opacity:1;fill-rule:nonzero;stroke:none"
           d="m 13623.5,16099.2 h -0.1 c -4.5,72.3 -2.2,140.8 7.1,200.8 v -0.1 c -6.2,-40.2 -9.3,-84.3 -9.3,-130.8 0,-22.8 0.8,-46.1 2.3,-69.9" /></g><g
         transform="scale(1.83445)"
         id="g138"><path
           id="path140"
           style="fill:#371a45;fill-opacity:1;fill-rule:nonzero;stroke:none"
           d="m 13538.5,16189.8 -0.1,0.1 c 6.4,41.2 16.1,78.4 29.3,110.1 0,0 0,-0.1 0,-0.1 -13.1,-31.7 -22.9,-68.9 -29.2,-110.1" /></g><g
         transform="scale(1.79961)"
         id="g142"><path
           id="path144"
           style="fill:#371a45;fill-opacity:1;fill-rule:nonzero;stroke:none"
           d="m 13823.5,16090.7 h -0.1 c -15.8,70.7 -25.9,141.6 -30.1,209.3 h 0.1 c 4.2,-67.7 14.3,-138.6 30.1,-209.3" /></g><g
         transform="scale(1.83444)"
         id="g146"><path
           id="path148"
           style="fill:#cdc6d0;fill-opacity:1;fill-rule:nonzero;stroke:none"
           d="m 14267.1,15173.1 c -139,0 -257,12.6 -330.4,41.7 -105.4,41.8 -191.4,134.5 -256.9,250.8 -53.7,95.6 -93.5,207.3 -118.7,319.6 -15.5,69.4 -25.4,139 -29.6,205.4 v 0 c -1.5,23.6 -2.2,46.8 -2.2,69.4 0,93.7 12.6,177.5 38.5,240 38.5,-253 160.4,-519.5 362.4,-618.8 186.1,-91.4 444.7,-134.3 700.5,-134.3 407.4,0 807.6,108.8 896.4,303.8 22.8,50.3 42.3,107 57.5,166.5 59,-173.7 47.7,-450.2 -87.8,-589.3 -25.6,-26.3 -74.6,-52.7 -140,-77.9 -249.2,-96.3 -737.5,-176.9 -1089.7,-176.9" /></g><g
         transform="scale(1.88937)"
         id="g150"><path
           id="path152"
           style="fill:#371a45;fill-opacity:1;fill-rule:nonzero;stroke:none"
           d="m 13192.4,15864 h 0.2 z m 534.3,141.6 c -58.5,0 -114.5,-4.6 -167.1,-14.8 -132.3,-25.7 -224.6,-84.1 -282.1,-178.6 -54.5,-89.4 -62.5,-337.4 19.4,-582.1 63.1,-188.6 162,-321.6 271.4,-365 283.7,-112.5 1293.7,68.1 1406.6,183.9 64.5,66 98.9,199.4 87.8,339.7 -9.8,123.1 -49.2,195.5 -71.6,212.2 -87.4,65 -763.1,404.7 -1264.4,404.7 z m 130,-1371.6 c -152.2,0 -281.7,14 -362,45.8 -166.5,66 -303.9,239 -386.9,487 -78,233.2 -111.5,567.1 -0.6,749.1 87.2,143.1 226.6,234.1 414.4,270.6 583.7,113.5 1472.4,-339.2 1588.5,-425.6 81.8,-60.9 138.4,-194.2 151.3,-356.4 16,-201.1 -37.8,-386.1 -143.7,-494.7 -146.3,-150.1 -805.2,-275.8 -1261,-275.8" /></g><g
         transform="scale(1.2732)"
         id="g154"><path
           id="path156"
           style="fill:#ffffff;fill-opacity:1;fill-rule:nonzero;stroke:none"
           d="m 12732.4,16231.1 -48.4,-5495.4 -20,-2269.53 c 0,0 -2486.9,-281.89 -3277.23,644.28 -292.41,343.39 -496.39,1368.55 -582.32,2499.65 -103.91,1377.8 -33.3,2913.6 265.4,3564.5 479.42,1044.7 2793.55,1125.4 3662.55,1056.5" /></g><path
         id="path158"
         style="fill:#cdc6d0;fill-opacity:1;fill-rule:nonzero;stroke:none"
         d="m 14344.7,10940.1 c -105.6,7.4 -212.4,16.9 -319.4,28.8 60,10.2 119.5,21.8 178.2,34.5 46.2,9.8 92.6,19.7 139.6,31.1 0.5,-31.5 1,-63 1.6,-94.4" /><g
         transform="scale(1.2848)"
         id="g160"><path
           id="path162"
           style="fill:#371a45;fill-opacity:1;fill-rule:nonzero;stroke:none"
           d="m 11715.5,8201.99 c -817.1,0 -2000.04,115.9 -2524.87,731.09 -379.28,444.59 -576.82,1807.52 -635.28,2934.82 -58.06,1119.6 -9.88,2556.4 299.51,3230.7 519.69,1132.9 2900.44,1201.4 3774.04,1132.2 80.7,-6.5 141,-77 134.6,-157.8 -6.4,-80.7 -77.5,-141.1 -157.8,-134.5 -958,75.9 -3070.27,-59.4 -3484.34,-962.1 -236.69,-515.8 -343.87,-1730.1 -273.19,-3093.4 69.27,-1335.3 296.46,-2444.24 565.53,-2759.54 723.5,-848.07 3095.8,-590.83 3119.7,-588.11 80.3,9.11 153,-48.72 162.1,-129.2 9.1,-80.4 -48.7,-153.02 -129.1,-162.13 -37.7,-4.28 -384.7,-42.03 -850.9,-42.03" /></g><path
         id="path164"
         style="fill:#ffffff;fill-opacity:1;fill-rule:nonzero;stroke:none"
         d="m 11374.2,15093.7 1678.9,-38.4 c 149.9,-3.4 278.7,-107.3 313,-253.2 125.7,-534.4 352,-1783.8 -151.1,-2226.5 -417.6,-367.4 -1126.9,-363.8 -1559.6,-34.7 -484,368.2 -593.6,1599.4 -617.9,2210.5 -7.6,190 146.7,346.7 336.7,342.3" /><path
         id="path166"
         style="fill:#371a45;fill-opacity:1;fill-rule:nonzero;stroke:none"
         d="m 11366.6,14905.4 c -38.2,0 -73.8,-14.9 -100.6,-42.1 -27.6,-28 -41.9,-65.1 -40.3,-104.4 42.5,-1068.3 245.8,-1841.4 543.7,-2068.1 375.4,-285.6 980.5,-273.6 1321.2,26.2 349.7,307.8 276.9,1256.6 92.1,2042 -14.6,62.1 -69.7,106.5 -133.9,108 l -1678.9,38.4 v 0 c -1.1,0 -2.2,0 -3.3,0 m 1052.2,-2797.3 c -313.3,0 -628.8,93.8 -877.4,282.9 -510.1,388 -657.9,1493.7 -692.1,2352.9 -5.7,142.3 48.3,282 148.1,383.5 99.8,101.5 238.6,157.8 381.2,154.6 h -0.1 l 1678.9,-38.4 c 235.8,-5.4 438.1,-169.2 492,-398.4 162.1,-688.8 350.3,-1918 -210,-2411 -246.2,-216.6 -582.2,-326 -920.6,-326.1" /><path
         id="path168"
         style="fill:#371a45;fill-opacity:1;fill-rule:nonzero;stroke:none"
         d="m 12943.9,14443.5 c 6.1,-192.6 31.1,-396.5 41.9,-602 11.4,-206.1 13.7,-417 -16,-632 -29.9,-213.4 -93.1,-436.6 -228.5,-633.2 -67.1,-97.7 -151.9,-186.1 -248.6,-257.6 -96.6,-71.8 -203.8,-126.6 -313.4,-167.5 -97.6,-36.3 -206.1,13.3 -242.5,110.8 -36.3,97.6 13.3,206.1 110.8,242.5 4.4,1.6 8.8,3.1 13.3,4.4 l 0.7,0.2 c 164.2,47.2 307.3,133 412.1,264.3 105.8,130.4 173.1,302 212.3,485.5 39.5,184 52.7,379.6 56,577.6 4.4,198.9 -6.2,398.6 2.5,610.7 2.2,55 48.6,97.8 103.7,95.6 52.5,-2.2 93.9,-44.5 95.6,-96.2 l 0.1,-3.1" /><g
         transform="scale(1.20479)"
         id="g170"><path
           id="path172"
           style="fill:#371a45;fill-opacity:1;fill-rule:nonzero;stroke:none"
           d="m 10369.3,16267.9 c 191.1,11.9 381,19.5 571.9,24.8 190.8,5.4 381.8,7.3 573.3,5 191.6,-1.9 383.6,-8.2 576.8,-23.1 193.6,-15.5 387.1,-34.4 587.5,-82.8 84,-20.3 135.6,-104.9 115.4,-188.9 -20.3,-84 -104.9,-135.6 -188.9,-115.3 -3.9,1 -7.9,2 -11.8,3.3 l -0.8,0.3 c -165.3,54.3 -349,88.2 -531.8,117 -183.6,28.7 -370.2,49.5 -557.6,66 -187.3,17 -375.6,29.8 -564.2,39.3 -188.4,9.5 -377.9,16.8 -566,19.7 h -0.7 c -37.3,0.5 -66.9,31.3 -66.3,68.4 0.5,35.4 28.5,64 63.2,66.3" /></g><g
         transform="scale(1.51077)"
         id="g174"><path
           id="path176"
           style="fill:#ffffff;fill-opacity:1;fill-rule:nonzero;stroke:none"
           d="m 16296.9,12809.3 v 5.9 c 3.1,-0.4 3.1,-2.2 0,-5.9" /></g><g
         transform="scale(1.51077)"
         id="g178"><path
           id="path180"
           style="fill:#ffffff;fill-opacity:1;fill-rule:nonzero;stroke:none"
           d="m 16296.9,12809.3 v 5.9 c 3.1,-0.4 3.1,-2.2 0,-5.9" /></g><g
         transform="scale(1.51077)"
         id="g182"><path
           id="path184"
           style="fill:#ffffff;fill-opacity:1;fill-rule:nonzero;stroke:none"
           d="m 16296.9,12815.2 c 3.1,-0.4 3.1,-2.2 0,-5.9 v 5.9" /></g><g
         transform="scale(1.44969)"
         id="g186"><path
           id="path188"
           style="fill:#ffffff;fill-opacity:1;fill-rule:nonzero;stroke:none"
           d="m 16009.1,9707.78 c 0,0 -369.9,-2620.69 -746.6,-5018.44 0,0 1021.6,-277.92 1028.6,-895.02 8.9,-777.47 -837.9,-827.14 -1875.4,-827.76 -741.9,-0.42 -1266.4,168.52 -1576,363.25 -674.7,424.3 591.1,1182.73 -510.1,6660.03 l 3679.5,-282.06" /></g><g
         transform="scale(1.4291)"
         id="g190"><path
           id="path192"
           style="fill:#cdc6d0;fill-opacity:1;fill-rule:nonzero;stroke:none"
           d="m 14623.4,3141.13 c -1,0 -1.9,0 -2.8,0 -738.6,0 -1193.1,166.4 -1434.2,295.22 22.4,52.69 41.1,106.36 56.6,160.17 17.5,57.52 28.4,115.25 40.1,173.05 8.1,57.65 17.7,115.45 21.4,172.69 5.7,58.92 8.3,111.19 11.8,165.42 l 10.3,161.71 20.5,323.42 40.9,646.98 43.2,680.56 c 163.8,-25.33 360.5,-49.05 576.1,-61.57 -36.8,-118.47 -67.4,-239.32 -91.6,-362.26 -175.5,-892.59 -300.1,-1659.57 119.2,-1923.3 283.9,-178.64 699.7,-253.17 1286.4,-253.17 62.2,0 126.1,0.84 192.1,2.45 296.8,7.35 560.3,70.46 786.6,174.45 -14.8,-21 -31.3,-40.73 -49.7,-59.27 -269.9,-273.18 -923.6,-296.2 -1626.9,-296.55 m -523.3,2979.14 c -246.6,10.98 -471.9,37.93 -652,66.05 l 21.9,347.35 c 13.6,215.59 29,431.11 32.9,647.47 1.2,58.43 2.2,116.86 2.6,175.36 477.9,56.54 949.9,172.06 1396.4,363.02 239.3,104.12 472.1,229.09 685.1,388.71 109.1,81.17 213.7,171.78 308.5,273.1 -15.1,-103.42 -30.7,-210.62 -47,-321.45 -126.2,-105.6 -253.3,-198.03 -378,-278.92 C 14849,7378.05 14371,6797.34 14100.1,6120.27" /></g><g
         transform="scale(1.46071)"
         id="g194"><path
           id="path196"
           style="fill:#371a45;fill-opacity:1;fill-rule:nonzero;stroke:none"
           d="m 14304.3,2815.28 c -892.1,0 -1404.1,238.18 -1630.1,380.3 -329.1,206.95 -290,493.73 -219.3,1014.51 112.4,826.52 321.5,2365.09 -344.7,5679.04 -14.1,69.83 31.2,137.77 101,151.87 69.8,14 137.8,-31.2 151.9,-101.08 674.7,-3356.46 461.8,-4923.03 347.4,-5764.61 -70.7,-520.16 -80.5,-647.29 101.1,-761.41 202.3,-127.34 665.4,-340.73 1492.7,-340.73 0.9,0 1.7,0 2.7,0 688.2,0.34 1327.6,22.87 1591.8,290.14 96.6,97.76 142.6,228.86 140.6,400.9 -4.8,421.24 -670,695.28 -925.9,765.31 -63.4,17.39 -103.6,79.55 -93.4,144.45 369.4,2351.47 736.9,4952.68 740.6,4978.63 10,70.51 75.4,119.66 145.7,109.67 70.5,-9.93 119.7,-75.17 109.7,-145.68 -3.6,-25.61 -360.2,-2549.11 -724.1,-4873.06 282.1,-97.15 998.7,-400.56 1005.3,-976.38 2.7,-241.04 -69.7,-437.87 -215.1,-585.06 -334.4,-338.46 -1001.7,-366.4 -1775.1,-366.81 -0.9,0 -1.9,0 -2.8,0" /></g><g
         transform="scale(1.46946)"
         id="g198"><path
           id="path200"
           style="fill:#ffffff;fill-opacity:1;fill-rule:nonzero;stroke:none"
           d="m 15736.7,8993.1 c -198.2,-1595.42 -3685.5,-2319.15 -5198.4,-1182.88 -129.9,97.99 -245.1,209.32 -342.4,335.08 -97.3,125.08 -176.4,264.52 -234.48,418.93 -50.09,132.16 -84.59,274.8 -101.47,428.87 -139.44,1265.6 -137.26,2707.5 22.32,4275.5 19.8,195.7 41.78,393.2 66.69,592.6 7.62,60.9 15.31,121.9 23.27,183.1 9.26,68.6 18.51,137.6 28.07,206.9 49.2,355 106.3,716.3 171.1,1082.3 55.8,313.7 42.4,320 62.8,638.5 21.1,313.6 1198.5,328 2378.2,141.1 868.3,-183.8 2138.9,-347.9 2387.1,-1055.9 4.2,-46 13.8,-95.4 26.2,-146.5 30,-122.5 77.9,-252.7 114.6,-353.6 84.5,-231 205.7,-677.7 321.6,-1249.6 115.5,-570.4 225.6,-1265.5 287.8,-1993.6 66.4,-772.5 78.5,-1582.09 -13,-2320.8" /></g><g
         transform="scale(1.46944)"
         id="g202"><path
           id="path204"
           style="fill:#ffffff;fill-opacity:1;fill-rule:nonzero;stroke:none"
           d="m 15736.9,8993.11 c -198.4,-1595.58 -3685.6,-2319.12 -5198.4,-1182.83 -130.2,98.06 -245.2,209.26 -342.6,334.89 -97.4,125.29 -176.5,264.66 -234.59,419.14 -49.95,132.02 -84.59,274.6 -101.27,428.8 -5.44,49 -10.54,97.73 -15.37,147.07 -28.79,283.58 -50.3,576.14 -64.38,876.42 -48.05,1001.4 -16.06,2092.3 101.87,3252.3 2.25,20.5 4.22,41 6.4,61.8 v 0.3 c 18.31,175.3 38.18,351.6 60.29,530.4 7.69,60.9 15.38,121.8 23.35,183 1.97,14.7 3.87,29.4 6.12,44.2 7.35,53.8 14.43,108 22.08,162.5 49,355.3 106.1,716.5 170.9,1082.5 56,313.7 42.6,320.1 63,638.6 20.9,313.7 1198.5,327.8 2378.2,141 868.4,-184 2138.9,-348 2387,-1055.9 4.2,-46.2 13.7,-95.5 26.3,-146.4 30.1,-122.8 77.8,-252.9 114.7,-353.8 40.4,-110.3 89.1,-269.8 141.6,-468.5 39.4,-149.6 81.1,-321.4 123.1,-511.8 18.9,-86.2 37.8,-175.9 56.7,-269.2 115.7,-570.3 225.6,-1265.4 288.1,-1993.8 66.3,-772.3 78.2,-1582.1 -13.1,-2320.69" /></g><g
         transform="scale(1.47682)"
         id="g206"><path
           id="path208"
           style="fill:#371a45;fill-opacity:1;fill-rule:nonzero;stroke:none"
           d="m 15525.8,12842 c 82.8,-234.1 135.1,-474.9 174.8,-717.5 9.7,-60.6 18,-121.6 26.4,-182.4 l 22.2,-183.1 c 14.3,-122.1 27.2,-244.4 38.9,-366.8 46.6,-489.7 70.9,-982.3 65.1,-1476.2 -4,-247.02 -16.3,-494.18 -37.5,-741.19 l -19.7,-185.13 c -3.3,-30.81 -5.9,-60.87 -12.2,-95.61 -5.6,-33.59 -10.3,-67.38 -19.5,-100.15 -31.1,-132.52 -83.5,-258.94 -150.8,-374.52 -134.9,-232.05 -324.3,-420.03 -530.1,-573.13 -206.1,-154.45 -431.3,-275.39 -662.9,-376.15 -464.8,-198.8 -958.1,-313.1 -1456.3,-362.8 -498.3,-47.74 -1006,-30.88 -1500.8,82.27 -123.5,29.25 -246.2,63.11 -366.7,105.5 -120.4,42.86 -238.9,92.56 -354.1,150.59 -228.7,118.57 -447,270.04 -623.7,467.97 -88.6,98.25 -167.15,206.32 -232.77,322.11 -65.48,115.99 -115.58,240.18 -152.96,367.14 -8.46,31.96 -19.16,63.52 -25.53,95.88 l -20.31,96.9 c -9.82,64.12 -20.59,132.24 -25.46,191.69 -11.31,122.63 -25.8,245.06 -34.54,367.83 -80.58,981.7 -75.63,1967.1 -13.27,2947.1 64.8,980 187.3,1954.9 356.38,2921.1 20.44,121.1 42.76,237.3 51.66,349.2 4.7,56.2 7.1,116.7 10.5,178.2 l 5.2,92.4 3,46.5 0.7,11.6 c 0.8,7.2 2.1,16.1 3.5,24 3.3,16 5.5,33.2 11.8,47.6 22.5,63.9 62.9,103.1 99.4,134.8 36.7,28.4 73.6,49.4 108.5,64.8 70.2,31.4 137,49.9 202.6,64.4 130.9,27.8 258.2,40.9 384.6,48.7 252.5,14.4 501.3,7.8 748.9,-7.5 247.5,-16 493.5,-42 738.4,-75.7 61.3,-8.7 121.5,-17.2 185.3,-27.4 l 47.2,-7.4 46.3,-9.5 90.6,-18.8 358.6,-72.4 c 240.3,-49 482.1,-101.1 722.6,-169.1 240.1,-68.8 480.8,-151.1 709.2,-279.1 113.6,-64.4 223.8,-142.2 321.3,-239.5 97.9,-96.5 178.4,-219.2 226.9,-354.4 3.4,-9.5 5.5,-19.3 6.5,-29 l 0.2,-1.4 c 6.7,-70.5 26.3,-149.4 49.7,-227.4 23.7,-78.6 51.8,-157.7 81.2,-238.6 23.9,-66.2 -10.3,-139.3 -76.5,-163.4 -65.9,-23.8 -138.7,10.1 -163.1,75.7 -30.1,81.2 -60.6,164.7 -87.4,251.2 -26.5,87.1 -50.9,176.2 -61.8,277.8 l 6.7,-30.5 c -35.3,94 -91.1,180.9 -167.6,255.1 -75.9,74.5 -166.8,139 -265.7,193.9 -199.1,109.5 -423.4,187.1 -652.3,251.3 -229.4,63.8 -465.3,113.8 -703.5,161.3 l -359.3,70.9 -88.7,18 -43.4,8.8 -43.3,6.5 -176.8,25.4 c -238.9,31.8 -478.7,56.2 -718.3,70.5 -239.5,13.9 -479.6,18.9 -714.5,4.4 -117,-7.5 -233.2,-20.6 -340.9,-44.1 -53.4,-11.8 -104.6,-27.4 -145.7,-46 -21,-9.1 -36.7,-19.7 -48.6,-28.2 -8.5,-8.2 -13.2,-13.9 -9.7,-9.1 -0.9,0.8 1.7,1.9 1.2,3.3 l -0.6,1.5 -0.7,-11.3 -2.7,-44.9 -4.7,-90.3 c -3.1,-60.3 -5.3,-121.8 -10.7,-187.1 -10.7,-131.7 -34.9,-255.6 -54.8,-375 -167,-957 -287.67,-1921.9 -351.18,-2890.3 -61.08,-968.2 -65.28,-1940.3 14.42,-2904.77 8.6,-120.66 22.96,-240.72 34.13,-361.05 5.15,-62.23 14.29,-114.64 22.55,-171.11 l 17.33,-82.2 c 5.28,-27.63 14.65,-53.9 21.65,-80.92 31.7,-106.85 73.1,-210.52 127.3,-307.42 54.5,-96.69 119.8,-187.29 194.3,-270.58 148.3,-167.79 337,-300.51 540.3,-406.96 102.6,-52.07 209.3,-97.3 318.6,-136.71 109.7,-38.94 222.4,-70.49 336.3,-97.91 457.4,-106.52 938.2,-125.07 1410.6,-81.19 472.4,45.3 941.7,153.03 1375.7,337.08 216,93.1 423.9,204.35 609,342.29 185.5,136.64 349.1,300.85 460.5,491.53 55.7,95.07 97.8,196.36 122.9,301.39 24.4,99.87 32.1,226.02 46.6,343.98 21.2,239.3 34.1,479.75 38.8,720.81 7.4,482.34 -14.8,966.14 -59.1,1448.34 -21.8,241.1 -50.6,481.6 -79.9,722.2 -26.9,241 -49.8,482.5 -52,729.1 v 0.2 c -0.3,35.7 28.4,64.8 64.1,65.2 28.3,0.3 52.5,-17.9 61.5,-43.1" /></g><g
         transform="scale(1.39074)"
         id="g210"><path
           id="path212"
           style="fill:#371a45;fill-opacity:1;fill-rule:nonzero;stroke:none"
           d="m 14716.3,6010.77 c -745.2,0 -1365.6,159.85 -1407.7,170.92 -72.2,19.06 -115.4,93.12 -96.4,165.45 19.1,72.27 93.1,115.48 165.5,96.5 16,-4.24 1618.8,-416.04 2710,99.51 67.6,31.93 148.4,3.02 180.4,-64.64 31.9,-67.66 3,-148.34 -64.7,-180.33 -465.4,-219.82 -1002.6,-287.41 -1487.1,-287.41" /></g><g
         transform="scale(1.37033)"
         id="g214"><path
           id="path216"
           style="fill:#371a45;fill-opacity:1;fill-rule:nonzero;stroke:none"
           d="m 16122.2,4825.55 c -46.3,10.58 -100.9,20.36 -152.4,28.1 -52.3,8.09 -105,14.73 -157.9,19.77 -105.5,10.29 -211.8,15.69 -317.5,13.72 -105.5,-2.85 -210.6,-11.9 -313.3,-30.94 -102,-20.87 -201.1,-51.6 -293.3,-96.48 l -2.8,-1.31 c -34.1,-16.56 -75.2,-2.41 -91.8,31.74 -15.5,31.82 -3.9,69.84 25.3,88.31 100.6,62.97 209.5,109.31 320.8,144.41 111.8,33.06 225.6,54.88 339.9,69.84 114.3,14.08 229,20.21 343.6,21.02 57.5,0.44 114.7,-0.73 172.2,-3.65 58.3,-2.7 113.2,-6.42 175.6,-13.87 75.5,-9.04 129.4,-77.57 120.4,-153.03 -9,-75.52 -77.5,-129.38 -153.1,-120.41 -4.8,0.59 -9.5,1.39 -14.1,2.49 l -1.6,0.29" /></g><g
         transform="scale(1.1771)"
         id="g218"><path
           id="path220"
           style="fill:#ffffff;fill-opacity:1;fill-rule:nonzero;stroke:none"
           d="m 12510.6,3389.67 c 2191.7,-81.89 3377.5,-10.62 3475.1,1480.5 140.7,2144.76 314.3,4643.6 314.3,4643.6 l -3129.6,2434.53 -824.6,641.2 c -3.1,-180.5 -5.8,-358.8 -7.3,-535.6 -43,-3715.22 148.3,-6570.62 148.3,-6570.62 0,0 -1195.7,-320.78 -1275.6,-1168.12 -59.6,-631.04 528.3,-896.69 1299.4,-925.49" /></g><g
         transform="scale(1.17852)"
         id="g222"><path
           id="path224"
           style="fill:#cdc6d0;fill-opacity:1;fill-rule:nonzero;stroke:none"
           d="m 16222,9547.86 -4.3,3.31 c 4.3,1.36 8.5,2.63 12.5,3.9 -2.9,-2.2 -5.6,-4.66 -8.2,-7.21 m 77.6,21.72 c -1.1,0.26 -2.1,0.51 -3.2,0.68 -3.2,0.68 -6.4,1.19 -9.6,1.45 8.5,2.37 13.2,3.56 13.2,3.56 v 0 l -0.4,-5.69" /></g><g
         transform="scale(1.17288)"
         id="g226"><path
           id="path228"
           style="fill:#cdc6d0;fill-opacity:1;fill-rule:nonzero;stroke:none"
           d="m 13527.8,3558.94 c -223.6,0 -448.3,4.86 -673.5,11.68 l -196.5,6.48 -98.3,3.5 -93.4,5.28 c -124.1,8.79 -247.6,22.43 -365.3,49.03 -117.5,25.83 -231.9,60.19 -332.8,109.13 -100.5,49.28 -186.8,112.8 -246,189.7 -59.6,76.66 -92.6,167.46 -98.8,270.62 0,0.26 -0.1,0.6 -0.1,0.94 162.6,-38.62 343.8,-60.54 536.6,-67.78 352.7,-13.13 679.7,-22.34 980.2,-22.34 1573.3,0 2425.2,251.77 2507.4,1508.17 113.7,1738.8 100.6,3297.28 346.2,3684.53 91.1,143.66 363.7,245.29 502.2,289.2 l 4.3,-3.32 c -10.4,-10.66 -18.1,-24.3 -21.4,-39.99 -110.4,-520.26 -153.8,-1045.29 -188.9,-1570.75 l -112.7,-1576.13 -56.3,-788.06 -28.2,-394.07 -14.1,-196.95 c -4.8,-65.4 -9,-133.18 -15.4,-192.35 -4.2,-61.73 -15.1,-121.16 -23.7,-181.27 -12.7,-58.48 -24,-117.48 -41.7,-173.42 -33.5,-112.62 -79.3,-218.35 -140.5,-311.71 -120.7,-188.25 -308,-321.09 -528.4,-409.33 -221.7,-86.8 -469,-133.86 -721.1,-161.31 -252.6,-27.2 -510.7,-37.35 -770.4,-39.05 -36.4,-0.34 -72.9,-0.43 -109.4,-0.43" /></g><g
         transform="scale(1.18437)"
         id="g230"><path
           id="path232"
           style="fill:#371a45;fill-opacity:1;fill-rule:nonzero;stroke:none"
           d="m 16279.3,9450.02 c 20.7,-262.76 19.4,-523.99 13.8,-784.98 -4.7,-261.06 -23.3,-521.12 -39.6,-781.26 l -99,-1561.25 -49.4,-780.67 -24.7,-390.25 -12.4,-195.13 c -4.2,-65.43 -7.5,-128.5 -14.3,-199.6 -4.5,-69.06 -16,-138.81 -25.8,-208.38 -14.1,-69.74 -27.3,-139.4 -48.4,-208.8 -39.8,-138.47 -97.3,-276.18 -178.6,-402.66 -80.8,-126.57 -185.6,-239.8 -304.3,-330.81 -118.5,-91.44 -249.1,-161.44 -382.1,-214.55 -267.2,-104.02 -539.9,-152.9 -808,-182.29 -268.5,-28.54 -534.6,-38.25 -798.9,-39.77 -264.3,-1.69 -527,4.05 -788.9,12.33 l -196.3,6.67 -98.2,3.55 -102.7,5.99 c -136.9,9.79 -274.7,25.16 -412.7,56.15 -137.7,30.56 -276.4,71.18 -410.7,138.3 -133.3,67.21 -264.9,160.76 -364.7,292.81 -100.7,130.79 -156.9,298.31 -163.9,456.28 -6.9,156.8 15,312.32 73.9,455.6 26.8,72.45 64.6,138.9 104,203.32 41.8,62.4 86.4,122.6 136.3,176.46 98.6,109.18 210.4,200.2 327.1,279.4 117,78.85 239.7,144.88 365.5,202.13 62.9,28.62 126.5,54.96 191.2,78.94 65.9,24.15 127.6,45.43 201.3,65.77 l 0.2,0.09 -117.4,-164.31 c -37,591.12 -63.3,1179.28 -85.5,1769.05 -21.7,589.43 -39.2,1178.86 -49.8,1768.54 -10.9,589.59 -18.4,1179.31 -18.4,1769.11 -1.9,589.7 4.6,1179.5 13.2,1769.3 1.4,87.8 73.5,158 161.4,156.7 87.8,-1.3 157.9,-73.5 156.7,-161.3 v -1 c -8.7,-587.6 -15.2,-1175.4 -13.2,-1763.3 0,-587.8 7.4,-1175.61 18.2,-1763.44 10.7,-587.73 28.1,-1175.39 49.7,-1762.79 22.1,-586.98 48.5,-1175.31 85.1,-1759.59 4.7,-76.07 -44.6,-143.11 -115,-163.54 l -2.5,-0.68 h -0.1 c -51.8,-15.28 -113.3,-37.15 -169.3,-59.02 -57.2,-22.46 -113.7,-46.94 -169,-73.37 -110.7,-52.61 -216.9,-113.14 -315.3,-181.19 -195.9,-135.69 -363.3,-307.51 -438,-508.46 -40.4,-98.62 -52.4,-207.71 -47.4,-310.55 6.1,-102.16 38.8,-192.08 97.8,-267.99 58.6,-76.16 144.1,-139.06 243.6,-187.87 100,-48.46 213.2,-82.48 329.6,-108.07 116.6,-26.34 238.8,-39.85 361.7,-48.55 l 92.6,-5.23 97.3,-3.46 194.6,-6.42 c 259.4,-7.85 518.1,-13.09 775.3,-11.15 257.2,1.69 512.8,11.74 763,38.67 249.5,27.19 494.5,73.8 714,159.75 218.3,87.39 403.8,218.94 523.3,405.37 60.6,92.45 106,197.15 139.1,308.68 17.6,55.39 28.8,113.82 41.3,171.74 8.6,59.53 19.3,118.38 23.5,179.5 6.4,58.6 10.5,125.73 15.2,190.49 l 14,195.04 27.9,390.25 55.8,780.41 111.6,1560.84 c 34.7,520.36 77.7,1040.3 187.1,1555.51 9.2,43.4 51.8,71.09 95.2,61.89 35.6,-7.51 60.6,-37.57 63.4,-72.11 v -0.84" /></g><g
         transform="scale(1.17669)"
         id="g234"><path
           id="path236"
           style="fill:#371a45;fill-opacity:1;fill-rule:nonzero;stroke:none"
           d="m 14235.7,6949.3 c -1106.9,0 -1856.3,328.3 -1902.9,349.2 -80.7,36.21 -116.6,130.96 -80.4,211.61 36.2,80.57 130.9,116.6 211.5,80.48 18.1,-8.07 1637.4,-711.4 3600.6,4.34 83.1,30.25 175,-12.58 205.2,-95.61 30.3,-83.03 -12.4,-174.9 -95.6,-205.23 -708.9,-258.44 -1370.7,-344.79 -1938.4,-344.79" /></g><g
         transform="scale(1.02179)"
         id="g238"><path
           id="path240"
           style="fill:#371a45;fill-opacity:1;fill-rule:nonzero;stroke:none"
           d="m 14342.2,6496.67 c 87,9.88 164.4,14.78 245.9,18.5 80.5,3.81 161,5.38 241.4,4.79 160.8,-1.17 321.5,-9.2 481.9,-28.09 160.3,-19.96 320.2,-48.74 477.2,-93.07 156.7,-46.68 310.4,-108.34 453.3,-193.39 43.7,-26.03 58.1,-82.59 32.1,-126.34 -24.4,-40.91 -75.4,-56.08 -117.7,-36.61 l -3.9,1.77 c -131.5,61.16 -272.5,102.36 -417,130.45 -145.5,25.74 -294.2,37.59 -443.2,41.4 -149.4,2.74 -299.5,-4.7 -448.8,-18.4 -74.5,-6.85 -149.1,-15.76 -223.1,-26.72 -72.9,-10.37 -149.8,-23.39 -216.3,-37.77 l -2,-0.4 c -99.6,-21.53 -197.8,41.79 -219.4,141.43 -21.5,99.72 41.8,197.98 141.4,219.51 6,1.27 12.3,2.25 18.2,2.94" /></g><g
         transform="scale(1.47387)"
         id="g242"><path
           id="path244"
           style="fill:#ffffff;fill-opacity:1;fill-rule:nonzero;stroke:none"
           d="m 16293.1,9767.45 c -6.9,-284.63 -243.3,-509.75 -527.9,-502.83 -284.6,6.99 -509.7,243.31 -502.8,527.93 6.9,284.65 243.2,509.75 527.9,502.85 284.6,-6.9 509.7,-243.3 502.8,-527.95" /></g><g
         transform="scale(1.46175)"
         id="g246"><path
           id="path248"
           style="fill:#b9afbe;fill-opacity:1;fill-rule:nonzero;stroke:none"
           d="m 16024.6,9487.84 -10.8,306.55 c 107.4,19.78 203.6,72.72 277.1,147.91 6.2,-29.21 9.1,-59.59 8.3,-90.78 -4.1,-171.65 -119.3,-314.97 -274.6,-363.68" /></g><g
         transform="scale(1.48557)"
         id="g250"><path
           id="path252"
           style="fill:#371a45;fill-opacity:1;fill-rule:nonzero;stroke:none"
           d="m 15653.2,10087.6 c -207.8,0 -379.3,-166.43 -384.3,-375.3 -5.2,-212.04 163.1,-388.74 375.2,-393.93 211.3,-5.04 388.7,163.17 393.8,375.21 5.2,212.04 -163.1,388.72 -375.2,393.92 -3.1,0.1 -6.3,0.1 -9.5,0.1 m 0.5,-1022.87 c -5.3,0 -10.6,0.07 -15.8,0.21 -351.9,8.54 -631.1,301.7 -622.5,653.55 8.5,351.81 301,631.51 653.5,622.51 351.9,-8.5 631.1,-301.8 622.6,-653.54 -8.5,-346.6 -293.1,-622.73 -637.8,-622.73" /></g><g
         transform="scale(1.38251)"
         id="g254"><path
           id="path256"
           style="fill:#cdc6d0;fill-opacity:1;fill-rule:nonzero;stroke:none"
           d="m 13957.2,7901.36 c -2.4,64.66 -5.9,129.47 -11,194.28 v 0.73 c -2.4,28.64 -22.6,53.74 -51.7,61.12 0.2,3.18 0.4,4.84 0.4,4.92 v 0 c 722.1,25.53 1428.1,250.7 1974.4,545.96 l -2652.7,-93.46 -629.5,489.77 c 14.5,39.49 27.6,79.42 39.6,119.63 37.8,-66.18 86,-127.08 143.5,-180.68 142.5,-132.8 325.5,-205.07 518,-205.07 9.1,0 18.3,0.15 27.4,0.51 l 105.1,3.69 c 3,0.07 6,0.15 8.9,0.29 v 0 0 l 2675.8,93.96 c 4.4,0.15 8.8,0.36 13.2,0.58 l 99.9,3.47 c 27.3,0.87 54.5,3.18 81.5,7.16 -102.5,-125.2 -225.8,-237.25 -359.6,-335.91 -197.8,-147.34 -419.9,-266.18 -650.6,-365.64 -421.6,-178.81 -874.5,-290.19 -1332.6,-345.31 m -1509.5,2895.54 c -8.3,289.2 25.1,823.9 306.6,939.3 -26.7,-21.9 -52.2,-45.8 -76.2,-71.5 -139.1,-149.3 -211.8,-343.1 -204.5,-545.7 l 3.4,-97.9 c 0.1,-5.3 0.2,-10.5 0.4,-15.8 l 7.1,-201.4 c -12,-2.3 -24.2,-4.6 -36.8,-7" /></g><g
         transform="scale(1.40523)"
         id="g258"><path
           id="path260"
           style="fill:#371a45;fill-opacity:1;fill-rule:nonzero;stroke:none"
           d="m 13734.9,7619.7 c -0.5,51.3 -1.5,102.54 -3.4,153.92 450.8,54.23 896.3,163.82 1311.1,339.73 227,97.85 445.5,214.77 640.1,359.73 131.7,97.07 252.9,207.3 353.8,330.48 20.6,2.99 41,6.83 61.1,11.67 34.9,8.26 63.6,29.53 81.7,57.64 41.9,19.72 82.3,42.84 120.7,69.25 -394,-692.49 -1446.4,-1183.09 -2565.1,-1322.42" /></g><g
         transform="scale(1.12099)"
         id="g262"><path
           id="path264"
           style="fill:#cdc6d0;fill-opacity:1;fill-rule:nonzero;stroke:none"
           d="m 16086.3,10617.7 c -279.6,0 -527.8,151.3 -663.3,378.1 9.7,19.4 19.2,38.8 28.4,58.3 26.6,57.4 50.6,115.7 72.2,174.7 l 776.4,-604.1 -186.8,-6.5 c -8.9,-0.3 -17.9,-0.5 -26.9,-0.5" /></g><g
         transform="scale(1.17852)"
         id="g266"><path
           id="path268"
           style="fill:#a79bad;fill-opacity:1;fill-rule:nonzero;stroke:none"
           d="m 16299.6,9569.5 c 0,0 0,0 0,0.08 l 0.4,5.69 c 0,-0.09 -0.2,-2.04 -0.4,-5.77" /></g><g
         transform="scale(1.18409)"
         id="g270"><path
           id="path272"
           style="fill:#371a45;fill-opacity:1;fill-rule:nonzero;stroke:none"
           d="m 16181.5,9029.11 41.3,495.41 c 0,-0.09 0,-0.09 0,-0.09 34,-8.61 57.6,-37.92 60.3,-71.36 v -0.85 c 6,-75.67 10.1,-151.34 12.8,-226.84 2.2,-60.97 3.5,-121.78 4.1,-182.67 -39.4,-4.9 -78.9,-9.46 -118.5,-13.6" /></g><g
         transform="scale(1.42745)"
         id="g274"><path
           id="path276"
           style="fill:#ffffff;fill-opacity:1;fill-rule:nonzero;stroke:none"
           d="m 15703.9,8791.46 -2812.1,-98.71 c -332.9,-11.77 -615,251.01 -626.8,584.26 l -52.4,1496.49 c -10.3,291.8 190,544.1 463.7,610.3 38.7,9.6 79.1,15 120.5,16.5 l 2811.8,98.7 c 333.2,11.8 615.4,-251.1 626.7,-584.3 l 41.9,-1185.21 11,-311.25 c 11.8,-333.25 -251.5,-615.01 -584.3,-626.78" /></g><g
         transform="scale(1.41501)"
         id="g278"><path
           id="path280"
           style="fill:#cdc6d0;fill-opacity:1;fill-rule:nonzero;stroke:none"
           d="m 13708.6,8938.19 c -120.4,0 -235.2,45.37 -324.6,128.84 -93.9,87.42 -147.9,205.51 -152.3,332.51 l -36.8,1049.66 c 32,-145.9 71.5,-280.8 125.1,-402.2 41.4,-236.8 196.9,-421.88 389.9,-466.55 210.5,-131.44 503.4,-204.8 918.9,-204.8 140,0 293.9,8.34 463.3,25.58 546.6,55.55 936.5,211.09 1197.5,343.82 l 4.9,-137.53 c 5.5,-156.54 -50.8,-306.36 -158.5,-421.98 -81.2,-86.99 -183.7,-146.29 -296.3,-172.65 l -2113.8,-74.41 c -5.7,-0.22 -11.5,-0.29 -17.3,-0.29" /></g><g
         transform="scale(1.43832)"
         id="g282"><path
           id="path284"
           style="fill:#371a45;fill-opacity:1;fill-rule:nonzero;stroke:none"
           d="m 15406.7,11277.9 c -6.8,0 -13.7,-0.1 -20.6,-0.4 l -2572,-90.3 c -319.5,-11.2 -570.3,-280.3 -559.1,-599.8 l 44.5,-1266.66 c 5.4,-154 71.1,-297.15 184.7,-403.18 113.7,-105.96 261.2,-161.3 415.1,-155.94 l 2572,90.38 c 154,5.42 297.2,70.99 403.1,184.66 106,113.75 161.4,261.14 156,415.14 l -44.5,1266.7 c -11,312.6 -268.9,559.4 -579.2,559.4 M 12878.5,8499.37 c -213,0 -415.4,79.81 -572.9,226.65 -164.8,153.65 -259.9,361.6 -267.8,585.54 l -44.6,1266.74 c -16.2,463.8 347.9,854.4 811.7,870.6 l 2572,90.4 c 463.4,16.8 854.4,-347.8 870.7,-811.6 l 44.5,-1266.72 c 7.9,-223.95 -72.4,-438.02 -226.1,-602.86 -153.7,-164.92 -361.6,-260.03 -585.5,-267.88 l -2572,-90.32 -4.6,130.85 4.6,-130.85 c -10,-0.34 -20.1,-0.55 -30,-0.55" /></g><g
         transform="scale(1.3851)"
         id="g286"><path
           id="path288"
           style="fill:#ffffff;fill-opacity:1;fill-rule:nonzero;stroke:none"
           d="m 16300,9075.71 c -37.3,-9.1 -75.8,-14.23 -115.9,-15.45 l -2898.2,-101.73 c -251.4,-8.74 -474.6,134.07 -580.6,346.83 -38.7,77.18 -61.8,163.68 -64.9,255.29 l -24.2,685.15 -8.1,226.1 -22.1,631 c -12.1,343.5 259.1,633.8 602.1,646 l 626.2,21.8 c -286.7,-64.6 -497.5,-326.7 -487.1,-630.5 l 29.1,-833 25,-709.58 c 12.1,-343.01 302.9,-614.32 645.9,-602.2 l 2272.8,80.29" /></g><g
         transform="scale(1.14299)"
         id="g290"><path
           id="path292"
           style="fill:#cdc6d0;fill-opacity:1;fill-rule:nonzero;stroke:none"
           d="m 16072.6,11020.3 c -148.9,0 -291,56.3 -401.7,159.5 -116.1,108.3 -183.1,254.4 -188.5,411.5 v 0.1 l -1.4,39.5 c 84,13.4 169.8,28.4 257.4,45.1 43.1,8.2 81.1,33.3 105.7,69.7 7.9,11.8 142,213.6 186.1,479.7 l 21.1,-600.4 c 7.7,-224.4 95.5,-434.1 248.7,-597.1 l -205.7,-7.2 c -7.2,-0.3 -14.5,-0.4 -21.7,-0.4" /></g><g
         transform="scale(1.39736)"
         id="g294"><path
           id="path296"
           style="fill:#371a45;fill-opacity:1;fill-rule:nonzero;stroke:none"
           d="m 13226.5,11516.5 -149.3,-5.2 c -128.5,-4.6 -248.1,-59.4 -336.6,-154.4 -88.5,-95 -134.8,-218.1 -130.2,-346.5 l 53.7,-1529.04 v -0.07 c 4.4,-128.52 59.2,-248.04 154.1,-336.63 95,-88.45 218.1,-134.83 346.4,-130.1 l 168.2,5.87 c -125.3,133.32 -197.1,304.86 -203.4,488.42 l -53.8,1528.85 c -6.2,177.3 50.2,344.7 150.9,478.8 m -79.6,-2771.88 c -190.4,0 -371.5,71.49 -512.4,202.88 -147.8,137.69 -232.9,323.9 -239.8,524.42 l -53.7,1528.88 c -7.2,200.4 64.7,392.2 202.4,539.9 137.6,147.6 323.8,232.8 524.3,240 l 620.6,21.6 c 69.1,2.2 129.5,-48.4 138.3,-117.4 9,-69 -36,-133.4 -103.9,-148.7 -227,-51.3 -385.8,-257 -377.6,-489.1 l 53.6,-1528.88 c 4.5,-128.6 59.2,-248.18 154.3,-336.7 94.9,-88.53 217.9,-134.83 346.3,-130.18 l 2253.1,79.36 c 69,2.72 129.1,-48.01 138.3,-116.71 9.3,-68.71 -35,-133.19 -102.5,-149.14 -46.5,-11.1 -94.3,-17.39 -142.1,-18.82 l -2872,-100.91 c -9.1,-0.36 -18.2,-0.5 -27.2,-0.5" /></g><g
         transform="scale(1.23207)"
         id="g298"><path
           id="path300"
           style="fill:#22a7f0;fill-opacity:1;fill-rule:nonzero;stroke:none"
           d="m 16298.1,11687.9 c 1.9,-64.2 -73.1,-584.5 -73.1,-584.5 0,0 -163.9,-4.9 -365.3,-10.8 -251.6,-7.4 -463.2,247.1 -472.6,568.5 -9.5,321.3 186.8,587.8 438.4,595.1 169.7,5.1 365.3,10.8 365.3,10.8 0,0 104.3,-474.7 107.3,-579.1" /></g><g
         transform="scale(1.20674)"
         id="g302"><path
           id="path304"
           style="fill:#2976b4;fill-opacity:1;fill-rule:nonzero;stroke:none"
           d="m 16181.2,11428.9 c -196.3,0.1 -359.8,213.3 -367.6,480 -4,135.7 32.9,263.3 103.7,359.6 65.2,88.6 151.7,138.8 243.4,141.5 l 110.6,3.3 c -119.2,-110.7 -194.2,-292.8 -188.2,-496.5 0,-2.5 0.1,-5.1 0.2,-7.5 0.2,-6 0.6,-11.9 0.9,-17.8 0.4,-6.5 0.9,-13.1 1.5,-19.5 16.2,-184.7 98.1,-343.9 214.3,-439.7 l -110.5,-3.3 c -2.8,0 -5.5,-0.1 -8.3,-0.1" /></g><g
         transform="scale(1.23974)"
         id="g306"><path
           id="path308"
           style="fill:#371a45;fill-opacity:1;fill-rule:nonzero;stroke:none"
           d="m 16009.9,12087.8 -279.4,-8.1 c -89.3,-2.7 -173.4,-51.6 -236.9,-137.8 -68.9,-93.7 -104.8,-217.9 -101,-350 7.8,-263.3 171.4,-473.1 366,-467.1 l 278.2,8.2 c 31.1,221.1 59.8,443.8 59.7,479.8 -1.9,59.6 -48.7,296.4 -86.6,475 M 15751.1,10923 c -299.3,0 -549.2,294.1 -560,663 -5.2,176.8 44.6,345.8 140.2,475.5 101,137.2 240.7,215.2 393.3,219.8 l 363.2,10.6 c 47.4,1.3 91,-31.9 101.4,-79.2 17.6,-80.3 105.7,-486.4 108.9,-594.2 1.9,-67.3 -55.9,-474.9 -73.6,-598.2 -7,-48.5 -47.9,-85 -96.9,-86.4 l -363.1,-10.7 c -4.5,-0.1 -9,-0.2 -13.4,-0.2" /></g><g
         transform="scale(1.26026)"
         id="g310"><path
           id="path312"
           style="fill:#22a7f0;fill-opacity:1;fill-rule:nonzero;stroke:none"
           d="m 16290.8,11436.9 c 9.2,-314.1 -182.7,-574.6 -428.6,-581.8 -245.9,-7.2 -452.9,241.5 -462.1,555.7 -9.2,314.1 182.7,574.6 428.6,581.8 246,7.3 452.9,-241.5 462.1,-555.7" /></g><g
         transform="scale(1.25886)"
         id="g314"><path
           id="path316"
           style="fill:#b9afbe;fill-opacity:1;fill-rule:nonzero;stroke:none"
           d="m 15982.7,10885.4 c 0,0 0,0 0,0.1 160.7,54 283.7,219.9 317.3,427.5 -33.5,-207.7 -156.6,-373.7 -317.3,-427.6" /></g><g
         transform="scale(1.20675)"
         id="g318"><path
           id="path320"
           style="fill:#2e568d;fill-opacity:1;fill-rule:nonzero;stroke:none"
           d="m 16299.9,11432.2 c -116.2,95.8 -198.1,255.1 -214.3,439.7 16.3,-184.8 98.2,-343.9 214.4,-439.7 h -0.1" /></g><g
         transform="scale(1.23436)"
         id="g322"><path
           id="path324"
           style="fill:#371a45;fill-opacity:1;fill-rule:nonzero;stroke:none"
           d="m 16184.3,11082.5 c -91.2,0 -176.8,34.6 -248.9,94 v 0 c 72.1,-59.4 157.8,-93.8 249,-93.8 3.5,0 7,0 10.6,0.2 36.3,1 71.5,7.5 105,18.8 0,-0.1 0,-0.1 0,-0.2 -33.5,-11.3 -68.8,-17.7 -105.1,-18.8 -3.5,-0.1 -7.1,-0.2 -10.6,-0.2" /></g><g
         transform="scale(1.25965)"
         id="g326"><path
           id="path328"
           style="fill:#2976b4;fill-opacity:1;fill-rule:nonzero;stroke:none"
           d="m 15859.4,10860.2 c -89.4,0 -173.3,33.7 -244,91.9 -111.3,91.8 -189.8,244.2 -205.3,421.2 -0.5,5.4 -0.9,10.8 -1.3,16.2 0.9,-12.3 2.1,-24.4 3.7,-36.5 9.5,56.6 25.7,110.1 47.5,158.9 73.4,-194.2 229.5,-327.5 407.2,-327.5 3.4,0 6.9,0.1 10.4,0.1 160.3,4.6 297.8,117 371.5,281.7 19.4,-51.4 33,-107 39.6,-165.5 7.9,45.8 11.2,93.1 9.9,141.9 -0.6,19.8 -1.9,39.3 -4.1,58.6 2.2,-19.3 3.6,-38.8 4.1,-58.6 1.4,-47 -1.7,-92.7 -8.8,-136.6 -33.5,-207.5 -156.5,-373.4 -317.1,-427.3 -32.9,-11 -67.3,-17.4 -102.9,-18.4 -3.5,-0.1 -7,-0.1 -10.4,-0.1 m -445.5,675.1 c 3.7,27.8 9.1,55 16,81.3 v 0 c -6.9,-26.3 -12.3,-53.5 -16,-81.3" /></g><g
         transform="scale(1.25773)"
         id="g330"><path
           id="path332"
           style="fill:#ffffff;fill-opacity:1;fill-rule:nonzero;stroke:none"
           d="m 16300,11623.3 c -51,191.9 -178.9,338.3 -335,380.9 0,0.1 0,0.1 0,0.2 156.1,-42.6 284,-189.2 335,-381.1" /></g><g
         transform="scale(1.19077)"
         id="g334"><path
           id="path336"
           style="fill:#bed6e8;fill-opacity:1;fill-rule:nonzero;stroke:none"
           d="m 16300,12051.1 c -0.3,5.9 -0.7,11.9 -0.9,17.9 0.2,-6 0.6,-12 0.9,-17.9" /></g><g
         transform="scale(1.23188)"
         id="g338"><path
           id="path340"
           style="fill:#c3bac7;fill-opacity:1;fill-rule:nonzero;stroke:none"
           d="m 16069.3,12243.2 c 39.2,15.6 80.8,24.5 124.1,25.8 3.6,0.2 7.1,0.2 10.6,0.2 32.8,0 64.9,-4.4 95.9,-12.9 0,-0.1 0.1,-0.1 0.1,-0.2 -31,8.5 -63.2,12.9 -96,12.9 -3.5,0 -7.1,0 -10.7,-0.1 -43.2,-1.3 -84.8,-10.2 -124,-25.7" /></g><g
         transform="scale(1.25923)"
         id="g342"><path
           id="path344"
           style="fill:#bce4fa;fill-opacity:1;fill-rule:nonzero;stroke:none"
           d="m 15414,11393.3 c 0,0.9 -0.1,1.7 -0.2,2.6 -0.3,5.6 -0.6,11.3 -0.9,17 0,2.4 -0.1,4.7 -0.1,7.1 -1.2,40.8 0.9,80.6 6.3,119.1 -5.3,-38.5 -7.4,-78.3 -6.3,-119.1 0.2,-9 0.6,-17.8 1.2,-26.7 m 840.6,76.8 c -73.4,194.3 -229.8,327.9 -407.7,327.9 -3.3,0 -6.7,0 -10.1,-0.2 -160.4,-4.6 -298,-117.1 -371.6,-282 -12.5,33.3 -22.7,68.2 -30.1,104.7 44.4,169.6 150.3,303.2 285.3,356.8 38.3,15.2 79.1,24 121.3,25.1 3.5,0.2 7,0.2 10.5,0.2 32.1,0 63.5,-4.4 93.9,-12.6 155.8,-42.6 283.5,-188.9 334.5,-380.5 8.9,-33.6 15.5,-68.5 19.4,-104.4 -2.5,22.1 -6,43.8 -10.4,65 -9.1,-35 -21,-68.4 -35,-100" /></g><g
         transform="scale(1.25964)"
         id="g346"><path
           id="path348"
           style="fill:#bed6e8;fill-opacity:1;fill-rule:nonzero;stroke:none"
           d="m 16288.8,11300.7 c -6.7,58.5 -20.2,114.2 -39.6,165.6 14,31.6 25.9,65 35,100 4.4,-21.2 7.9,-43 10.4,-65 2.1,-19.3 3.5,-38.9 4.1,-58.6 1.3,-48.8 -2,-96.2 -9.9,-142 m -876.3,52.3 c -1.6,12.1 -2.8,24.3 -3.6,36.6 -0.6,8.8 -1,17.7 -1.2,26.6 -1.1,40.8 1,80.6 6.3,119.1 3.7,27.9 9.1,55 16,81.3 7.4,-36.4 17.5,-71.4 30.1,-104.6 -21.8,-48.8 -38,-102.3 -47.6,-159" /></g><g
         transform="scale(1.26805)"
         id="g350"><path
           id="path352"
           style="fill:#371a45;fill-opacity:1;fill-rule:nonzero;stroke:none"
           d="m 15741.9,11820.5 c -2.4,0 -5,0 -7.5,-0.1 -87.3,-2.6 -169.5,-50.4 -231.6,-134.7 -67.5,-91.5 -102.5,-213 -98.7,-342.1 3.7,-129.1 45.9,-248.4 118.6,-335.8 66.9,-80.5 151.8,-123.7 239.2,-120.9 189.6,5.6 337.9,219.5 330.3,476.9 -7.5,253.9 -163.9,456.7 -350.3,456.7 z m 12.1,-1130.9 c -144.1,0 -279.6,67.9 -382.9,192.1 -100.8,121.2 -159.1,283.2 -164.1,456.1 -5.1,172.9 43.6,338 137,464.9 98.9,134.1 235.4,210.4 384.7,214.8 298.4,8.4 549.8,-281.9 560.6,-648 10.7,-366 -223.3,-670.9 -521.7,-679.7 -4.5,-0.1 -9.1,-0.2 -13.6,-0.2" /></g><g
         transform="scale(1.34732)"
         id="g354"><path
           id="path356"
           style="fill:#371a45;fill-opacity:1;fill-rule:nonzero;stroke:none"
           d="m 15711.4,9188.39 c -57.4,0 -104.2,46.17 -104.9,103.69 l -9.2,802.62 c -2.6,221.9 105.5,428.6 289,553.2 128.2,87.1 201.9,231.5 197,386.3 l -35.9,1131 c -1.8,57.9 43.7,106.3 101.6,108.1 58.2,2 106.2,-43.6 108,-101.5 l 35.8,-1130.9 c 7.2,-227.1 -100.7,-438.9 -288.7,-566.5 -125.2,-85 -198.9,-226 -197.1,-377.2 l 9.2,-802.74 c 0.7,-57.89 -45.7,-105.4 -103.7,-106.07 h -1.1" /></g><g
         transform="scale(1.13611)"
         id="g358"><path
           id="path360"
           style="fill:#ffffff;fill-opacity:1;fill-rule:nonzero;stroke:none"
           d="m 12504.5,13458.7 c 0,0 -287.6,-251.1 -257.9,-645.2 34.3,-455.7 335.3,-644.5 335.3,-644.5 0,0 1025.1,-678.2 3220.8,-259.3 0,0 497.3,736.8 -194.8,1166.2 0,0 -1985,-619.1 -3103.4,382.8" /></g><g
         transform="scale(1.10426)"
         id="g362"><path
           id="path364"
           style="fill:#cdc6d0;fill-opacity:1;fill-rule:nonzero;stroke:none"
           d="m 15912.5,12366.9 c -2,49.7 -5.4,99.5 -10.5,149.3 -6.8,63 -16.5,126.1 -29.2,188.8 154.2,50.3 281.1,174.2 348.3,335.5 14.2,-31.4 24.9,-64.1 32.4,-98.3 46.5,-213.5 -49.1,-433.9 -103,-535.7 -81,-14.7 -160.3,-27.8 -238,-39.6" /></g><g
         transform="scale(1.13001)"
         id="g366"><path
           id="path368"
           style="fill:#371a45;fill-opacity:1;fill-rule:nonzero;stroke:none"
           d="m 12592.1,13298.9 c -60.3,-89.1 -126.3,-229 -113.1,-403.7 27.2,-362 251.5,-514 261,-520.3 10.9,-7.1 991.9,-623.2 3042.6,-251 52.6,99.5 146.1,314.8 100.6,523.5 -27,124.3 -99.1,228.7 -219.6,317.5 -378.3,-103.7 -1999.7,-480.4 -3071.5,334 m 1924.2,-1629.5 c -1294.9,0 -1924.6,403.9 -1958.4,426.3 -12,7.4 -371,238.6 -411.3,774.4 -35.8,474.1 301.5,774.3 315.8,786.8 63.4,55.4 158.2,54.8 220.9,-1.4 1039.6,-931.3 2940.2,-355.7 2959.4,-349.7 46.1,14.2 96.3,7.9 137.4,-17.6 234.8,-145.7 379.3,-338.4 429.5,-572.7 90.4,-422.7 -172.2,-818.1 -183.4,-834.8 -24.9,-36.8 -63.3,-62.2 -106.9,-70.5 -533.3,-101.7 -1000.4,-140.8 -1403,-140.8" /></g><g
         transform="scale(1.30357)"
         id="g370"><path
           id="path372"
           style="fill:#ffffff;fill-opacity:1;fill-rule:nonzero;stroke:none"
           d="m 12168.1,16300 c 0,0 -3904.41,-2844.8 -3470.45,-6098.4 225.84,-1692.82 1360.75,-1767.92 2054.95,-1641.34 456.4,83.23 424.9,126.04 698.3,254.15 264.2,123.89 688.8,152.65 1078.1,182.19 738.9,56.08 1269.3,1941.4 218.4,2560.8 -644.4,379.9 -1192.4,-21.9 -1370.3,-80.4 -74.5,80.7 -164.4,823.1 140,1458.8 l 651,3364.2" /></g><g
         transform="scale(1.31672)"
         id="g374"><path
           id="path376"
           style="fill:#371a45;fill-opacity:1;fill-rule:nonzero;stroke:none"
           d="m 12130.8,16021.6 c -132.4,-98.7 -266.6,-208.2 -396.2,-317.5 -130.3,-110 -258.2,-223.2 -383.4,-339.2 -250.7,-231.7 -492.4,-473.5 -722.2,-725.5 -459.3,-503.9 -874.03,-1049.4 -1207.06,-1639.3 -166.09,-295 -311.3,-600.9 -426.81,-917 -113.47,-316.5 -196.32,-643.1 -239.01,-974.1 -42.9,-330.8 -44.8,-665.8 -2.73,-995.6 45.42,-328.36 132.45,-651.81 298.09,-922.33 84.3,-133.14 185.23,-254.27 308.26,-347.23 60.38,-47.69 126.07,-88.47 195.34,-122.57 68.88,-34.71 141.41,-63.11 216.75,-84.15 150.22,-43.6 309.97,-61.06 470.97,-59.09 80.5,0.84 161.4,6.53 242.2,16.86 40.4,5.24 80.8,11.17 120.9,18.31 40.5,7.29 83,15.03 123.2,23.61 81.1,17.01 161.3,35.32 229.2,60.76 34.3,12.61 65.6,27.19 100.7,45.87 l 114.6,61.82 c 41.5,21.27 79.4,40.86 125.3,60.68 23,10.33 45.9,19.6 68.8,27.49 22.9,8.82 45.7,15.88 68.5,22.87 91,27.72 181.1,46.55 270.4,61.74 178.3,29.85 353.9,45.41 527.4,59.16 l 129.6,9.95 c 10.3,0.84 22.4,1.44 31.3,2.58 l 21.9,3.73 22,2.96 21.9,6.98 c 58.6,17.47 117.2,52.03 171.5,97.97 53.8,47.39 102.7,104.66 147.2,166.86 43.5,63.41 82,131.84 115.7,203.31 66.5,143.76 112.4,299.37 140.3,457.34 25.7,158.42 32.3,319.82 16.2,477.22 -16.8,157.2 -58.9,309.6 -126.5,446.5 -68.9,136.3 -166.9,253.7 -286.5,344.7 -30.2,22.6 -62.7,42.1 -94.1,62.9 l -101.8,53.1 -105.6,40.8 c -36.4,8.6 -72,21 -108.7,27.4 -146.6,27 -298.8,20 -448.2,-22.1 -75,-19.1 -148.8,-48.6 -223.1,-80.7 -37.3,-16.2 -74.4,-34.1 -113.5,-52.7 l -61.1,-28.9 c -11.6,-5.1 -19.7,-9.6 -34.1,-15.1 l -40.2,-15.5 c -53.7,-20.7 -112.5,-4.3 -148.2,36.8 l -1.5,2 -0.4,0.4 c -8.5,9.6 -16.7,20 -23.9,30.5 l -12.6,21.4 c -7.4,13.9 -11.8,24.1 -16.8,35.5 -8.7,20.7 -14.9,39.8 -20.3,58.1 -11,36.5 -18.2,70.5 -24.4,104.8 -12.5,67.8 -18.6,134.4 -22.5,200.7 -3.3,66.3 -2.7,132.1 -0.4,197.8 3.7,65.7 9.7,131 18,196.1 19.8,129.6 45,259 90.3,382.8 45,123.4 106.5,242.3 192,344.1 26.3,31.2 72.9,35.3 104.1,9 20.7,-17.4 29.4,-43.7 25.3,-68.7 l -0.3,-2.1 c -20.5,-121.9 -44,-236.3 -63.3,-351.8 -19.1,-115.2 -38.1,-230 -45.8,-346.3 -4.9,-57.9 -7.7,-116 -8.5,-174 -2,-58 -1.3,-115.9 0.8,-173.2 1.6,-57.3 6.2,-114.2 11.8,-168.8 3.5,-26.8 6.8,-53.8 11.2,-77.2 l 6.5,-30.7 c 0.7,-2.9 1.7,-7.2 1.3,-7.3 -0.5,0.5 -1,0.9 -1.8,1 -2.5,4.4 -6.1,8.5 -10.1,11.9 l -0.1,0.1 -149.8,38.8 c 13.2,5.7 25.9,9.8 45.2,19.2 l 56,26.6 c 38.9,18.5 79.6,38.2 121.5,56.5 84,36.3 171.2,71.1 263.7,95 182.9,51.7 384.6,63.4 577.5,26.9 48.2,-8.6 94.9,-24 142.2,-36.1 45.8,-16.4 90.9,-34.7 136.1,-52.5 l 128,-66.7 c 40.7,-26.2 82.2,-51.7 121.2,-80.9 155.5,-117.5 283.7,-272.5 370.3,-444.7 85.6,-172.8 135.6,-358.9 155.6,-544.8 19,-186.3 11.1,-372.9 -18.7,-555.36 -31.9,-182.04 -84.3,-360.59 -162.9,-530.48 -39.9,-84.76 -86.1,-167.31 -140.5,-246.37 -55.8,-78.23 -119.2,-153.26 -195.4,-220.09 -77.2,-65.55 -169,-122.96 -276,-155.16 -13.4,-3.95 -26.6,-8.21 -40.1,-11.7 l -42,-6.83 -42.2,-6.08 -33.1,-2.73 -128.7,-9.95 c -170.9,-13.44 -339.7,-28.71 -502.2,-55.98 -80.9,-13.67 -160.2,-30.6 -234.3,-53.23 -18.6,-5.7 -37.1,-11.39 -54.4,-18.15 -18,-6.15 -35.1,-13.14 -51.5,-20.51 -16,-6.38 -35.2,-16.17 -53.4,-24.83 l -54.4,-27.5 -113.4,-61.21 c -41,-21.87 -88.1,-44.05 -134.9,-61.14 -94.1,-34.78 -183.3,-54.14 -271,-72.75 -347.8,-75.04 -729.5,-99.57 -1094.23,5.54 -90.98,25.44 -180.15,60.15 -265.43,103.06 -85.6,42.3 -167.47,93.11 -242.65,152.35 -152.96,115.97 -276.75,264.67 -376.54,423.02 -98.35,159.71 -170.12,331.35 -224.04,505.34 -53.77,174.38 -89.92,351.71 -114.23,529.14 -45.64,355.9 -43.44,716.8 2.58,1070.7 45.65,354.1 133.98,700.9 253.59,1034.7 121.74,333.1 273.79,653.1 446.64,959.9 346.54,613.8 774.04,1175 1244.81,1691.8 235.8,258.4 483,505.7 739.7,742.9 128.2,118.8 259,234.6 392.7,347.4 134.3,113.3 267.8,222.5 412.4,330.3 63.4,47.2 153,34.1 200.2,-29.3 47.2,-63.3 34.1,-152.9 -29.3,-200.1 v 0 l -2.4,-1.8" /></g><g
         transform="scale(1.05295)"
         id="g378"><path
           id="path380"
           style="fill:#cdc6d0;fill-opacity:1;fill-rule:nonzero;stroke:none"
           d="m 12777.8,10726.7 c -190.8,0 -379.8,22.4 -558,74.1 -94.3,26.3 -185,61.8 -271.1,105.2 -86.6,42.7 -168.8,93.7 -244.3,153.3 -153.8,116.2 -280,267.7 -385.4,434.2 -207.2,338.3 -316,742.8 -372.8,1153.3 -6,46.7 -11.2,93.4 -15.8,140.2 l 32.6,31.4 c 357.2,-1167.6 1173.9,-1449.1 1877.7,-1449.1 189.2,0 370,20.3 531.7,49.3 471.6,84.2 1174.2,407.5 1938.4,407.5 40.3,0 81,-1 121.6,-2.9 13.8,-0.6 27.4,-0.9 40.8,-0.9 409.3,0 660.9,293.9 826.8,664.4 -34.9,-196 -92,-389 -174.6,-567.4 -42.1,-89.4 -90.3,-175 -144.6,-254.3 -55.6,-77.8 -116.9,-149.4 -184.1,-208.6 -68,-57.5 -141.3,-100.7 -214.5,-122.5 l -27.3,-8.8 -27.6,-3.7 -27.3,-4.6 c -11.2,-1.5 -26.3,-2.2 -39.3,-3.3 l -162,-12.4 c -216.9,-17.2 -436.5,-36.7 -659.6,-74 -111.5,-19 -224.2,-42.5 -338.1,-77.2 -28.4,-8.7 -56.9,-17.6 -85.6,-28.6 -28.6,-9.9 -57.3,-21.4 -86.1,-34.4 -57.3,-24.7 -104.7,-49.3 -156.6,-75.8 l -143.3,-77.4 c -44,-23.3 -83.1,-41.6 -126,-57.3 -84.9,-31.8 -185.1,-54.7 -286.5,-76 -50.4,-10.7 -103.5,-20.4 -154.1,-29.5 -50.2,-9 -100.6,-16.4 -151.2,-22.9 -101,-12.9 -202.3,-20.1 -302.9,-21.1 -10.4,-0.1 -20.6,-0.2 -30.9,-0.2" /></g><g
         transform="scale(1.07193)"
         id="g382"><path
           id="path384"
           style="fill:#371a45;fill-opacity:1;fill-rule:nonzero;stroke:none"
           d="m 12551.9,10360.7 c -801.5,0 -1752,375.1 -1974.6,2045.4 l 159.6,154.5 c 4.4,-46 9.6,-91.9 15.5,-137.7 55.7,-403.3 162.7,-800.6 366.1,-1132.9 103.6,-163.6 227.5,-312.3 378.7,-426.5 74.1,-58.6 154.8,-108.7 239.9,-150.6 84.6,-42.6 173.7,-77.5 266.3,-103.4 175.1,-50.7 360.7,-72.7 548.1,-72.7 10.1,0 20.2,0.1 30.4,0.2 98.8,1 198.3,8 297.5,20.7 49.7,6.4 99.2,13.7 148.6,22.4 49.7,9 101.8,18.5 151.3,29.1 99.6,20.9 198,43.3 281.4,74.6 42.2,15.5 80.6,33.4 123.8,56.3 l 140.8,76 c 50.9,26.1 97.5,50.2 153.8,74.5 28.3,12.7 56.5,24.1 84.6,33.8 28.1,10.8 56.1,19.5 84.1,28.1 111.9,34 222.5,57.1 332.1,75.8 219.2,36.7 434.8,55.8 647.9,72.7 l 159.2,12.2 c 12.7,1 27.5,1.8 38.5,3.2 l 26.9,4.5 27,3.7 26.9,8.6 c 71.9,21.4 143.9,63.9 210.6,120.3 66.1,58.2 126.3,128.6 180.9,205 53.4,77.9 100.7,161.9 142.1,249.7 81.1,175.3 137.2,364.9 171.5,557.4 85.1,190.1 147.3,400.8 196.6,601.5 92,-892.2 -385.6,-1881.7 -971.5,-1926.4 -473.3,-35.9 -990,-71 -1311.2,-221.7 -332.2,-155.6 -294,-207.7 -849.3,-308.9 -159.2,-29.1 -337.6,-49.4 -524.1,-49.4" /></g><path
         id="path386"
         style="fill:#371a45;fill-opacity:1;fill-rule:nonzero;stroke:none"
         d="m 13951.1,13108.4 c -12.6,97.1 -15,183.7 -14.3,275.2 1.9,90.3 8.4,180.4 19.9,270.1 22.8,179.4 65.2,357.5 129.6,528.8 63.6,171.3 144.2,338.7 248.3,491.5 48.3,79.3 107.5,150.3 165.2,223.1 27.7,37.6 61.2,69.5 92.7,103.5 l 96.2,100.9 c 71.9,75.4 191.4,78.2 266.8,6.3 75.5,-71.9 78.3,-191.4 6.4,-266.8 -3.9,-4 -7.8,-7.8 -11.9,-11.4 l -12.1,-10.6 -89.4,-78.5 c -29.6,-26.6 -61.5,-51.1 -87.5,-81.1 -54.6,-57.7 -111.8,-113.8 -159,-178.2 -102,-123 -184.9,-261.6 -254.8,-407.1 -70.6,-145.4 -123.2,-300.7 -158.5,-460.5 -9.6,-39.8 -15.5,-80.3 -23.6,-120.6 -6.4,-40.4 -11.8,-81.1 -16.7,-121.9 -8.5,-80.3 -12.9,-166.2 -10.2,-240.6 l 0.2,-6.6 c 1.8,-51.9 -38.7,-95.5 -90.7,-97.4 -48.8,-1.7 -90.3,34.5 -96.6,81.9" /><path
         id="path388"
         style="fill:#371a45;fill-opacity:1;fill-rule:nonzero;stroke:none"
         d="m 11361.1,12958.8 c -4.1,0 -8.1,0.2 -12.2,0.4 -103.6,6.6 -182.4,95.7 -176,199.4 3,48.6 84,1200 997.9,1993.7 634.1,550.6 1502.8,786.5 2581.8,701.2 103.7,-8.2 181.1,-98.9 172.9,-202.6 -8.1,-103.7 -98.7,-181.2 -202.6,-172.9 -972.7,76.9 -1747,-127.4 -2301.7,-607.2 -794.9,-687.7 -871.7,-1725.4 -872.3,-1735.8 -6.6,-99.6 -89.4,-176.2 -187.8,-176.2" /><g
         transform="scale(1.66882)"
         id="g390"><path
           id="path392"
           style="fill:#ffffff;fill-opacity:1;fill-rule:nonzero;stroke:none"
           d="m 7285.56,13952.1 101.81,-1.5 c 37.09,-0.6 67.65,29 68.19,66.1 l 32.72,2207.9 c 0.53,37 -29.07,67.5 -66.16,68.1 l -101.87,1.5 c -389.19,5.8 -709.36,-305 -715.11,-694.2 l -13.85,-932.8 c -5.75,-389.2 305.07,-709.3 694.27,-715.1" /></g><g
         transform="scale(1.6709)"
         id="g394"><path
           id="path396"
           style="fill:#371a45;fill-opacity:1;fill-rule:nonzero;stroke:none"
           d="m 7300.57,16253.8 c -372.25,0 -677.84,-300 -683.4,-673.5 l -13.83,-931.6 c -5.56,-376.9 296.55,-688.1 673.48,-693.7 l 101.68,-1.5 c 12.92,-0.3 24.35,4.5 33.33,13.2 8.98,8.7 14.01,20.4 14.19,32.9 l 32.73,2205.1 c 0.36,25.8 -20.34,47.2 -46.14,47.5 l -101.74,1.5 c -3.41,0.1 -6.82,0.1 -10.3,0.1 m 78.65,-2340.8 h -1.32 l -101.74,1.5 c -399.19,5.9 -719.2,335.6 -713.27,734.8 l 13.82,931.6 c 5.87,399.3 334.67,719.1 734.76,713.4 l 101.74,-1.5 c 48.12,-0.8 86.72,-40.6 86.06,-88.7 L 7466.53,13999 c -0.36,-23.3 -9.75,-45.1 -26.51,-61.3 -16.4,-16 -37.94,-24.7 -60.8,-24.7" /></g><g
         transform="scale(1.52507)"
         id="g398"><path
           id="path400"
           style="fill:#cdc6d0;fill-opacity:1;fill-rule:nonzero;stroke:none"
           d="m 7974.47,15390.7 h -0.33 -0.07 c -357.03,5.3 -643.25,300.1 -638,657.2 l 3.74,252.1 c 125.89,-174.6 314.8,-300.9 533.94,-345.2 6.1,-48.4 13.11,-96.4 20.85,-144.2 18.69,-141.9 45.38,-281.9 79.87,-419.9" /></g><g
         transform="scale(1.68054)"
         id="g402"><path
           id="path404"
           style="fill:#371a45;fill-opacity:1;fill-rule:nonzero;stroke:none"
           d="m 7258.74,16068.6 c -320.08,0 -582.85,-258 -587.61,-579.1 l -13.75,-926.2 c -4.76,-324.1 254.98,-591.7 578.98,-596.4 h 0.07 l 55.75,-0.9 31.18,2101.7 -55.76,0.8 c -2.97,0.1 -5.95,0.1 -8.86,0.1 m 78.78,-2103.3 h 0.3 -0.3 m -0.59,-224.1 c -0.9,0 -1.85,0 -2.74,0 l -101.16,1.5 c -447.59,6.7 -806.41,376.2 -799.74,823.9 l 13.75,926.3 c 6.6,447.6 375.83,807.1 823.84,799.8 l 101.16,-1.5 c 98.54,-1.5 177.56,-82.8 176.13,-181.4 l -32.55,-2192.5 c -0.71,-47.7 -19.93,-92.3 -54.21,-125.6 -33.62,-32.6 -77.71,-50.5 -124.48,-50.5" /></g><g
         transform="scale(1.65718)"
         id="g406"><path
           id="path408"
           style="fill:#ffffff;fill-opacity:1;fill-rule:nonzero;stroke:none"
           d="m 14838.7,16297.9 -102.6,1.5 c -37.4,0.6 -68.1,-29.3 -68.6,-66.6 l -33,-2223.3 c -0.6,-37.4 29.3,-68.1 66.6,-68.7 l 102.6,-1.5 c 391.9,-5.8 714.3,307.2 720.2,699.1 l 13.8,939.3 c 5.9,392 -307.1,714.4 -699,720.2" /></g><g
         transform="scale(1.65923)"
         id="g410"><path
           id="path412"
           style="fill:#371a45;fill-opacity:1;fill-rule:nonzero;stroke:none"
           d="m 14716.9,16258.9 c -12.3,0 -24,-4.7 -32.8,-13.3 -9.1,-8.8 -14.2,-20.6 -14.4,-33.2 l -32.9,-2220.5 c -0.4,-26 20.5,-47.5 46.5,-47.9 l 102.4,-1.5 c 379.1,-5.2 693,298.6 698.6,678.2 l 13.9,938.1 c 5.6,379.6 -298.6,692.9 -678.2,698.6 l -102.4,1.5 h -0.7 m 79.2,-2357.3 c -3.7,0 -7.3,0.1 -11,0.1 l -102.4,1.5 c -48.5,0.8 -87.4,40.8 -86.7,89.3 l 33,2220.5 c 0.3,23.5 9.8,45.5 26.6,61.9 16.9,16.3 38.7,25.1 62.6,24.8 l 102.4,-1.5 v 0 c 402.1,-6 724.4,-337.9 718.4,-740 l -13.9,-938.2 c -5.9,-398.3 -331.9,-718.4 -729,-718.4" /></g><g
         transform="scale(1.56707)"
         id="g414"><path
           id="path416"
           style="fill:#cdc6d0;fill-opacity:1;fill-rule:nonzero;stroke:none"
           d="m 15666.2,14861 c -3.1,0 -6.3,0.1 -9.4,0.1 l -12,0.2 c 56.6,186.3 100.1,377.9 129.6,573.8 209.1,29.7 394.2,135.7 525.6,289.1 l -3.6,-242.2 c -5.1,-344.4 -286.2,-621 -630.2,-621" /></g><g
         transform="scale(1.66875)"
         id="g418"><path
           id="path420"
           style="fill:#371a45;fill-opacity:1;fill-rule:nonzero;stroke:none"
           d="m 14646.6,13956.4 56.2,-0.9 c 327.1,-4.7 595.7,256.8 600.6,583.1 l 13.8,932.9 c 4.9,326.3 -256.7,595.7 -583,600.6 l -56.2,0.8 -31.4,-2116.5 m 65.1,-226.7 c -4.1,0 -8.2,0.1 -12.3,0.2 l -101.8,1.5 c -99.3,1.5 -178.8,83.4 -177.4,182.6 l 32.8,2208 c 0.6,48 20.1,93 54.6,126.5 34.4,33.5 79.9,51.5 128,50.8 l 101.9,-1.5 v 0 c 450.8,-6.7 812.1,-378.9 805.5,-829.7 l -13.9,-932.8 c -6.6,-446.7 -372.2,-805.6 -817.4,-805.6" /></g><g
         transform="scale(1.38877)"
         id="g422"><path
           id="path424"
           style="fill:#cdc6d0;fill-opacity:1;fill-rule:nonzero;stroke:none"
           d="m 13191.1,12902.9 c -876.1,0 -1577.6,276.9 -2113.4,619.5 l 87.3,451.7 c 623.5,-312.9 1325,-488.2 2062.3,-488.2 86.7,0 174.4,2.4 262.2,7.4 1056.1,59.4 2010.4,470.8 2755.2,1113.8 18.3,-76.9 36.8,-157.6 55.3,-241.6 -443.6,-184.1 -1156.1,-1338.9 -2818,-1452.6 -99,-6.8 -196.1,-10 -290.9,-10" /></g><g
         transform="scale(1.2512)"
         id="g426"><path
           id="path428"
           style="fill:#cdc6d0;fill-opacity:1;fill-rule:nonzero;stroke:none"
           d="m 11246.6,15909.4 c -120,134 -214.5,252.6 -284.3,343.2 92.2,17.8 185.2,33.5 278.8,47.4 69.2,-62.8 140.2,-123.8 212.8,-182.8 -69.8,-68.5 -139,-137.8 -207.3,-207.8" /></g><g
         transform="scale(1.25836)"
         id="g430"><path
           id="path432"
           style="fill:#371a45;fill-opacity:1;fill-rule:nonzero;stroke:none"
           d="m 10899.9,16160.1 c -43.6,56.5 -77.3,102.2 -101.6,133.7 l 279,6.2 c 32.9,-31.3 66.2,-62.4 99.8,-92.8 -93.1,-13.8 -185.6,-29.4 -277.2,-47.1" /></g><g
         transform="scale(1.22298)"
         id="g434"><path
           id="path436"
           style="fill:#cdc6d0;fill-opacity:1;fill-rule:nonzero;stroke:none"
           d="m 12579.3,15355.5 c -348.3,222.8 -634.9,470.2 -861.5,696.9 81.4,83.7 164,166.2 247.6,247.6 225.4,-162.1 463.7,-306.5 713.1,-431.7 l -99.2,-512.8" /></g><g
         transform="scale(1.23717)"
         id="g438"><path
           id="path440"
           style="fill:#371a45;fill-opacity:1;fill-rule:nonzero;stroke:none"
           d="m 11583.5,15868.4 c -76.8,76.8 -146.6,151.2 -209.4,221.4 69.1,70.9 139.1,140.9 209.7,210.2 79.6,-64.7 161.1,-127 244.4,-186.9 -82.6,-80.5 -164.3,-162 -244.7,-244.7" /></g><g
         transform="scale(1.93609)"
         id="g442"><path
           id="path444"
           style="fill:#ffffff;fill-opacity:1;fill-rule:nonzero;stroke:none"
           d="m 6277.87,12807.5 c 99.74,-1774 1618.73,-3131.28 3392.77,-3031.6 1774.06,99.74 3131.36,1618.7 3031.56,3392.8 -99.7,1774 -1618.7,3131.3 -3392.75,3031.6 -1773.99,-99.8 -3131.32,-1618.8 -3031.58,-3392.8" /></g><g
         transform="scale(1.93208)"
         id="g446"><path
           id="path448"
           style="fill:#371a45;fill-opacity:1;fill-rule:nonzero;stroke:none"
           d="m 6308.4,12835.1 c 99.22,-1765.2 1615.88,-3120.83 3381.34,-3021.41 1765.26,99.28 3120.66,1616.11 3021.36,3381.31 -48.1,855.1 -426.3,1640.3 -1064.9,2211 -638.7,570.7 -1461.5,858.5 -2316.39,810.4 C 7564.56,16117.2 6209.18,14600.3 6308.4,12835.1 M 9507.75,9773.58 c -1704.9,0 -3137.45,1336.62 -3234.34,3059.52 -100.31,1784.5 1269.88,3318 3054.38,3418.3 864.51,48.6 1696.11,-242.4 2341.71,-819.2 645.6,-576.9 1028,-1370.7 1076.6,-2235.2 100.3,-1784.5 -1269.9,-3317.93 -3054.4,-3418.24 -61.54,-3.47 -123.08,-5.18 -183.95,-5.18" /></g><g
         transform="scale(1.36027)"
         id="g450"><path
           id="path452"
           style="fill:#cdc6d0;fill-opacity:1;fill-rule:nonzero;stroke:none"
           d="m 13504.2,14045.3 c -908.8,0.1 -1761.3,277.4 -2471.3,755.4 655.4,-275.3 1504.4,-490.8 2464.5,-490.8 67.8,0 136.6,1.1 205.5,3.3 989,31.7 1905.8,349 2597.1,722.3 -699.6,-567.7 -1577.1,-928.7 -2543.5,-983.1 -84.6,-4.7 -168.5,-7.1 -252.3,-7.1" /></g><g
         transform="scale(1.94168)"
         id="g454"><path
           id="path456"
           style="fill:#371a45;fill-opacity:1;fill-rule:nonzero;stroke:none"
           d="m 6356.66,12776 c 96.26,-1712.6 1567.76,-3027.74 3280.66,-2931.38 1712.68,96.31 3027.78,1567.98 2931.48,3280.68 -46.7,829.7 -413.6,1591.5 -1033.2,2145.2 -619.6,553.6 -1417.8,833 -2247.51,786.2 C 7575.4,15960.5 6260.35,14488.7 6356.66,12776 M 9460.67,9645.62 c -1738.34,0 -3198.98,1362.78 -3297.71,3119.58 -102.28,1819.5 1294.76,3383 3114.26,3485.2 881.38,49.6 1729.38,-247.1 2387.58,-835.2 658.3,-588.2 1048.1,-1397.6 1097.7,-2279 102.3,-1819.5 -1294.8,-3383 -3114.26,-3485.28 -62.78,-3.55 -125.51,-5.3 -187.57,-5.3" /></g><g
         transform="scale(1.81541)"
         id="g458"><path
           id="path460"
           style="fill:#371a45;fill-opacity:1;fill-rule:nonzero;stroke:none"
           d="m 6711.12,13571.6 c 27.54,-670.9 270.9,-1284.8 664.48,-1784.8 295.09,-374.9 1470.69,-1003.9 2888.5,-958.4 1314.7,42.2 2481.6,792 2745,1189.8 351.2,530.6 543.4,1162.4 515.8,1833.2 -72.9,1775.3 -1628.4,2448.6 -3510,2371.3 -1881.67,-77.3 -3376.71,-875.9 -3303.78,-2651.1" /></g><g
         transform="scale(1.82296)"
         id="g462"><path
           id="path464"
           style="fill:#371a45;fill-opacity:1;fill-rule:nonzero;stroke:none"
           d="m 6786.53,13519.5 c 25.67,-624.7 246.85,-1218.6 639.68,-1717.7 260.56,-331 1381.37,-960.3 2792.09,-915 1272.4,40.8 2402,763 2650.6,1138.6 350.6,529.6 522.4,1139.7 496.8,1764.3 -32.9,798.6 -376.8,1400.3 -1022.3,1788.3 -582.2,349.9 -1400.4,513.9 -2365.8,474.2 -989.1,-40.6 -3279.93,-368.7 -3191.07,-2532.7 m 3285.07,-2841.7 c -1427.65,0 -2526.25,638.6 -2807.77,996.2 -419.86,533.4 -656.35,1168.7 -683.77,1837 -35.82,872.4 286.51,1559.6 958,2042.4 584.43,420 1425.04,663.9 2431.04,705.3 1006.2,41.3 1863.8,-132.8 2480.7,-503.6 708.9,-426 1086.5,-1084.4 1122.3,-1956.9 27.5,-668.3 -156.1,-1320.8 -530.9,-1886.9 -276.8,-418.3 -1454.8,-1187.3 -2816.3,-1231 -51.4,-1.6 -102.7,-2.5 -153.3,-2.5" /></g><g
         transform="scale(1.61031)"
         id="g466"><path
           id="path468"
           style="fill:#9b8da2;fill-opacity:1;fill-rule:nonzero;stroke:none"
           d="m 8872.5,14946.3 c -166.05,0 -330.12,111.6 -440.66,289.1 -54.28,158.7 -99.67,321.4 -135.63,487.5 1.87,283.6 141.16,519.9 357.2,568.3 26.58,5.9 53.35,8.8 80.05,8.8 241.69,0 479.16,-236.2 553.55,-568.4 82.6,-368.9 -67.13,-716.5 -334.46,-776.4 -26.58,-5.9 -53.35,-8.9 -80.05,-8.9" /></g><g
         transform="scale(1.44261)"
         id="g470"><path
           id="path472"
           style="fill:#9b8da2;fill-opacity:1;fill-rule:nonzero;stroke:none"
           d="m 10597,15609.9 c -129.3,0 -257.7,93.1 -312.6,239.3 -68.1,181.4 2.9,375.7 158.6,434.1 30.1,11.3 61.2,16.7 92.3,16.7 129.3,0 257.8,-93.2 312.6,-239.4 68.1,-181.3 -2.9,-375.7 -158.6,-434 -30.1,-11.4 -61.3,-16.7 -92.3,-16.7" /></g><g
         transform="scale(1.67978)"
         id="g474"><path
           id="path476"
           style="fill:#1c1a31;fill-opacity:1;fill-rule:nonzero;stroke:none"
           d="m 10932.4,11812.3 c -1456.63,0 -2600.11,648.7 -2873.19,995.5 -426.3,541.6 -666.33,1186.2 -694.19,1864.1 -29.12,708.8 176.98,1236.1 508.57,1628.1 -14.88,-163.2 -19.17,-333.4 -11.78,-510.6 10.06,-244.9 41.01,-484.3 91.32,-716.7 -0.42,-64.5 6.61,-131.7 21.79,-199.5 22.32,-99.7 59.95,-190.3 108.23,-267.9 157.28,-460 392.31,-885.7 690.03,-1263.9 372.96,-473.9 1771.12,-1243.3 3510.12,-1312.5 -368.6,-118.8 -774.2,-200.6 -1194,-214.1 -52.7,-1.7 -105,-2.5 -156.9,-2.5" /></g><g
         transform="scale(1.69901)"
         id="g478"><path
           id="path480"
           style="fill:#1c1a31;fill-opacity:1;fill-rule:nonzero;stroke:none"
           d="m 10811.8,11567.7 c -1444.71,0 -2626.52,639.9 -2930.99,1026.6 -420.3,534.3 -680.45,1190.1 -709.88,1907.1 -31.19,761.8 207.71,1355.6 635.25,1798.6 -8.77,-60.5 -16.07,-122 -21.72,-184.5 -327.83,-387.6 -531.6,-908.9 -502.82,-1609.7 27.55,-670.2 264.86,-1307.5 686.34,-1843 269.98,-342.9 1400.52,-984.2 2840.62,-984.3 51.4,0 103,0.9 155.1,2.6 415.1,13.3 816.1,94.2 1180.5,211.6 82.1,-3.2 164.9,-4.9 248.5,-4.9 21.9,0 44,0.1 66.1,0.3 -444.6,-174.1 -956.5,-301 -1491.4,-318 -52.3,-1.6 -104,-2.4 -155.6,-2.4" /></g><g
         transform="scale(1.5533)"
         id="g482"><path
           id="path484"
           style="fill:#3b3d4d;fill-opacity:1;fill-rule:nonzero;stroke:none"
           d="m 8741.32,15794.6 c -52.21,83.8 -92.9,181.8 -117.04,289.7 -16.42,73.3 -24.01,145.9 -23.56,215.7 37.27,-172.2 84.33,-340.9 140.6,-505.4" /></g><g
         transform="scale(1.86475)"
         id="g486"><path
           id="path488"
           style="fill:#371a45;fill-opacity:1;fill-rule:nonzero;stroke:none"
           d="m 6756.68,14639 c -27.4,0 -54.7,11.1 -74.59,32.9 -33.04,36.3 -34.91,90 -6.76,128 564.1,859.7 1684.36,1385.4 3074.74,1442.6 1400.73,57.5 2561.43,-391.2 3185.53,-1231.1 32.5,-40.7 28.8,-100.3 -9.8,-136.6 -40.6,-38.1 -104.5,-36.2 -142.7,4.4 -0.7,0.8 -1.8,2 -2.6,2.8 -1.9,2.2 -3.7,4.4 -5.4,6.7 -583.2,786.8 -1682.5,1206.7 -3016.72,1151.9 -1326.72,-54.5 -2389.82,-548.6 -2916.81,-1355.7 -4.66,-7.1 -10.24,-13.6 -16.51,-19.4 -19.47,-17.7 -43.92,-26.5 -68.38,-26.5" /></g><g
         transform="scale(1.7556)"
         id="g490"><path
           id="path492"
           style="fill:#9b8da2;fill-opacity:1;fill-rule:nonzero;stroke:none"
           d="m 13239.3,13198.7 c 0,0 -147.9,603.4 -655.9,1531.8 -658.7,1203.9 -2228.7,1516.4 -2228.7,1516.4 -11.5,28 120.1,53.1 337.4,53.1 471.8,0 1347.2,-118.7 2035.8,-585.4 1005.6,-681.6 511.4,-2515.9 511.4,-2515.9" /></g><g
         transform="scale(2.16898)"
         id="g494"><path
           id="path496"
           style="fill:#fcef03;fill-opacity:1;fill-rule:nonzero;stroke:none"
           d="m 11147.7,13623.4 v -300.7 H 5794.44 v 300.7 c 0,302 49.93,592.2 142.19,863.2 359.11,1054.6 1358.19,1813.4 2534.42,1813.4 739.01,0 1408.36,-299.6 1892.65,-783.9 286.6,-286.6 508.3,-637.7 641.8,-1029.5 92.3,-271 142.2,-561.2 142.2,-863.2" /></g><g
         transform="scale(2.07818)"
         id="g498"><path
           id="path500"
           style="fill:#ffcc00;fill-opacity:1;fill-rule:nonzero;stroke:none"
           d="M 8838.65,16222.5 V 13904.8 H 7214.54 c -260.81,338.5 -464.54,726.2 30.12,667.3 959.83,-114.2 935.1,1257.1 1215.63,1565.2 148.16,162.7 378.36,85.2 378.36,85.2" /></g><g
         transform="scale(2.07818)"
         id="g502"><path
           id="path504"
           style="fill:#ffcc00;fill-opacity:1;fill-rule:nonzero;stroke:none"
           d="M 10462.9,13904.8 H 8838.65 v 2317.7 c 0,0 230.25,77.5 378.41,-85.2 280.53,-308.1 255.85,-1679.4 1215.64,-1565.2 494.7,58.9 290.9,-328.8 30.2,-667.3" /></g><g
         transform="scale(2.16898)"
         id="g506"><path
           id="path508"
           style="fill:#ffffff;fill-opacity:1;fill-rule:nonzero;stroke:none"
           d="m 11147.7,13623.4 v -234.9 c 0,302 -49.9,592.2 -142.2,863.2 -133.5,391.8 -355.2,742.9 -641.8,1029.5 -484.29,484.3 -1153.64,783.9 -1892.65,783.9 -1176.23,0 -2175.31,-758.8 -2534.42,-1813.4 -92.26,-271 -142.19,-561.2 -142.19,-863.2 v 234.9 c 0,302 49.93,592.2 142.19,863.2 359.11,1054.6 1358.19,1813.4 2534.42,1813.4 739.01,0 1408.36,-299.6 1892.65,-783.9 286.6,-286.6 508.3,-637.7 641.8,-1029.5 92.3,-271 142.2,-561.2 142.2,-863.2" /></g><g
         transform="scale(1.92767)"
         id="g510"><path
           id="path512"
           style="fill:#ffcc00;fill-opacity:1;fill-rule:nonzero;stroke:none"
           d="m 12543.2,15328.8 v -338.4 H 6519.79 v 338.4 c 0,339.7 56.18,666.3 159.99,971.2 275.04,-300 1002.29,-775.3 2851.68,-775.3 1849.44,0 2576.94,475.3 2851.64,775.3 103.9,-304.9 160.1,-631.5 160.1,-971.2" /></g><g
         transform="scale(2.18052)"
         id="g514"><path
           id="path516"
           style="fill:#371a45;fill-opacity:1;fill-rule:nonzero;stroke:none"
           d="m 5850.26,13338.6 h 5152.04 v 212.6 c 0,1420.4 -1155.61,2576 -2576.05,2576 -1420.4,0 -2575.99,-1155.6 -2575.99,-2576 z m 5238.44,-172.8 H 5763.85 c -47.69,0 -86.35,38.7 -86.35,86.4 v 299 c 0,1515.7 1233.1,2748.8 2748.75,2748.8 1515.69,0 2748.75,-1233.1 2748.75,-2748.8 v -299 c 0,-47.7 -38.6,-86.4 -86.3,-86.4" /></g><g
         transform="scale(2.19963)"
         id="g518"><path
           id="path520"
           style="fill:#fcef03;fill-opacity:1;fill-rule:nonzero;stroke:none"
           d="m 9532.13,14844.2 107.74,791.2 c 29.42,216 -112.47,418.3 -325.59,464.1 l -873.42,188 c -57.88,12.5 -117.75,12.5 -175.62,0 l -873.42,-188 c -213.13,-45.8 -355.01,-248.1 -325.6,-464.1 l 107.7,-791.2" /></g><g
         transform="scale(2.19963)"
         id="g522"><path
           id="path524"
           style="fill:#ffffff;fill-opacity:1;fill-rule:nonzero;stroke:none"
           d="m 9639.82,15635.5 -5.55,-41.5 c -33.82,155.6 -155.84,283.8 -320.05,319.2 l -873.42,187.9 c -57.79,12.7 -117.75,12.7 -175.53,0 l -873.42,-187.9 c -164.21,-35.4 -286.23,-163.6 -320.06,-319.4 l -5.59,41.7 c -29.32,216 112.43,418.3 325.65,464.1 l 873.42,188 c 57.78,12.4 117.74,12.4 175.53,0 l 873.42,-188 c 213.22,-45.8 355.15,-248.1 325.6,-464.1" /></g><g
         transform="scale(2.21228)"
         id="g526"><path
           id="path528"
           style="fill:#371a45;fill-opacity:1;fill-rule:nonzero;stroke:none"
           d="m 9435.47,14765.1 c -4.25,101.1 0.23,201 7.05,300.5 6.83,99.6 18.13,198.6 30.97,297.3 l 18.89,148.2 4.7,37 1.18,9.3 0.54,7.4 1.13,14.8 c 1.31,9.8 0.41,19.6 0.36,29.4 0.32,9.8 -1.08,19.6 -2.21,29.3 -9.23,77.7 -48.01,151.3 -106.23,203 -28.97,26 -62.56,46.5 -98.68,60.4 -9.22,2.9 -17.94,7.3 -27.52,9.2 -9.95,2.4 -17.59,4.8 -29.39,7.3 l -73.13,15.1 -292.28,61.7 -292.28,61.9 -146.09,31 -70.11,14.6 c -18.8,3.4 -37.97,5 -57.09,5 -19.12,-0.1 -38.24,-1.6 -57.05,-5 l -70.1,-14.7 -146.14,-30.9 -292.24,-61.9 -292.27,-61.8 -73.14,-15 c -11.8,-2.6 -19.39,-5 -29.38,-7.3 -9.58,-2 -18.27,-6.4 -27.53,-9.3 -36.12,-13.9 -69.66,-34.4 -98.63,-60.3 -58.18,-51.7 -96.96,-125.4 -106.18,-203 -1.18,-9.7 -2.58,-19.5 -2.26,-29.3 0,-9.8 -0.91,-19.6 0.4,-29.4 l 1.13,-14.8 0.5,-7.4 1.18,-9.3 4.74,-37 18.9,-148.2 c 25.76,-197.5 45.25,-395.8 37.92,-597.8 -0.9,-23.8 -20.93,-42.5 -44.75,-41.6 -18.71,0.7 -34.26,13.3 -39.64,30.1 -61.07,192.7 -95.33,389 -123.31,586.2 l -21.38,147.8 -5.34,37 -1.35,9.2 -1.13,11.2 -2.13,22.4 c -1.89,15 -1.35,30.1 -1.4,45.2 -0.45,15.1 1.09,30.1 2.62,45.2 12.25,120.4 69.93,235.2 159.21,317.4 44.48,41.3 96.64,74.4 153.01,97.3 14.28,5.1 28.2,11.6 42.94,15.3 14.15,3.8 30.42,8.5 42.9,11.3 l 72.91,16.4 291.78,64 291.82,63.8 145.91,31.9 36.48,8 c 12.3,2.6 23.28,5.2 39.55,8.3 30.15,5.6 60.8,8.4 91.45,8.5 30.69,-0.2 61.34,-2.9 91.49,-8.5 16.27,-3.1 27.21,-5.7 39.55,-8.4 l 36.48,-7.9 145.91,-31.9 291.83,-63.9 291.78,-64 72.86,-16.3 c 12.48,-2.9 28.75,-7.6 42.9,-11.4 14.74,-3.7 28.66,-10.2 42.94,-15.3 56.37,-22.8 108.53,-56 153.01,-97.2 89.23,-82.2 146.91,-197.1 159.11,-317.4 1.59,-15.1 3.08,-30.1 2.67,-45.2 -0.04,-15.1 0.5,-30.2 -1.4,-45.2 l -2.12,-22.4 -1.14,-11.2 -1.35,-9.2 -5.34,-37 -21.42,-147.8 c -14.01,-98.6 -29.61,-196.9 -49.63,-294.7 -20.07,-97.8 -42.45,-195.2 -73.59,-291.5 -7.32,-22.7 -31.69,-35.1 -54.43,-27.8 -17.67,5.7 -29.15,21.8 -29.92,39.3" /></g><g
         transform="scale(2.22597)"
         id="g530"><path
           id="path532"
           style="fill:#fcef03;fill-opacity:1;fill-rule:nonzero;stroke:none"
           d="m 8906.76,15878.2 -96.9,-2211.7 -30.01,-684.9 H 7728.71 l -29.83,682.2 -97.12,2214.4 c -8.23,188.9 123.13,356.6 309.07,390.3 99.2,18 216.18,31.5 343.31,31.5 127.36,0 244.12,-13.5 343.36,-31.5 186.16,-33.7 317.52,-201.4 309.26,-390.3" /></g><g
         transform="scale(2.22597)"
         id="g534"><path
           id="path536"
           style="fill:#ffffff;fill-opacity:1;fill-rule:nonzero;stroke:none"
           d="m 8906.76,15878.2 -5.48,-125 c -27.09,152.7 -145.78,277.9 -303.78,306.5 -99.24,18 -216,31.5 -343.36,31.5 -127.13,0 -244.11,-13.5 -343.31,-31.5 -157.82,-28.6 -276.5,-153.8 -303.55,-306.5 l -5.52,125 c -8.23,188.9 123.13,356.6 309.07,390.3 99.2,18 216.18,31.5 343.31,31.5 127.36,0 244.12,-13.5 343.36,-31.5 186.16,-33.7 317.52,-201.4 309.26,-390.3" /></g><g
         transform="scale(1.86634)"
         id="g538"><path
           id="path540"
           style="fill:#ffcc00;fill-opacity:1;fill-rule:nonzero;stroke:none"
           d="m 10507.5,16300 -35.8,-817 H 9218 l -35.58,813.7 c 185.17,-107 418.79,-203.6 659.47,-203.6 243.21,0 479.61,98.7 665.61,206.9" /></g><g
         transform="scale(2.23752)"
         id="g542"><path
           id="path544"
           style="fill:#371a45;fill-opacity:1;fill-rule:nonzero;stroke:none"
           d="m 7769.32,12998.8 h 884.6 l 122.72,2801.1 c 6.39,146.3 -96.13,276 -238.48,301.8 -109.8,19.9 -219.66,29.9 -326.56,29.9 -106.86,0 -216.72,-10 -326.53,-29.9 -142.39,-25.8 -244.91,-155.5 -238.47,-301.8 z m 965.18,-168.3 H 7688.74 c -45.05,0 -82.14,35.4 -84.11,80.5 l -126.26,2881.5 c -10.05,230 151.87,434.1 376.72,474.8 119.68,21.7 239.64,32.7 356.51,32.7 116.91,0 236.87,-11 356.55,-32.7 224.8,-40.7 386.77,-244.8 376.71,-474.8 L 8818.57,12911 c -1.97,-45.1 -39.02,-80.5 -84.07,-80.5" /></g><g
         transform="scale(1.81139)"
         id="g546"><path
           id="path548"
           style="fill:#fcef03;fill-opacity:1;fill-rule:nonzero;stroke:none"
           d="m 13798.2,15469.3 c 0,0 -728,-505.2 -3654.8,-505.2 -2926.85,0 -3654.86,505.2 -3654.86,505.2 l 449.88,830.7 c 0,0 1986.59,-176.8 3204.98,-176.8 1218.4,0 3204.9,176.8 3204.9,176.8 l 449.9,-830.7" /></g><g
         transform="scale(1.81139)"
         id="g550"><path
           id="path552"
           style="fill:#ffffff;fill-opacity:1;fill-rule:nonzero;stroke:none"
           d="m 13458,16097.2 c -415.9,-35.6 -2179.4,-180.1 -3314.7,-180.1 -1135.2,0 -2898.76,144.5 -3314.69,180.1 l 109.7,202.8 c 0,0 1986.59,-176.8 3204.99,-176.8 1218.5,0 3205,176.8 3205,176.8 l 109.7,-202.8" /></g><g
         transform="scale(1.75879)"
         id="g554"><path
           id="path556"
           style="fill:#ffcc00;fill-opacity:1;fill-rule:nonzero;stroke:none"
           d="m 14211.1,15931.9 c 0,0 -750,-520.2 -3764.4,-520.2 -3014.41,0 -3764.02,520.2 -3764.02,520.2 l 199.17,368.1 c 380.21,-149.9 1374.81,-424.6 3564.85,-424.6 2189.5,0 3184.4,274.4 3564.9,424.6 h 0.2 l 199.3,-368.1" /></g><g
         transform="scale(1.82332)"
         id="g558"><path
           id="path560"
           style="fill:#371a45;fill-opacity:1;fill-rule:nonzero;stroke:none"
           d="m 6586.72,15410.8 c 257.34,-117.8 1175.39,-441.3 3490.28,-441.3 2313.6,0 3232,323.2 3490.3,441.4 l -364.9,673.7 c -257.5,-22 -1206.3,-100.6 -2112.5,-142.6 -394.5,-18.3 -735.3,-27.6 -1012.9,-27.6 -734.53,0 -1744.06,63.8 -2461.66,117.2 -309.82,23.1 -551.85,43.4 -663.73,53 z M 10077,14762.9 c -2906.56,0 -3659.14,499 -3689.8,520.3 -43.22,30 -56.99,87.8 -31.92,134.1 l 446.93,825.3 c 19.63,36.2 58.79,57.4 99.98,53.7 2.96,-0.2 300.77,-26.7 728.51,-58.6 714.08,-53.3 1718.13,-116.7 2446.3,-116.7 274.5,0 612,9.2 1003.4,27.4 1051.2,48.7 2160.3,146.9 2171.5,147.9 41.2,3.6 80.3,-17.5 100,-53.7 l 446.9,-825.3 c 25.1,-46.3 11.3,-104.1 -32,-134.1 -30.6,-21.3 -783.2,-520.3 -3689.8,-520.3" /></g></g></g></svg>