<?xml version="1.0" standalone="no"?>
<!DOCTYPE svg PUBLIC "-//W3C//DTD SVG 20010904//EN"
 "http://www.w3.org/TR/2001/REC-SVG-20010904/DTD/svg10.dtd">
<svg version="1.0" xmlns="http://www.w3.org/2000/svg"
 width="2560.000000pt" height="2560.000000pt" viewBox="0 0 2560.000000 2560.000000"
 preserveAspectRatio="xMidYMid meet">

<g transform="translate(0.000000,2560.000000) scale(0.100000,-0.100000)"
fill="#fff" stroke="none">
<path d="M12408 25589 c-1474 -46 -2884 -338 -4238 -877 -834 -332 -1572 -721
-2329 -1226 -1576 -1051 -2907 -2460 -3866 -4091 -294 -499 -603 -1127 -807
-1635 -484 -1208 -764 -2374 -873 -3635 -35 -407 -40 -540 -39 -1025 1 -482 9
-709 39 -1090 160 -1995 809 -3952 1871 -5638 1214 -1927 2911 -3484 4919
-4513 1572 -806 3234 -1254 5045 -1361 277 -16 1053 -16 1330 0 1119 66 2168
259 3175 585 656 213 1149 415 1775 728 1027 514 1928 1131 2805 1918 201 181
707 688 883 884 665 743 1196 1483 1674 2337 130 231 406 786 511 1025 567
1295 907 2635 1021 4025 50 608 55 1172 15 1810 -74 1203 -310 2355 -716 3485
-1018 2837 -3052 5232 -5703 6717 -244 137 -785 408 -1030 515 -1078 475
-2172 786 -3350 952 -418 59 -854 94 -1380 111 -333 11 -368 11 -732 -1z m792
-844 c102 -3 253 -10 335 -17 140 -10 159 -14 280 -58 150 -55 192 -65 371
-84 74 -8 157 -24 190 -36 137 -50 203 -61 419 -70 230 -10 259 -15 361 -60
66 -30 370 -120 405 -120 51 0 233 -66 366 -132 167 -84 213 -113 294 -190 74
-71 215 -283 244 -367 32 -94 95 -243 110 -261 18 -22 102 -191 125 -253 10
-29 24 -83 31 -122 29 -174 80 -362 109 -405 10 -14 62 -110 115 -215 54 -104
108 -208 120 -230 77 -136 75 -130 147 -365 22 -74 39 -111 57 -125 98 -80
155 -145 194 -219 23 -44 66 -114 97 -156 81 -111 84 -115 124 -240 20 -63 58
-156 84 -206 197 -382 192 -375 277 -464 45 -47 91 -99 102 -115 30 -44 99
-204 138 -321 18 -55 54 -138 80 -185 86 -151 96 -177 106 -268 18 -165 52
-346 75 -399 29 -65 57 -168 80 -292 24 -135 73 -202 229 -314 22 -16 42 -32
45 -36 3 -4 46 -34 96 -68 63 -42 119 -91 180 -159 49 -54 137 -145 195 -203
122 -121 151 -171 199 -342 36 -128 69 -206 101 -234 36 -33 97 -39 159 -17
46 16 62 30 129 111 42 51 84 106 93 121 45 70 66 313 35 397 -12 32 -13 52
-5 90 5 29 6 82 1 129 -4 44 -9 249 -10 455 -4 746 -7 806 -32 895 -21 74 -23
99 -23 340 0 158 4 276 11 300 38 140 158 185 495 185 180 0 184 0 247 29 98
44 138 45 209 9 l60 -31 271 -10 c177 -6 322 -6 417 1 98 6 151 6 162 -1 58
-38 444 -555 679 -909 736 -1113 1284 -2357 1599 -3638 505 -2049 457 -4184
-138 -6180 -456 -1528 -1241 -2981 -2264 -4190 -271 -320 -844 -924 -912 -960
-25 -14 -27 -12 -61 28 -19 23 -54 56 -77 72 -22 16 -115 101 -206 189 -180
176 -180 176 -428 281 l-123 52 -44 -16 c-37 -14 -46 -24 -65 -69 -22 -50 -22
-56 -12 -229 13 -233 2 -272 -99 -358 -45 -38 -54 -41 -86 -35 -24 4 -51 22
-80 50 -29 30 -83 63 -168 104 -115 57 -127 65 -171 124 -26 34 -64 80 -84
102 -20 22 -44 55 -55 72 -37 63 -101 70 -148 18 -30 -35 -94 -69 -173 -95
-86 -28 -133 -83 -185 -215 -25 -65 -42 -94 -67 -113 -64 -50 -142 -136 -172
-192 -17 -30 -46 -82 -65 -115 -18 -33 -57 -89 -87 -124 -80 -96 -78 -93 -109
-211 -32 -122 -38 -137 -83 -195 -17 -21 -31 -42 -31 -45 0 -3 -11 -27 -24
-55 -75 -162 -96 -180 -303 -259 -71 -27 -113 -66 -184 -172 -30 -45 -67 -93
-82 -107 -15 -14 -35 -37 -44 -50 -22 -31 -99 -85 -136 -93 -15 -4 -47 -17
-72 -29 -43 -22 -75 -57 -239 -262 -49 -62 -129 -139 -169 -164 -55 -33 -185
-165 -214 -216 -17 -30 -51 -71 -77 -91 -25 -20 -108 -99 -184 -175 -153 -154
-131 -142 -379 -212 -667 -192 -1601 -345 -2319 -381 l-136 -7 -6 39 c-10 57
-8 160 3 229 5 32 12 104 16 160 5 86 3 109 -16 165 -11 36 -26 95 -32 132
-10 59 -10 71 7 108 11 25 35 53 61 70 65 45 146 134 165 182 10 24 18 69 18
103 0 63 -4 75 -88 227 l-42 77 3 103 c2 101 2 104 -35 178 -20 41 -45 109
-56 150 -11 41 -24 89 -30 105 -5 17 -23 82 -40 145 -34 129 -33 177 6 223 12
16 23 33 23 38 0 5 23 34 51 65 30 34 66 88 86 133 39 87 50 97 156 152 42 22
94 55 115 73 50 46 141 84 227 97 121 19 192 38 287 79 51 22 138 51 192 66
137 36 244 79 431 171 180 90 206 98 360 112 214 21 230 23 270 46 22 13 78
59 125 104 71 66 99 86 165 113 69 27 94 45 175 123 78 74 114 100 194 140
105 52 196 126 245 199 15 23 44 82 66 131 21 50 41 94 45 98 4 4 45 15 91 23
87 15 146 45 183 91 10 14 31 36 47 51 34 32 80 158 116 317 28 126 26 168
-12 295 -25 84 -43 176 -52 275 -4 46 -2 53 27 80 29 28 37 30 117 32 47 1 91
7 99 14 7 6 20 30 29 53 15 38 15 46 0 89 -16 46 -9 87 15 87 5 0 16 7 24 16
12 12 16 37 16 104 0 106 12 168 52 264 46 112 104 193 155 220 43 21 47 22
104 8 57 -14 60 -14 96 9 61 39 90 49 151 49 107 1 188 79 207 200 4 25 19 63
33 85 24 37 26 51 33 195 7 162 15 211 49 298 11 29 20 76 20 107 0 47 -6 65
-51 140 -41 70 -61 93 -104 121 -30 19 -67 34 -82 34 -15 0 -34 4 -42 9 -9 6
-38 0 -81 -14 -88 -30 -105 -39 -159 -90 -25 -23 -64 -48 -86 -55 -78 -25
-192 -88 -198 -109 -8 -32 -100 -30 -149 4 -20 14 -42 25 -47 25 -6 0 -33 -20
-60 -44 -55 -49 -111 -71 -219 -86 -41 -6 -81 -14 -90 -19 -51 -27 -82 -95
-82 -179 0 -59 -39 -97 -107 -105 -43 -5 -55 -1 -115 35 -75 45 -98 83 -98
166 0 70 -17 119 -56 162 -29 32 -44 39 -97 48 -34 6 -94 22 -133 36 -67 24
-73 24 -125 11 -48 -12 -63 -23 -134 -99 -73 -77 -85 -85 -133 -95 -29 -6 -70
-11 -92 -11 -45 0 -117 -29 -143 -57 -9 -11 -28 -48 -42 -82 -14 -35 -37 -80
-51 -102 -13 -21 -38 -74 -55 -116 -45 -114 -85 -178 -131 -212 -39 -29 -48
-31 -127 -31 -173 0 -180 -3 -276 -93 -77 -71 -87 -85 -102 -137 -23 -85 -74
-147 -162 -196 l-73 -42 -157 54 c-86 30 -167 54 -180 54 -47 0 -164 -73 -244
-152 -43 -42 -99 -87 -124 -99 -50 -24 -154 -36 -226 -25 -39 6 -50 14 -87 59
-23 29 -64 68 -91 87 -46 31 -57 34 -127 35 -64 0 -88 -5 -142 -29 -91 -41
-178 -49 -255 -23 -54 18 -73 34 -185 145 -89 90 -139 132 -175 147 -27 13
-60 37 -72 53 -27 37 -74 52 -163 52 -62 0 -71 -3 -135 -46 -64 -42 -74 -45
-115 -40 -25 2 -65 15 -90 27 -34 17 -72 24 -150 29 -123 7 -156 21 -203 84
-17 24 -57 72 -88 107 -69 78 -74 88 -88 169 -18 109 -49 202 -84 255 -19 27
-41 61 -50 75 -10 14 -29 43 -44 65 -15 22 -35 64 -45 94 l-18 53 71 77 c39
42 77 91 86 108 44 92 209 163 428 183 66 6 141 18 168 26 50 17 158 74 242
130 64 42 211 176 251 228 18 23 65 73 106 111 41 39 87 89 101 110 14 22 47
63 74 91 39 41 59 54 102 65 46 11 59 21 87 59 l32 44 -40 24 c-34 21 -47 23
-96 17 -128 -15 -272 -44 -303 -61 -38 -20 -122 -22 -191 -4 -24 6 -92 33
-153 60 -127 56 -234 76 -353 65 -85 -8 -149 5 -232 46 -44 22 -65 40 -95 86
-57 86 -127 156 -255 254 -237 183 -302 252 -331 357 -10 36 -9 48 6 82 19 42
62 66 167 94 29 7 99 30 156 50 142 49 236 64 467 71 246 8 312 22 471 105 63
33 123 60 134 60 28 0 36 26 19 61 -12 24 -41 42 -164 100 -376 176 -394 188
-534 346 -56 64 -69 73 -98 73 -56 0 -123 91 -123 167 0 77 58 186 127 239 21
16 94 85 163 154 112 112 135 130 227 178 56 28 110 52 119 52 9 0 43 16 76
36 52 32 64 45 89 98 45 97 67 343 39 446 -40 148 -183 307 -317 351 -90 29
-192 85 -267 145 -44 36 -104 79 -133 95 -34 20 -121 101 -251 237 -345 358
-367 401 -364 702 1 99 -5 208 -13 273 -19 135 -19 208 -1 277 28 106 56 290
56 362 0 105 15 189 52 303 31 97 32 105 34 290 1 164 5 205 27 300 14 61 28
146 32 190 11 135 26 206 67 313 38 98 45 109 127 192 84 86 87 88 144 95 170
21 366 -45 453 -152 21 -26 64 -77 95 -113 67 -78 94 -120 139 -220 19 -41 49
-92 67 -112 38 -44 97 -158 152 -295 54 -133 164 -350 195 -382 14 -14 37 -58
51 -96 15 -39 33 -77 40 -85 7 -8 46 -71 85 -140 40 -69 85 -141 101 -160 116
-139 154 -182 228 -257 47 -46 97 -91 112 -99 15 -7 38 -28 51 -46 12 -18 37
-45 55 -61 17 -15 34 -40 38 -56 4 -18 22 -39 50 -59 25 -17 45 -36 45 -41 0
-9 57 -49 143 -100 31 -19 46 -22 88 -16 46 6 49 9 36 24 -8 9 -17 28 -21 43
-3 15 -19 35 -34 44 -15 10 -50 40 -78 68 -55 56 -103 87 -159 106 -40 13
-115 98 -115 131 0 11 -20 41 -46 67 -98 102 -113 120 -163 196 -28 43 -51 82
-51 87 0 5 -48 98 -106 206 -72 136 -118 235 -145 316 -22 65 -49 137 -61 160
-15 30 -23 70 -29 145 -5 66 -18 139 -38 205 -68 230 -93 314 -107 362 -15 52
-16 99 -18 605 -1 238 1 269 17 302 15 30 26 38 61 46 57 12 155 -1 210 -28
87 -42 185 -185 281 -410 32 -74 68 -156 81 -182 13 -26 29 -80 35 -120 25
-163 42 -222 91 -319 40 -78 64 -112 117 -162 72 -68 109 -88 259 -144 294
-108 537 -178 672 -192 231 -24 502 -34 565 -21 84 17 146 44 199 84 25 19 54
37 63 41 10 3 32 27 49 54 l32 47 -47 51 c-72 78 -170 244 -201 338 l-13 39
47 43 c56 50 91 58 239 51 111 -5 192 -31 225 -72 9 -12 55 -56 101 -99 79
-73 229 -166 336 -209 125 -51 235 -14 235 79 0 45 -41 123 -79 151 -17 12
-60 50 -96 83 -61 57 -67 67 -91 145 -14 46 -29 86 -35 89 -5 4 -9 19 -9 35 0
16 -4 32 -10 35 -20 12 -9 31 27 50 21 11 79 61 130 112 104 104 113 124 113
243 -1 98 -14 162 -37 178 -10 7 -39 29 -66 48 l-47 35 -108 -40 c-185 -68
-202 -71 -363 -71 -125 0 -154 -3 -194 -20 -26 -11 -62 -20 -81 -20 -42 0
-134 30 -234 77 -41 19 -102 43 -135 53 -145 46 -190 106 -174 229 5 34 12 67
15 72 3 5 12 56 20 112 18 127 45 176 123 223 84 50 163 66 354 72 l168 4 54
-36 c29 -21 64 -53 77 -72 12 -18 47 -51 77 -71 56 -39 121 -128 167 -228 47
-101 176 -183 289 -185 28 -1 72 -9 100 -18 45 -16 50 -21 62 -61 7 -24 19
-51 26 -60 8 -9 26 -37 41 -63 37 -66 49 -70 107 -42 53 27 110 97 134 164 15
41 14 45 -10 84 -28 47 -250 269 -280 281 -11 4 -72 10 -135 14 l-115 6 -37
93 c-31 79 -48 104 -117 181 l-81 88 0 95 c0 73 -4 99 -15 108 -8 7 -15 21
-15 31 0 10 -5 21 -11 24 -5 4 -20 28 -32 53 -18 38 -33 52 -77 76 -55 28 -55
28 -139 16 -86 -13 -100 -9 -101 27 0 23 70 91 116 114 25 12 52 32 61 45 12
19 24 24 59 24 34 0 57 8 99 36 54 36 55 37 55 87 0 86 -52 135 -163 156 -32
6 -76 21 -100 35 -23 13 -85 36 -137 50 -52 14 -120 35 -150 46 -112 42 -179
50 -434 50 -199 0 -262 4 -352 20 -148 27 -175 25 -305 -15 -147 -46 -213 -55
-459 -60 -283 -6 -436 -31 -540 -87 -41 -22 -96 -56 -123 -75 -26 -19 -91 -50
-145 -70 -53 -19 -114 -45 -134 -58 -36 -24 -103 -125 -134 -203 -8 -20 -42
-93 -74 -162 -33 -69 -81 -175 -108 -237 -112 -256 -198 -376 -335 -471 -89
-61 -171 -94 -242 -96 -43 -1 -67 7 -146 47 -53 26 -100 47 -106 47 -6 0 -53
13 -104 29 -220 68 -315 131 -393 261 -47 79 -135 200 -189 259 -35 40 -67 61
-140 95 -51 24 -130 66 -174 94 -44 28 -116 62 -159 75 -43 14 -137 46 -208
71 -141 51 -171 56 -391 60 -117 2 -166 8 -225 25 -41 11 -147 37 -235 57 -88
19 -200 47 -250 61 -166 46 -332 82 -488 103 l-155 22 -94 -23 c-83 -21 -113
-23 -277 -21 -139 1 -202 -2 -260 -15 -146 -31 -253 -17 -326 45 -24 19 -85
106 -85 119 0 5 -11 25 -25 43 -14 19 -28 52 -32 73 -3 21 -16 51 -29 67 -15
17 -27 47 -30 77 -4 26 -11 53 -16 60 -5 7 -12 54 -15 105 -5 86 -3 99 26 177
17 47 31 101 31 120 0 22 -22 80 -57 155 -42 90 -58 135 -61 177 -4 54 -3 58
29 85 19 16 57 52 85 80 l52 51 6 89 c9 121 7 210 -6 242 -21 56 -31 152 -29
302 l3 155 34 50 c62 91 45 156 -72 278 -34 36 -36 40 -29 85 9 61 29 98 63
116 83 43 138 156 122 249 -21 123 -47 159 -122 173 -51 10 -69 31 -63 73 24
196 30 230 51 273 26 52 23 78 -15 112 -14 13 -24 16 -33 9 -7 -6 -33 -13 -58
-17 -29 -5 -56 -17 -75 -35 -44 -42 -72 -45 -83 -11 -10 26 -8 28 57 59 76 38
74 36 132 75 117 78 630 337 944 476 1172 521 2491 856 3760 955 110 8 236 18
280 21 123 10 624 21 775 18 74 -2 218 -6 320 -9z m-8861 -3685 c-36 -453 -36
-552 6 -695 14 -49 30 -132 36 -185 6 -52 24 -176 40 -275 16 -99 34 -259 40
-355 8 -132 16 -196 35 -260 14 -47 29 -132 35 -190 12 -120 60 -554 89 -805
11 -93 25 -213 30 -265 6 -52 21 -140 35 -195 13 -55 26 -143 30 -195 9 -127
28 -212 64 -293 17 -37 37 -91 46 -119 8 -29 29 -88 46 -132 52 -135 50 -275
-7 -393 -23 -47 -25 -63 -21 -140 2 -49 11 -125 20 -171 l17 -83 -26 -50 c-14
-28 -44 -71 -67 -96 -58 -64 -185 -162 -216 -169 -72 -14 -103 -28 -156 -66
-121 -90 -179 -143 -187 -173 -9 -30 -7 -105 12 -465 6 -102 15 -284 20 -405
9 -206 17 -276 64 -515 7 -41 19 -106 24 -144 10 -67 21 -92 111 -261 28 -53
52 -119 71 -197 31 -129 58 -187 145 -323 32 -49 83 -137 113 -195 57 -108
102 -177 173 -265 64 -79 158 -244 180 -315 11 -36 27 -108 34 -160 16 -103
66 -222 129 -309 54 -74 196 -350 211 -411 8 -30 21 -86 31 -125 9 -38 27 -90
39 -115 12 -25 26 -67 30 -95 3 -27 20 -105 36 -171 42 -175 40 -242 -13 -419
-51 -174 -53 -224 -11 -315 51 -111 124 -177 223 -199 36 -8 54 -7 87 5 38 15
46 15 90 0 75 -25 152 -100 200 -193 41 -80 57 -132 99 -333 32 -154 92 -353
144 -475 23 -55 53 -129 65 -165 13 -36 39 -101 59 -144 20 -44 52 -118 71
-166 18 -49 44 -105 57 -126 49 -78 156 -310 167 -361 22 -108 72 -201 201
-378 125 -171 220 -297 260 -345 25 -31 80 -114 123 -185 86 -144 168 -268
282 -425 138 -190 197 -300 260 -482 20 -57 54 -139 76 -184 42 -87 141 -381
159 -474 25 -124 45 -191 92 -309 82 -203 125 -375 147 -577 5 -51 26 -144 46
-210 30 -96 37 -134 36 -194 -2 -102 -26 -230 -63 -320 -16 -41 -41 -131 -54
-199 -29 -143 -49 -188 -140 -307 -74 -97 -339 -495 -396 -594 -21 -36 -65
-119 -99 -185 -34 -66 -91 -163 -128 -215 -37 -52 -89 -126 -115 -163 -40 -57
-51 -67 -69 -61 -57 16 -486 253 -787 432 -554 331 -1194 805 -1730 1280 -329
291 -833 809 -1136 1167 -983 1159 -1706 2441 -2179 3860 -337 1013 -523 1999
-586 3115 -16 284 -17 1093 -1 1305 74 1004 208 1765 463 2630 288 974 730
1958 1275 2836 347 560 753 1105 1183 1589 108 122 333 362 336 358 1 -2 -2
-46 -6 -98z m1455 -5028 c16 -30 19 -50 17 -104 -1 -28 -6 -38 -22 -43 -24 -8
-37 -39 -31 -74 5 -25 5 -25 13 -3 11 29 39 29 39 0 0 -30 33 -84 81 -133 137
-139 201 -224 252 -337 35 -76 45 -86 266 -250 38 -29 143 -130 185 -180 28
-32 219 -36 245 -4 8 9 3 23 -16 51 -49 73 -104 203 -108 258 -3 42 -7 52 -22
52 -11 0 -19 -8 -21 -21 -4 -30 -36 -56 -63 -52 -35 5 -70 62 -62 101 7 36 35
88 70 131 13 16 33 46 44 67 27 54 95 116 159 146 30 13 67 34 84 46 25 18 46
21 160 24 72 2 154 7 181 11 44 7 65 2 170 -34 66 -22 152 -57 190 -76 39 -19
87 -38 109 -42 21 -4 46 -11 55 -16 9 -5 33 -16 53 -25 22 -10 40 -27 46 -43
20 -55 114 -138 208 -184 49 -25 121 -62 159 -84 64 -36 77 -39 150 -40 44 -1
128 -6 187 -12 l107 -10 91 -91 c50 -50 95 -103 101 -118 19 -49 2 -97 -55
-157 -29 -31 -56 -56 -60 -56 -4 0 -20 -8 -34 -18 -15 -10 -54 -26 -87 -34
-56 -15 -106 -23 -295 -48 -42 -5 -130 -27 -196 -50 -172 -57 -211 -63 -322
-49 -115 15 -216 4 -417 -47 -160 -41 -176 -41 -345 6 -154 42 -188 45 -257
24 -86 -26 -347 -26 -418 1 -65 24 -143 91 -205 174 -27 36 -60 80 -74 96 -37
45 -155 242 -182 302 -12 29 -37 70 -54 91 -42 50 -82 148 -125 306 -32 120
-35 142 -34 256 2 107 -1 132 -19 172 -17 39 -19 56 -13 98 4 27 16 59 26 70
18 19 18 19 46 -1 16 -11 36 -33 43 -47z m-387 -661 l33 -27 -30 -23 c-17 -12
-35 -19 -40 -16 -12 7 -14 95 -2 95 4 -1 22 -13 39 -29z m78 -206 c14 -23 34
-50 45 -60 14 -13 20 -31 20 -64 0 -41 -4 -49 -44 -86 l-44 -40 14 -55 c8 -29
26 -71 41 -93 68 -95 80 -158 47 -243 l-16 -42 -49 29 c-68 42 -92 106 -91
243 1 54 4 112 7 127 6 24 3 29 -19 35 -37 9 -50 65 -42 181 3 51 9 98 11 105
4 9 20 12 50 10 41 -4 48 -8 70 -47z m4735 -843 c70 -69 71 -148 3 -223 -39
-43 -115 -73 -145 -58 -9 5 -27 26 -40 46 -19 32 -23 51 -22 121 0 80 1 83 34
117 30 31 40 35 83 35 44 0 54 -4 87 -38z m-1061 -268 c61 -37 84 -114 70
-244 -31 -301 -34 -313 -103 -428 -18 -32 -39 -75 -46 -97 -20 -65 -91 -195
-124 -229 -17 -17 -65 -52 -106 -79 -155 -99 -264 -207 -358 -357 -23 -36 -49
-75 -58 -88 -45 -64 -238 -145 -350 -146 -52 -1 -72 5 -140 40 -175 90 -282
151 -335 192 -72 54 -189 184 -218 240 -12 23 -59 89 -105 146 -45 56 -92 123
-104 147 -29 61 -45 169 -37 260 4 47 2 94 -6 122 -17 71 -4 131 38 178 20 22
46 45 57 52 13 8 93 14 221 17 l200 5 100 47 c106 50 110 51 335 98 184 38
258 49 395 61 306 25 343 30 440 59 109 33 184 34 234 4z m7766 -5951 c9 -12
10 -25 3 -46 l-10 -29 -34 33 -34 33 22 13 c31 17 39 16 53 -4z" />
<path d="M17890 18479 c-19 -4 -75 -20 -125 -35 -86 -26 -93 -27 -173 -15
-111 16 -136 5 -140 -60 -5 -70 34 -305 63 -389 73 -209 73 -229 -4 -495 -52
-177 -71 -290 -73 -420 -1 -97 2 -118 24 -175 104 -264 114 -327 104 -630 -8
-234 -13 -280 -32 -280 -9 0 -14 -11 -14 -32 0 -32 0 -32 15 -11 8 12 28 24
44 28 16 3 32 13 35 21 3 8 11 67 17 130 5 63 16 132 23 152 8 21 17 57 20 82
4 25 11 59 16 75 5 17 21 102 34 190 23 147 55 267 87 326 19 37 178 200 229
235 89 63 200 124 224 124 38 0 96 24 187 79 47 28 94 51 105 51 27 -1 109
-63 142 -109 16 -22 63 -78 106 -124 98 -107 141 -177 187 -302 20 -55 49
-131 64 -170 27 -67 28 -77 29 -275 l2 -205 38 -105 c33 -94 38 -122 49 -262
10 -140 9 -163 -6 -211 -35 -112 -15 -195 59 -239 25 -16 52 -28 60 -28 8 0
29 -7 45 -16 17 -8 34 -13 37 -9 4 4 7 38 6 76 0 60 -3 72 -26 96 -36 38 -106
187 -120 256 -11 50 -10 58 6 76 15 16 17 31 13 67 -3 28 0 60 8 78 7 17 18
65 24 106 7 41 21 108 32 148 15 52 20 103 20 180 0 122 -15 196 -59 297 -43
99 -48 161 -24 265 41 174 28 223 -78 295 -38 25 -93 54 -122 65 -29 10 -91
35 -138 54 -46 20 -89 36 -95 36 -5 0 -22 6 -37 14 -15 8 -40 17 -57 21 -16 3
-35 13 -42 21 -6 8 -25 14 -41 14 -22 0 -33 -7 -46 -30 -20 -35 -28 -37 -37
-11 -6 21 -140 161 -154 161 -18 0 -122 145 -139 194 -9 27 -36 70 -60 97 -86
96 -119 208 -93 321 6 26 8 67 4 93 -7 51 -26 70 -108 105 -50 21 -61 22 -115
9z"/>
<path d="M13754 14744 c-8 -3 -7 -18 4 -50 16 -50 41 -68 127 -90 75 -20 142
-18 181 7 19 11 34 26 34 32 0 7 -39 32 -87 56 -78 40 -95 45 -167 48 -45 1
-86 0 -92 -3z" />
<path d="M14231 14665 c-18 -8 -43 -15 -55 -16 -14 0 -16 -2 -6 -6 22 -8 40
-34 40 -59 0 -30 60 -64 125 -71 40 -4 60 -1 93 16 24 12 60 21 87 21 60 0 58
16 -4 24 -42 6 -50 11 -67 42 -10 20 -31 42 -46 50 -35 18 -123 17 -167 -1z"/>
<path d="M12903 13690 c-34 -5 -77 -16 -95 -25 -41 -19 -192 -145 -241 -201
-40 -45 -65 -123 -44 -136 137 -89 246 -132 376 -148 152 -19 355 22 467 95
60 40 66 47 88 104 40 104 -35 216 -189 281 -73 31 -90 34 -190 36 -60 1 -138
-1 -172 -6z"/>
<path d="M14778 13573 c-28 -33 -29 -54 -4 -107 25 -52 101 -133 146 -156 32
-17 150 -110 150 -119 0 -4 45 -52 101 -106 109 -109 131 -142 148 -225 10
-50 49 -130 83 -170 7 -9 29 -27 48 -40 19 -14 65 -52 101 -86 36 -34 83 -73
105 -87 52 -33 109 -94 139 -148 74 -131 73 -129 64 -199 -5 -36 -14 -77 -20
-92 -12 -29 -14 -133 -9 -343 4 -118 2 -134 -18 -172 -12 -23 -25 -44 -30 -47
-4 -2 -27 1 -51 7 -34 9 -50 21 -74 57 -59 86 -126 148 -178 165 l-50 17 -44
-34 c-49 -36 -95 -114 -95 -159 0 -22 -11 -36 -57 -69 -38 -26 -67 -57 -84
-88 l-25 -47 22 -46 c13 -25 35 -54 51 -64 59 -39 140 -81 202 -105 73 -29
133 -78 216 -180 40 -48 75 -80 108 -97 55 -28 69 -25 124 21 26 22 32 35 37
84 3 31 2 93 -2 137 -8 78 -8 80 17 102 120 103 150 133 178 180 18 29 44 92
58 140 21 74 25 107 25 224 0 124 3 151 35 276 34 134 36 139 79 179 54 49 60
70 54 177 -4 64 -14 103 -43 177 -21 52 -48 109 -60 125 -33 44 -252 231 -393
334 -68 50 -194 129 -280 176 -86 47 -182 104 -212 126 -30 22 -77 51 -105 64
-27 13 -90 53 -140 89 -91 67 -140 93 -230 127 -61 23 -68 23 -87 2z"/>
<path d="M14325 11490 c-22 -5 -66 -22 -99 -39 -32 -17 -68 -31 -80 -31 -17
-1 -13 -5 16 -20 20 -11 46 -31 57 -46 11 -14 40 -39 64 -54 23 -14 64 -43 90
-63 59 -45 191 -89 268 -88 61 0 168 38 212 75 22 18 25 26 19 60 -6 36 -13
42 -69 71 -34 17 -68 37 -75 43 -21 17 -182 72 -257 88 -73 15 -88 16 -146 4z"/>
<path d="M12801 11427 c-18 -7 -57 -32 -86 -57 -47 -40 -52 -48 -47 -75 8 -50
18 -59 79 -71 78 -17 125 -17 225 1 65 11 98 23 136 49 29 19 65 37 82 41 16
4 30 12 30 18 0 24 -40 77 -62 82 -117 26 -299 32 -357 12z"/>
<path d="M14028 11413 c7 -3 16 -2 19 1 4 3 -2 6 -13 5 -11 0 -14 -3 -6 -6z"/>
<path d="M5456 10021 c-3 -20 -6 -89 -6 -153 l0 -118 39 -20 c22 -11 43 -30
47 -42 7 -22 8 -22 20 7 16 37 17 142 3 255 l-11 87 -43 10 -43 10 -6 -36z"/>
</g>
</svg>
