<?xml version="1.0" standalone="no"?>
<!DOCTYPE svg PUBLIC "-//W3C//DTD SVG 20010904//EN"
 "http://www.w3.org/TR/2001/REC-SVG-20010904/DTD/svg10.dtd">
<svg version="1.0" xmlns="http://www.w3.org/2000/svg"
 width="512.000000pt" height="512.000000pt" viewBox="0 0 512.000000 512.000000"
 preserveAspectRatio="xMidYMid meet">

<g transform="translate(0.000000,512.000000) scale(0.100000,-0.100000)"
fill="#000000" stroke="none">
<path d="M1165 5106 c-542 -87 -986 -491 -1120 -1021 -45 -177 -46 -217 -43
-1590 4 -1286 4 -1301 25 -1390 120 -503 458 -880 931 -1034 207 -68 156 -66
1602 -66 1224 0 1311 1 1410 18 276 49 518 172 721 364 206 196 344 449 405
738 18 86 19 155 19 1440 l0 1350 -23 105 c-121 548 -514 942 -1075 1077 -66
16 -176 17 -1422 19 -1054 2 -1368 0 -1430 -10z m566 -1492 c115 -40 239 -100
377 -182 l92 -55 123 13 c85 9 179 11 307 5 326 -13 296 -15 373 33 148 93
440 222 500 222 57 0 82 -53 117 -245 11 -60 23 -157 26 -215 8 -135 15 -163
64 -239 109 -168 135 -260 135 -471 -1 -167 -13 -260 -52 -385 -51 -164 -151
-316 -271 -411 -128 -101 -330 -178 -537 -203 -117 -14 -744 -14 -860 0 -405
50 -675 252 -791 591 -46 135 -59 223 -59 398 0 225 31 330 143 493 l46 69 8
146 c4 81 12 172 17 202 16 80 62 243 74 258 16 20 59 14 168 -24z" fill="#7111F5"/>
<path d="M2996 2602 c-4 -4 -247 -7 -539 -7 l-532 0 -57 -23 c-163 -65 -274
-270 -253 -461 27 -235 156 -392 375 -454 164 -47 222 -52 570 -52 310 0 343
2 449 23 196 40 285 83 374 182 85 94 116 187 117 340 0 253 -109 395 -339
440 -74 14 -157 20 -165 12z m-817 -236 c129 -67 161 -297 60 -420 -93 -112
-240 -74 -295 76 -32 87 -15 220 37 286 50 64 137 89 198 58z m927 -21 c120
-91 119 -339 -2 -431 -31 -24 -47 -29 -94 -29 -74 0 -121 34 -159 114 -48 103
-27 264 42 329 64 60 147 67 213 17z" fill="#7111F5"/>
</g>
</svg>
