<?xml version="1.0" encoding="UTF-8" standalone="no"?>
<svg
   xmlns:dc="http://purl.org/dc/elements/1.1/"
   xmlns:cc="http://creativecommons.org/ns#"
   xmlns:rdf="http://www.w3.org/1999/02/22-rdf-syntax-ns#"
   xmlns:svg="http://www.w3.org/2000/svg"
   xmlns="http://www.w3.org/2000/svg"
   viewBox="0 0 5333.3335 5333.3335"
   height="5333.3335"
   width="5333.3335"
   xml:space="preserve"
   id="svg2"
   version="1.1"><metadata
     id="metadata8"><rdf:RDF><cc:Work
         rdf:about=""><dc:format>image/svg+xml</dc:format><dc:type
           rdf:resource="http://purl.org/dc/dcmitype/StillImage" /></cc:Work></rdf:RDF></metadata><defs
     id="defs6" /><g
     transform="matrix(1.3333333,0,0,-1.3333333,0,5333.3333)"
     id="g10"><g
       transform="scale(0.1)"
       id="g12"><g
         transform="scale(2.45399)"
         id="g14"><path
           id="path16"
           style="fill:#2662db;fill-opacity:0;fill-rule:nonzero;stroke:none"
           d="M 16300,0 H 0 V 16300 H 16300 V 0" /></g><path
         id="path18"
         style="fill:#ffffff;fill-opacity:1;fill-rule:nonzero;stroke:none"
         d="m 7126.11,14468.8 c 0,-59.5 -121.96,-111.4 -304.12,-139.9 -91.96,-14.5 -164.4,-86.9 -178.82,-178.9 -28.56,-182.1 -80.45,-304.1 -139.94,-304.1 -59.49,0 -111.37,122 -139.93,304.1 -14.43,92 -86.87,164.5 -178.85,178.9 -182.29,28.5 -304.54,80.4 -304.54,139.9 0,59.8 122.15,111.8 304.31,140.1 92.09,14.4 164.66,86.9 179.08,178.9 28.57,182.4 80.45,304.3 139.93,304.3 59.49,0 111.37,-121.9 139.94,-304.3 14.42,-92 86.98,-164.5 179.06,-178.9 182.02,-28.3 303.88,-80.3 303.88,-140.1" /><path
         id="path20"
         style="fill:#ffffff;fill-opacity:1;fill-rule:nonzero;stroke:none"
         d="m 11996.2,9501.7 c -10.9,-49.3 -121.5,-70 -277.8,-60.3 -78.8,4.9 -152.1,-41.8 -181,-115.4 -57,-145.8 -122.4,-237.4 -171.7,-226.5 -49.3,10.9 -70,121.5 -60.3,277.7 4.9,78.9 -41.8,152.3 -115.4,181.1 -145.9,57.1 -237.7,122.5 -226.8,171.8 10.9,49.6 121.7,70.2 277.9,60.4 79,-5 152.4,41.8 181.2,115.4 57.1,146 122.5,237.5 171.8,226.6 49.3,-10.9 70,-121.5 60.2,-277.9 -4.9,-78.9 42,-152.3 115.7,-181.1 145.7,-56.8 237.1,-122.2 226.2,-171.8" /><g
         transform="scale(2.00438)"
         id="g22"><path
           id="path24"
           style="fill:#ffffff;fill-opacity:1;fill-rule:nonzero;stroke:none"
           d="m 14587.8,15979.8 c -5.4,-24.6 -60.6,-34.9 -138.5,-30 -39.4,2.4 -75.9,-20.9 -90.3,-57.6 -28.5,-72.8 -61.1,-118.5 -85.7,-113 -24.6,5.4 -34.9,60.6 -30.1,138.5 2.5,39.4 -20.9,76 -57.6,90.4 -72.8,28.4 -118.6,61.1 -113.1,85.7 5.4,24.7 60.7,35 138.7,30.1 39.3,-2.5 76,20.9 90.4,57.6 28.4,72.8 61,118.5 85.7,113.1 24.6,-5.5 34.8,-60.7 30,-138.7 -2.4,-39.4 20.9,-76 57.7,-90.3 72.7,-28.4 118.3,-61 112.8,-85.8" /></g><g
         transform="scale(2.174)"
         id="g26"><path
           id="path28"
           style="fill:#ffffff;fill-opacity:1;fill-rule:nonzero;stroke:none"
           d="m 16300,8122.45 c 0,-44.39 -36,-80.36 -80.4,-80.36 -44.3,0 -80.3,35.97 -80.3,80.36 0,44.38 36,80.36 80.3,80.36 44.4,0 80.4,-35.98 80.4,-80.36" /></g><g
         transform="scale(1.85489)"
         id="g30"><path
           id="path32"
           style="fill:#ffffff;fill-opacity:1;fill-rule:nonzero;stroke:none"
           d="m 16256.7,15528.8 c -37.6,-30.7 -93,-25 -123.7,12.6 -30.7,37.6 -25.1,93.1 12.5,123.7 37.7,30.7 93.1,25.1 123.8,-12.5 30.7,-37.7 25,-93.1 -12.6,-123.8" /></g><g
         transform="scale(2.07008)"
         id="g34"><path
           id="path36"
           style="fill:#ffffff;fill-opacity:1;fill-rule:nonzero;stroke:none"
           d="m 16272,12502.9 c -27.9,-47.6 -89.2,-63.6 -136.9,-35.7 -47.7,28 -63.7,89.3 -35.7,137 27.9,47.7 89.3,63.7 136.9,35.7 47.7,-27.9 63.7,-89.3 35.7,-137" /></g><g
         transform="scale(2.04587)"
         id="g38"><path
           id="path40"
           style="fill:#ffffff;fill-opacity:1;fill-rule:nonzero;stroke:none"
           d="m 7094.38,16186.2 c 7.43,-66.2 -40.23,-125.8 -106.41,-133.2 -66.18,-7.4 -125.81,40.2 -133.2,106.4 -7.43,66.2 40.23,125.8 106.41,133.2 66.19,7.4 125.82,-40.2 133.2,-106.4" /></g><g
         transform="scale(2.16412)"
         id="g42"><path
           id="path44"
           style="fill:#ffffff;fill-opacity:1;fill-rule:nonzero;stroke:none"
           d="m 16293,6407.51 c 7,-62.56 -38.1,-118.94 -100.6,-125.96 -62.6,-6.98 -119,38.07 -125.9,100.64 -7.1,62.56 38,118.94 100.6,125.92 62.5,6.97 118.9,-38.03 125.9,-100.6" /></g><g
         transform="scale(1.18553)"
         id="g46"><path
           id="path48"
           style="fill:#ffffff;fill-opacity:1;fill-rule:nonzero;stroke:none"
           d="m 4566.92,16134.4 c 0,-91.4 -74.11,-165.5 -165.53,-165.5 -91.42,0 -165.54,74.1 -165.54,165.5 0,91.5 74.12,165.6 165.54,165.6 91.42,0 165.53,-74.1 165.53,-165.6" /></g><g
         transform="scale(1.88545)"
         id="g50"><path
           id="path52"
           style="fill:#ffffff;fill-opacity:1;fill-rule:nonzero;stroke:none"
           d="m 16300,4118.42 c 0,-26.35 -21.4,-47.68 -47.7,-47.68 -26.3,0 -47.6,21.33 -47.6,47.68 0,26.31 21.3,47.63 47.6,47.63 26.3,0 47.7,-21.32 47.7,-47.63" /></g><g
         transform="scale(2.15917)"
         id="g54"><path
           id="path56"
           style="fill:#ffffff;fill-opacity:1;fill-rule:nonzero;stroke:none"
           d="m 16300,10110.8 c 0,-23 -18.6,-41.6 -41.6,-41.6 -23,0 -41.6,18.6 -41.6,41.6 0,23 18.6,41.6 41.6,41.6 23,0 41.6,-18.6 41.6,-41.6" /></g><g
         transform="scale(1.97747)"
         id="g58"><path
           id="path60"
           style="fill:#ffffff;fill-opacity:1;fill-rule:nonzero;stroke:none"
           d="m 16273.5,14757.7 c -23.1,-18.8 -57,-15.3 -75.8,7.7 -18.8,23.1 -15.4,57.1 7.7,75.9 23,18.8 57,15.3 75.8,-7.8 18.8,-23 15.4,-57 -7.7,-75.8" /></g><g
         transform="scale(1.97811)"
         id="g62"><path
           id="path64"
           style="fill:#ffffff;fill-opacity:1;fill-rule:nonzero;stroke:none"
           d="m 16298.2,11626.9 c 1.8,-35.4 -25.4,-65.5 -60.8,-67.3 -35.4,-1.8 -65.5,25.5 -67.3,60.9 -1.7,35.3 25.5,65.4 60.9,67.2 35.3,1.8 65.5,-25.4 67.2,-60.8" /></g><g
         transform="scale(1.39094)"
         id="g66"><path
           id="path68"
           style="fill:#ffffff;fill-opacity:1;fill-rule:nonzero;stroke:none"
           d="m 5545.33,16227.2 c -0.08,-40.1 -32.62,-72.5 -72.7,-72.4 -40.07,0 -72.5,32.6 -72.42,72.7 0.08,40.1 32.62,72.5 72.7,72.4 40.07,0 72.49,-32.6 72.42,-72.7" /></g><g
         transform="scale(1.5742)"
         id="g70"><path
           id="path72"
           style="fill:#ffffff;fill-opacity:1;fill-rule:nonzero;stroke:none"
           d="m 5029.18,16149.6 c -7.46,-71.4 -71.42,-123.3 -142.87,-115.8 -71.45,7.4 -123.34,71.4 -115.89,142.8 7.45,71.5 71.42,123.4 142.87,115.9 71.46,-7.4 123.34,-71.4 115.89,-142.9" /></g><g
         transform="scale(1.55729)"
         id="g74"><path
           id="path76"
           style="fill:#ffffff;fill-opacity:1;fill-rule:nonzero;stroke:none"
           d="m 7274.73,15953.6 c 0,-33 -67.75,-61.9 -168.94,-77.7 -51.12,-8.1 -91.38,-48.3 -99.41,-99.4 -15.86,-101.2 -44.69,-169 -77.76,-169 -33.07,0 -61.9,67.8 -77.76,169 -8.03,51.1 -48.29,91.3 -99.41,99.4 -101.26,15.8 -169.2,44.7 -169.2,77.7 0,33.3 67.87,62.1 169.07,77.9 51.18,8 91.51,48.2 99.54,99.4 15.86,101.4 44.69,169.1 77.76,169.1 33.07,0 61.9,-67.7 77.76,-169.1 8.03,-51.2 48.36,-91.4 99.53,-99.4 101.14,-15.8 168.82,-44.6 168.82,-77.9" /></g><g
         transform="scale(1.81159)"
         id="g78"><path
           id="path80"
           style="fill:#ffffff;fill-opacity:1;fill-rule:nonzero;stroke:none"
           d="m 6135.28,16002.2 c 0,-28.4 -58.24,-53.2 -145.29,-66.9 -43.94,-6.9 -78.5,-41.4 -85.4,-85.3 -13.69,-87.1 -38.47,-145.3 -66.84,-145.3 -28.43,0 -53.22,58.2 -66.85,145.3 -6.9,43.9 -41.51,78.4 -85.45,85.3 -87.1,13.7 -145.51,38.5 -145.51,66.9 0,28.6 58.35,53.4 145.4,67 43.99,6.8 78.66,41.4 85.56,85.4 13.63,87.1 38.42,145.4 66.85,145.4 28.37,0 53.15,-58.3 66.84,-145.4 6.85,-44 41.51,-78.6 85.51,-85.4 87,-13.6 145.18,-38.4 145.18,-67" /></g><path
         id="path82"
         style="fill:#ffffff;fill-opacity:1;fill-rule:nonzero;stroke:none"
         d="m 9735.94,11995.2 c 0,-108.4 -87.86,-196.3 -196.25,-196.3 -108.38,0 -196.25,87.9 -196.25,196.3 0,108.4 87.87,196.2 196.25,196.2 108.39,0 196.25,-87.8 196.25,-196.2" /><g
         transform="scale(1.8956)"
         id="g84"><path
           id="path86"
           style="fill:#ffffff;fill-opacity:1;fill-rule:nonzero;stroke:none"
           d="m 16299.9,6074.12 c 0,-29.39 -23.9,-53.18 -53.3,-53.13 -29.4,0.05 -53.2,23.95 -53.2,53.34 0.1,29.43 24,53.23 53.4,53.17 29.4,-0.05 53.2,-23.95 53.1,-53.38" /></g><path
         id="path88"
         style="fill:#ffffff;fill-opacity:1;fill-rule:nonzero;stroke:none"
         d="m 13997,7149.2 c -11.7,-112.4 -112.4,-194.1 -224.9,-182.4 -112.5,11.7 -194.2,112.4 -182.4,224.9 11.7,112.5 112.4,194.2 224.9,182.4 112.5,-11.7 194.1,-112.4 182.4,-224.9" /><g
         transform="scale(1.64435)"
         id="g90"><path
           id="path92"
           style="fill:#ffffff;fill-opacity:1;fill-rule:nonzero;stroke:none"
           d="M 16300,11240.6 V 6914.16 c 0,-727.58 -595.4,-1322.71 -1322.7,-1322.71 h -4374 c -727.3,0 -1322.73,595.13 -1322.73,1322.71 v 4326.44 c 0,428.3 206.34,810.5 524.28,1052.6 222.35,169.4 499.25,270.1 798.45,270.1 h 4374 c 327.2,0 627.5,-120.6 859.2,-319.5 283.4,-242.9 463.5,-602.8 463.5,-1003.2" /></g><g
         transform="scale(1.65594)"
         id="g94"><path
           id="path96"
           style="fill:#371b45;fill-opacity:1;fill-rule:nonzero;stroke:none"
           d="m 10529.2,12361.2 c -661.26,0 -1199.2,-538 -1199.2,-1199.2 V 6865.77 c 0,-661.25 537.94,-1199.25 1199.2,-1199.25 h 4343.1 c 661.2,0 1199.2,538 1199.2,1199.25 V 11162 c 0,661.2 -538,1199.2 -1199.2,1199.2 h -4343.1 m 4343.1,-6923.14 h -4343.1 c -787.23,0 -1427.65,640.49 -1427.65,1427.71 V 11162 c 0,787.2 640.42,1427.7 1427.65,1427.7 h 4343.1 c 787.3,0 1427.7,-640.5 1427.7,-1427.7 V 6865.77 c 0,-787.22 -640.4,-1427.71 -1427.7,-1427.71" /></g><g
         transform="scale(1.28483)"
         id="g98"><path
           id="path100"
           style="fill:#ffffff;fill-opacity:1;fill-rule:nonzero;stroke:none"
           d="m 14332.4,16300 c -2057.4,-706.4 -2782.7,-2783.9 -3086.3,-2790.2 -303.5,-6.3 -499.1,513.6 -763.2,857.2 -273.8,356.5 -600.22,321.2 -1064.49,285.9 -341.29,-25.9 -757.06,-51.7 -1281.17,77.9 -610.46,151.1 18.44,-1682 288.2,-2376.2 351.1,-903.8 1117.5,-2013.3 2541.86,-1983.6 2075.4,43.3 2138.1,2595.2 2138.1,2595.2 l 1227,3333.8" /></g><g
         transform="scale(1.03888)"
         id="g102"><path
           id="path104"
           style="fill:#cdc6d0;fill-opacity:1;fill-rule:nonzero;stroke:none"
           d="m 13493.4,13007.6 c -1522,0 -2346.6,1125.3 -2756.1,1993.9 98.2,-17.2 187.2,-26.7 281.6,-37.4 121.6,-12.7 245.9,-21.3 372.2,-21.3 106.5,0 214.4,6.1 323.3,21.4 236.3,32.8 481.2,114.6 683.1,266.4 1.4,1 2.7,2 4.1,3.1 -256.2,-398.9 -509.8,-809.9 -283.8,-1123.4 321.8,-447.2 975.5,-561.2 1657.8,-561.2 43.5,0 87.1,0.4 130.7,1.3 302.2,6 545.2,67.7 743.6,170.3 -2.5,-13.2 -4.8,-26.4 -6.8,-39.7 -19.2,-130.4 -10.5,-260.2 24.6,-383 -319,-184 -688.7,-280.9 -1107.7,-289.7 -22.4,-0.5 -44.4,-0.7 -66.6,-0.7 m 1804.9,1417.5 c 297.5,601.9 373.3,1379.3 667.1,1874.9 -193.1,-511.2 -340.1,-1038.1 -454.1,-1571.2 -21.6,-91.5 -41.8,-183.4 -61.3,-275.3 -51.8,-5.2 -102.7,-14.8 -151.7,-28.4" /></g><g
         transform="scale(1.2979)"
         id="g106"><path
           id="path108"
           style="fill:#371b45;fill-opacity:1;fill-rule:nonzero;stroke:none"
           d="m 10801.3,10120.3 c -649.3,0 -1221.1,226.9 -1700.49,675.1 -466.06,435.9 -744.51,992.1 -896.07,1382 -63.02,162.3 -279.91,734.9 -421.76,1285 -211.79,821.5 -122.88,1058.8 -21.8,1173.8 45.77,52 149.24,132.5 329.15,87.9 514.75,-127.4 927.11,-95.9 1258.42,-70.5 446.57,34.2 832.35,63.7 1144.25,-342.4 80.5,-104.7 153.2,-222.2 223.3,-335.7 128,-206.9 272.4,-440.4 398.9,-455.2 60.2,42.9 193.3,238.7 311.4,412.3 436.7,642.5 1249.7,1838.3 2714.2,2341.2 76.1,26.2 159,-14.3 185.2,-90.5 26.2,-76.1 -14.4,-159.1 -90.5,-185.2 -1372.7,-471.4 -2120.9,-1571.8 -2567.9,-2229.3 -243.2,-357.7 -365.2,-537.2 -531.7,-540.6 -297.7,-7.2 -485,298.9 -667.4,593.9 -66.4,107.4 -135.2,218.6 -206.6,311.5 -207.2,269.6 -422.82,265.2 -890.96,229.3 -352.11,-26.9 -790.36,-60.4 -1350.65,78.2 -28.81,7.2 -39.45,3.6 -39.53,3.6 -0.53,-0.5 -116.03,-113.6 74.9,-871.9 137.22,-544.9 356.8,-1125 420.83,-1289.8 276.37,-711.4 953.24,-1901 2377.51,-1870.7 787.1,16.5 1357.2,421.9 1694.6,1205 260.2,604.3 279.1,1216 279.2,1222.1 2.2,80.4 69.1,144.3 149.4,141.9 80.5,-2 144,-68.8 142,-149.2 -0.6,-26.9 -19.4,-667 -299.5,-1322.2 -380.5,-889.8 -1058.1,-1370.1 -1959.7,-1389 -19.6,-0.4 -39.3,-0.6 -58.7,-0.6" /></g><g
         transform="scale(1.07961)"
         id="g110"><path
           id="path112"
           style="fill:#371b45;fill-opacity:1;fill-rule:nonzero;stroke:none"
           d="m 13637.7,12243.4 c -33.6,0 -67.7,9.8 -97.7,30 -80.3,54 -101.5,163 -47.4,243.2 1046.2,1552.3 -84.8,3473.9 -96.3,3493.2 -49.9,82.9 -23,190.5 60,240.4 83,49.8 190.5,22.9 240.3,-60.1 51.9,-86.3 1256.2,-2134 86.7,-3869.3 -33.9,-50.2 -89.2,-77.4 -145.6,-77.4" /></g><g
         transform="scale(1.25755)"
         id="g114"><path
           id="path116"
           style="fill:#ffffff;fill-opacity:1;fill-rule:nonzero;stroke:none"
           d="m 8457.7,14648.3 c -987.25,157.4 -1004.06,972.4 -582.13,1311.3 258.72,207.8 1106.32,340.4 1222.58,-100.9 108.31,-411.3 -551.07,-448.7 -546.86,-636 2.55,-111.5 89.94,-220.9 450.72,-253.9 l -544.31,-320.5" /></g><g
         transform="scale(1.2182)"
         id="g118"><path
           id="path120"
           style="fill:#ffffff;fill-opacity:1;fill-rule:nonzero;stroke:none"
           d="m 8827.51,15714.5 c 2.71,-115.2 92.76,-228.2 465.03,-262.4 l -561.73,-330.6 c -135.11,21.6 -252.66,55 -353.96,97.7 -144.89,300.9 -43.18,657.2 203.74,855.6 156.87,126.2 523.32,225.2 823.35,193.3 -13.96,-329.5 -580.36,-377.3 -576.43,-553.6" /></g><g
         transform="scale(1.22601)"
         id="g122"><path
           id="path124"
           style="fill:#2a50b5;fill-opacity:1;fill-rule:nonzero;stroke:none"
           d="m 9332.5,16265.9 c -0.08,0.3 -0.17,0.6 -0.25,0.9 -3.02,11.4 -6.52,22.5 -10.44,33.2 4,-8.8 7.59,-20 10.69,-34.1" /></g><g
         transform="scale(1.2279)"
         id="g126"><path
           id="path128"
           style="fill:#cdc6d0;fill-opacity:1;fill-rule:nonzero;stroke:none"
           d="m 9329.65,16139.6 c -38.11,4.1 -77.28,6 -117.03,6 -40.39,0 -81.27,-2 -122.07,-5.7 82.25,71.3 145.53,160.1 186.66,160.1 11.97,0 22.07,-7.5 30.21,-25.2 3.91,-10.6 7.41,-21.7 10.43,-33.1 0.08,-0.3 0.16,-0.6 0.24,-0.9 5.38,-24.5 9.2,-57.7 11.56,-101.2" /></g><g
         transform="scale(1.21627)"
         id="g130"><path
           id="path132"
           style="fill:#cdc6d0;fill-opacity:1;fill-rule:nonzero;stroke:none"
           d="m 8843.84,15712.4 c -17.75,3.4 -35.51,7.1 -53.27,10.7 -135.17,26.8 -271.16,58.8 -412.25,87.8 46.29,111.9 120.21,212.5 215.91,289.5 103.1,82.9 315.64,37.1 499.39,134.6 29.77,15.8 57.72,36.6 83.87,59.2 41.19,3.8 82.46,5.8 123.24,5.8 40.12,0 79.67,-1.9 118.15,-6 v 0 c -13.89,-329.1 -577.91,-377.6 -577.42,-552.9 0,-0.5 0.08,-1 0.08,-1.6 0.17,-9 0.91,-18.2 2.3,-27.1" /></g><g
         transform="scale(1.26309)"
         id="g134"><path
           id="path136"
           style="fill:#371b45;fill-opacity:1;fill-rule:nonzero;stroke:none"
           d="m 8420.76,14434.3 c -7.83,0 -15.75,0.6 -23.75,1.9 -499.63,79.7 -842.14,336.3 -939.69,704 -82.82,312.3 33.69,660.3 289.93,866.2 220.18,176.9 746.35,293.6 1094.78,178.9 191.12,-63 315.97,-186.8 361.02,-358 96.67,-367.1 -233,-534.4 -410.1,-624.2 -37.37,-18.9 -89.07,-45.2 -119.16,-65.2 30.09,-33.5 127.63,-69.6 302.36,-85.6 82.33,-7.6 143.06,-80.5 135.54,-162.8 -7.6,-82.4 -80.44,-142.8 -162.86,-135.5 -382.71,35 -579.45,169.1 -584.75,398.6 -3.8,166.9 154.06,246.9 293.33,317.6 218.43,110.8 286.04,166.9 256.03,280.8 -6.8,25.8 -27.47,104.5 -165.07,149.7 -256.19,84.5 -675.56,-16.9 -813.56,-127.8 -165.37,-132.9 -240.92,-356.3 -187.98,-555.9 66.78,-251.7 314.42,-424 697.37,-485.1 81.7,-12.9 137.36,-89.7 124.3,-171.4 -11.72,-73.7 -75.37,-126.2 -147.74,-126.2" /></g><g
         transform="scale(1.17853)"
         id="g138"><path
           id="path140"
           style="fill:#ffffff;fill-opacity:1;fill-rule:nonzero;stroke:none"
           d="m 10181.2,15975.5 c -509.86,-36.9 -922.74,36.6 -1277.17,110.2 -516.78,107.1 -909.24,214.3 -1296.59,-20.9 -500.62,-304.1 -340.71,-1381.1 27.28,-1749.1 551.71,-551.7 1564.68,-883.8 1907.14,-933.5 674.24,-97.7 1579.24,-153.8 1827.04,1157.6 l -1187.7,1435.7" /></g><g
         transform="scale(1.18474)"
         id="g142"><path
           id="path144"
           style="fill:#371b45;fill-opacity:1;fill-rule:nonzero;stroke:none"
           d="m 10139.4,15732.6 c -197.69,-15.8 -397.23,-18.5 -595.08,-4.2 -197.77,13.9 -393.68,42.8 -584.6,78.7 -191.1,35.3 -377.39,78.5 -556.69,107.8 -179.07,28.8 -350.67,43.2 -502.11,10.7 -75.89,-16.2 -147.53,-43.4 -215.87,-81.9 l -25.67,-14.3 -19.12,-13.3 c -13.58,-7.7 -24.07,-20.2 -36.72,-29.4 -22.11,-23.3 -44.74,-46.7 -62.55,-77 -75.63,-116.9 -108.42,-284.6 -109.77,-452.1 -0.87,-169 27.1,-343.1 79.24,-505.7 25.94,-81.2 58.91,-159.5 98.36,-230 19.19,-35.9 41.34,-68.1 63.54,-98.8 24.51,-30.4 42.51,-52.2 77.99,-83.9 251.44,-240.7 574.41,-426.4 908.37,-576.2 167.63,-74.8 340.33,-140.7 514.37,-196.9 86.94,-26.5 175.15,-53.1 260.32,-71.4 79.09,-17.7 175.99,-30.1 265.88,-41.3 181.39,-21.7 360.21,-30.3 529.51,-8.9 169.3,20.7 326.1,75 457.9,166.8 66.1,45.6 126.6,100 181.6,162.1 54.1,62.7 104.3,131.7 147.2,207.6 88.4,150.4 153.2,321.3 215.4,497.6 l 0.5,1.6 c 14.9,41.9 60.8,64 102.8,49.1 34.5,-12.1 55.5,-45.6 53.6,-80.3 -10.9,-196.9 -50.1,-396.1 -130.7,-587.4 -39.5,-95.7 -91.4,-188.9 -156.3,-274.7 -63.9,-86.3 -141.2,-165.6 -229.5,-231.4 -177.1,-133.1 -391.8,-204.8 -599.1,-233.5 -208.6,-29.3 -413.3,-20.5 -609.8,-0.1 -99.09,11.2 -191.52,20.9 -298.8,42.5 -101.37,20.4 -195.99,47.7 -291.54,75.4 -189.15,57.5 -373.33,126.4 -553.88,205.3 -359.64,159.3 -711.27,352.8 -1014.23,636.9 -36.16,31.2 -81.75,80.6 -115.76,125.2 -33.84,46.2 -65.14,93.1 -90.96,141.1 -53.21,95.8 -93.81,194.3 -125.74,294.3 -63.47,200 -96.6,406.4 -95.4,618.3 0.75,105.9 11.77,213.4 36.64,321.5 25.39,107.7 63.98,217.2 130.53,319.3 31.53,51.4 73.36,99 118.11,143.1 24.59,20.4 47.26,42.8 74.48,60 l 39.8,26.9 36.64,20.7 c 97.48,54.8 205.81,95.9 316.18,118.9 110.57,23.6 221.57,28.7 327.4,24.1 106.05,-5.1 207.52,-19.5 305.59,-36.8 195.99,-35.1 380.17,-80.7 563.08,-117 364.64,-75.3 727,-111.9 1091.76,-90.4 h 1.1 c 88,5.2 163.5,-62 168.7,-150 5.1,-86.9 -60.5,-161.6 -146.7,-168.6" /></g><g
         transform="scale(1.17853)"
         id="g146"><path
           id="path148"
           style="fill:#ffffff;fill-opacity:1;fill-rule:nonzero;stroke:none"
           d="m 10181.2,15975.5 c -509.86,-36.9 -922.74,36.6 -1277.17,110.2 -516.78,107.1 -909.24,214.3 -1296.59,-20.9 -500.62,-304.1 -340.71,-1381.1 27.28,-1749.1 551.71,-551.7 1564.68,-883.8 1907.14,-933.5 674.24,-97.7 1579.24,-153.8 1827.04,1157.6 l -1187.7,1435.7" /></g><g
         transform="scale(1.12493)"
         id="g150"><path
           id="path152"
           style="fill:#371b45;fill-opacity:1;fill-rule:nonzero;stroke:none"
           d="m 10316.1,13982.4 c -109.7,8.7 -217,22.6 -319.45,37.5 -162.41,23.5 -468.56,107.7 -808.67,246.3 340.11,-138.6 646.26,-222.7 808.59,-246.3 102.33,-14.8 209.83,-28.8 319.53,-37.5 m -1567.12,487.1 c -275.75,144.7 -543.93,321.8 -750.43,528.1 -42.79,42.9 -82.94,94.9 -119.73,154.1 36.79,-59.1 76.91,-111.1 119.73,-153.8 206.48,-206.5 474.66,-383.7 750.43,-528.4 m -1061.62,1168.4 c -50.02,218.8 -64.1,453.9 -28.9,662.1 0.04,-0.3 0.08,-0.5 0.12,-0.8 -35.08,-208 -21.08,-442.9 28.78,-661.3" /></g><g
         transform="scale(1.12487)"
         id="g154"><path
           id="path156"
           style="fill:#cdc6d0;fill-opacity:1;fill-rule:nonzero;stroke:none"
           d="m 10538.6,13973.7 c -74.4,0 -148.6,3.5 -222,9.4 -109.7,8.7 -217.2,22.7 -319.54,37.5 -162.33,23.6 -468.5,107.7 -808.63,246.3 -143.04,58.3 -292.12,126.2 -439.02,203.3 -275.78,144.7 -543.97,321.9 -750.47,528.4 -42.82,42.8 -82.94,94.8 -119.74,153.8 -83.53,134.2 -149.89,304.5 -191.46,486.3 -49.87,218.4 -63.86,453.3 -28.78,661.3 47.59,-334.3 179.11,-655.2 353.44,-830 599.92,-599.9 1700.98,-960.6 2073.5,-1014.8 177.3,-25.6 369.4,-48.7 562.5,-48.7 476.9,0 959.9,140.6 1242.6,730.2 -214.4,-958.6 -787.9,-1163 -1352.4,-1163" /></g><g
         transform="scale(1.18351)"
         id="g158"><path
           id="path160"
           style="fill:#371b45;fill-opacity:1;fill-rule:nonzero;stroke:none"
           d="m 10149.9,15748.9 c -198.06,-13.5 -397.63,-13.5 -595.18,2.5 -197.55,15.3 -393.07,45.4 -583.69,82.6 -190.7,36.6 -376.93,81 -556.82,111.9 -179.68,30.5 -353.5,46.2 -508.58,12.8 -77.63,-16.5 -151.16,-44.2 -221,-83.5 l -26.25,-14.7 -20.15,-14 c -14.34,-8.1 -25.4,-21 -38.67,-30.7 -23.26,-24.4 -46.91,-49 -65.42,-80.3 -39.56,-59.7 -67,-134.2 -85.38,-213 -18.19,-79.1 -27.3,-163.3 -27.77,-248.9 -1.32,-171.4 27.69,-347.3 80.79,-511.7 26.49,-82.3 60.02,-161.3 100.33,-233.1 19.62,-36.5 42.32,-69.3 65.17,-100.6 24.98,-31.1 44.56,-53.9 80.32,-85.3 255.73,-241.2 582.03,-423.3 918.07,-570.3 168.48,-73.8 341.61,-139.2 516.6,-193.7 87.28,-25.9 175.75,-51.8 261.17,-69.2 79.17,-16.7 176.26,-28.6 266.16,-40 181.49,-21.7 360.2,-29.3 529.5,-9.3 169.6,19.6 326.1,73.8 459.4,163.9 66.4,45.6 126.9,100.4 182.4,162.3 54.5,62.7 104.9,131.9 147.9,208 88.6,150.8 153.1,322.2 213.8,499 l 0.4,1.5 c 14.5,42.1 60.2,64.5 102.3,50.1 35.2,-12.1 56.6,-45.9 54.3,-81.3 -12.5,-196.7 -52,-395.7 -132.7,-587 -39.5,-95.7 -91.3,-188.9 -156,-274.8 -63.6,-86.7 -141,-165.8 -229.2,-231.6 -175.7,-134.9 -391.2,-206.9 -598.6,-236.9 -209,-30.7 -414.23,-20.9 -611.02,-0.5 -99.11,11.1 -191.71,21.3 -298.94,44 -101.39,21.2 -195.86,49.2 -291.25,77.6 -188.76,59.3 -372.7,129 -552.85,209.1 -358.29,162.2 -707.28,359.8 -1006.56,644.1 -35.92,31.4 -80.04,79.9 -113.6,123.9 -33.32,45.6 -64.05,92 -89.55,139.5 -52.38,94.8 -92.46,192.5 -123.95,291.8 -62.65,198.6 -94.82,403.5 -94.06,613.5 0.76,104.9 11.55,211.3 36,318 24.94,106.2 62.98,214.1 128.11,314.1 30.89,50.4 71.77,96.9 115.44,140.2 23.97,19.8 46.07,41.8 72.68,58.5 l 38.8,26.3 36.12,20.5 c 96.14,54 202.79,94.6 311.59,117.3 109,23.4 218.69,28.5 323.58,24.2 105.17,-4.5 206.18,-18.1 304.14,-34.7 195.69,-33.8 380.57,-78.1 564.17,-113.2 183.36,-35.8 365.19,-63.6 547.7,-77.8 182.42,-14.6 365.1,-14.6 547.15,-2.2 l 1.3,0.1 c 88,6 164.3,-60.5 170.3,-148.6 6,-88.1 -60.4,-164.4 -148.5,-170.4" /></g><g
         transform="scale(1.25828)"
         id="g162"><path
           id="path164"
           style="fill:#ffffff;fill-opacity:1;fill-rule:nonzero;stroke:none"
           d="m 10705.9,14499.4 c 0,0 118.6,1403.6 -675.8,1616.8 -684.66,183.8 -869.6,-56.6 -883.74,-206.9 -24.32,-256.6 526.43,-418.3 534.93,-503.3 8.59,-85.1 -416.75,-569.9 -25.43,-871.9" /></g><g
         transform="scale(1.26221)"
         id="g166"><path
           id="path168"
           style="fill:#371b45;fill-opacity:1;fill-rule:nonzero;stroke:none"
           d="m 10523.3,14466.9 c 2,40.6 2.5,89 2.1,133.9 -0.3,45.8 -2.2,91.8 -4.3,137.6 -4.4,91.6 -12.5,182.8 -25.2,272.6 -24.3,179.4 -67.4,354.9 -137.2,508.3 -69.4,153.6 -170.6,278.6 -299.3,344.1 -16.7,7 -33.2,14.5 -49.6,22.2 l -52.33,17.2 c -42.39,10.3 -86.83,22 -129.77,30.9 -86.6,17.4 -172.48,28.6 -254.16,30.7 -79.86,0.6 -158.14,-8.6 -210.35,-34 -54.11,-23.2 -77.4,-58.8 -81.76,-84.3 -0.08,-4.3 -1.43,-2.8 -0.08,-7 1.35,-3.7 2.93,-10.2 9.19,-19.4 11.81,-18.6 35.5,-43.6 64.65,-67.6 59.5,-49.1 136.98,-94.8 220.25,-142.7 l 65.44,-38.5 c 23.21,-14.5 46.59,-28.6 77.09,-52.7 6.73,-5 17.35,-15 25.58,-22.7 4.84,-4.7 11.18,-11.8 16.41,-17.9 2.85,-3.5 4.99,-6 8.32,-10.3 3.72,-5.4 7.36,-10.9 10.69,-16.5 3.41,-5.7 6.58,-11.4 9.51,-17.1 3.17,-6.1 7.68,-18.5 10.38,-28 2.93,-10.3 5.14,-20.8 6.41,-31.1 0.72,-8.5 0.8,-16.3 0.64,-24.5 -0.24,-8.1 -0.95,-16.3 -1.98,-24.2 l -2.7,-13.2 c -1.82,-7.8 -4.51,-18.4 -6.34,-23.5 -7.76,-23 -15.13,-38.5 -21.63,-51.9 l -18.85,-37.3 c -47.93,-88.2 -88.34,-162.5 -115.51,-239.4 -27.26,-76 -42.94,-145.3 -40.72,-208.7 1.11,-63.3 24.79,-128.5 73.36,-203.7 l 3.17,-4.7 c 23.21,-36 12.91,-84.1 -23.05,-107.3 -22.03,-14.3 -49.05,-15.8 -71.63,-6.7 -52.37,21.7 -101.33,56.2 -144.19,101.5 -42.38,45.6 -75.58,103.8 -94.59,166 -38.27,126.1 -20.92,254.1 13.54,359.4 34.23,105.9 84.62,202.3 126.21,284.3 l 13.15,27.6 c 3.8,8.2 5.86,14.6 5.86,14.6 0.32,0.6 -1.42,-4.1 -1.66,-6 l -0.63,-4.5 c -0.95,-4.9 -1.51,-10 -1.59,-15.1 -0.08,-5.2 0.24,-10 0.95,-15.5 0.48,-7.4 1.83,-15 3.97,-22.4 1.66,-6.6 5.86,-16 7.52,-19.5 1.35,-3.2 2.93,-6.3 4.76,-9.5 1.82,-3 3.88,-5.9 6.02,-8.7 l 2.37,-3.4 c 1.19,-1.7 3.73,-4.1 4.28,-4.7 -0.95,0.1 1.35,-1.1 -1.74,1 -7.45,5.5 -25.2,16.7 -43.18,26.9 l -59.9,33.2 c -84.37,46.2 -176.04,94.6 -267.62,165.4 -45.63,36.2 -92.54,78.4 -134.45,140 -20.84,30.5 -39.61,68.2 -52.05,110.5 -13.07,42 -15.93,92.7 -10.61,135.9 10.53,83.5 46.58,157.4 95.86,215.8 49.35,57.6 110.12,101.9 170.73,128.6 15.29,8.1 30.42,14 45.63,19.1 l 45.64,16 c 29.79,7.3 60.21,15.2 89.68,20.4 29,3.5 58.71,8.4 87.31,10.4 l 85.01,3.2 c 111,-2 216.45,-16.6 318.65,-36.8 51.26,-10.6 100.06,-23.2 151.24,-35.7 l 84.9,-27.6 82.2,-36.8 c 107.5,-54.4 200.7,-133.4 274.4,-221.9 74.1,-88.7 130.3,-186.1 174.5,-285 87.9,-198.6 129.4,-403.5 153.1,-605.4 11,-101.4 16.7,-202.3 18.2,-303.2 0.8,-50.3 0,-100.7 -1.9,-151.2 -1.9,-51.3 -4.4,-99.2 -9.6,-154.7 -7.8,-82.3 -81,-142.9 -163.3,-135 -80,7.5 -139.3,76.6 -135.6,156 l 0.2,4.2" /></g><g
         transform="scale(1.17208)"
         id="g170"><path
           id="path172"
           style="fill:#371b45;fill-opacity:1;fill-rule:nonzero;stroke:none"
           d="m 9380.33,15962.1 c -12.02,-4.3 -30.54,-16.6 -49.56,-34.9 -19.12,-18.7 -38.31,-44.4 -56.49,-72.1 -36.43,-56.3 -67.23,-124.7 -93.68,-195.2 -52.81,-142.5 -88.9,-297.5 -113.39,-454.1 -24.57,-156.9 -37.62,-316.8 -37.96,-476.1 -0.17,-159.1 11.35,-319.2 47.44,-470 l 0.25,-1.1 c 10.32,-43.4 -16.38,-87 -59.72,-97.4 -41.13,-9.8 -82.51,14.1 -95.47,53.5 -54.52,166.7 -80.2,336.9 -94.11,506.9 -13.56,170.1 -13.56,340.8 -0.94,511.6 12.8,170.8 37.2,341.7 85.15,513.5 24.66,86 54.09,172.3 99.91,259 23.46,43.3 49.82,86.8 85.74,129.6 36.52,42.4 81.05,85.1 143.08,117.8 l 10.24,5.3 c 79.26,41.6 177.29,11.1 218.84,-68.2 41.64,-79.3 11.09,-177.3 -68.17,-218.9 -6.65,-3.4 -14.33,-6.8 -21.16,-9.2" /></g><g
         transform="scale(1.13979)"
         id="g174"><path
           id="path176"
           style="fill:#371b45;fill-opacity:1;fill-rule:nonzero;stroke:none"
           d="m 8047.03,16283.3 c 107.63,10.6 212.39,15.4 319.35,16.3 106.59,0.4 213.76,-3.3 321.76,-14.9 108.03,-11.5 217,-29.9 326.93,-65.9 54.84,-18.3 110.02,-41 164.42,-72.8 53.95,-31.6 108,-73.2 152.31,-131 l 4.38,-5.8 c 42.03,-54.8 31.76,-133.2 -22.98,-175.2 -54.84,-42 -133.19,-31.6 -175.21,23.1 -3.25,4.3 -6.5,9.3 -9.21,13.8 -32.03,55.7 -107.13,107.2 -191.27,144.3 -84.92,37.8 -180.45,64.8 -277.96,85 -97.75,20.6 -198.44,34.2 -299.8,43.9 -101.04,9.4 -204.68,14.9 -305,15 h -1.66 c -34.44,0 -62.23,27.9 -62.23,62.3 0.03,32.2 24.81,58.7 56.17,61.9" /></g><g
         transform="scale(1.0934)"
         id="g178"><path
           id="path180"
           style="fill:#371b45;fill-opacity:1;fill-rule:nonzero;stroke:none"
           d="m 8325.83,16291 c 112.27,9 219.53,8.7 329.6,3.2 109.47,-5.8 219.11,-18.3 328.53,-38.3 109.34,-20.9 218.12,-51.1 325.4,-91.3 106.73,-42 210.54,-97.4 308.3,-167.5 58.45,-41.9 71.8,-123 29.91,-181.4 -41.8,-58.3 -123.01,-71.8 -181.36,-30 -3.38,2.5 -6.68,5.2 -9.79,7.9 l -3.38,2.8 c -69.6,61.1 -148.71,115.6 -235.87,160.7 -87.97,43.5 -181.35,80.4 -278.53,109.6 -97.44,28.2 -197.79,50.3 -299.64,66.2 -101.25,15.6 -206.56,26.3 -306.69,28.5 l -2.77,0.1 c -35.81,0.9 -64.19,30.5 -63.41,66.3 0.74,33.5 27.08,60.6 59.7,63.2" /></g><g
         transform="scale(1.98947)"
         id="g182"><path
           id="path184"
           style="fill:#ffffff;fill-opacity:1;fill-rule:nonzero;stroke:none"
           d="m 11904.9,10526.8 c 1328.5,-456.2 1797,-1797.87 1993,-1801.9 196.1,-4.07 322.4,331.7 492.9,553.57 176.9,230.21 387.7,207.44 687.5,184.67 220.5,-16.74 489,-33.42 827.5,50.32 394.2,97.56 -11.9,-1086.33 -186.2,-1534.64 -226.8,-583.67 -721.7,-1300.24 -1641.6,-1281.04 -1340.3,28 -1380.8,1676.02 -1380.8,1676.02 l -792.3,2153" /></g><g
         transform="scale(1.89841)"
         id="g186"><path
           id="path188"
           style="fill:#cdc6d0;fill-opacity:1;fill-rule:nonzero;stroke:none"
           d="m 14791.1,7118.27 c -11.8,0 -23.9,0.1 -35.8,0.37 -244.2,5.11 -457.9,65 -640,178.89 14.7,61.1 17.6,125.05 8.1,189.26 -2.3,15.91 -5.4,31.55 -9.2,46.82 116.2,-71.05 262.9,-114.56 451.6,-118.3 23.9,-0.48 47.8,-0.74 71.6,-0.74 373.4,0 731,62.42 907.2,307.15 123.6,171.51 -15.2,396.44 -155.3,614.72 0.7,-0.57 1.5,-1.1 2.2,-1.68 110.5,-83.02 244.5,-127.79 373.8,-145.75 59.6,-8.38 118.7,-11.75 177,-11.75 69.1,0 137.1,4.74 203.6,11.64 51.6,5.9 100.4,11.06 154.1,20.49 -224,-475.4 -675.2,-1091.12 -1508.9,-1091.12 m -979.1,760 c -34.6,13.49 -71.1,23.13 -108.8,28.61 -9.9,46.46 -20.1,92.81 -30.9,139.06 -68.2,321.8 -157.4,639.85 -281.7,945.84 205.5,-266.54 236.4,-751.52 421.4,-1113.51 m -493.7,1172.14 c -2.4,8.43 -4.9,16.91 -7.4,25.28 9,-7.53 17.7,-15.38 26.1,-23.54 -1.6,0.16 -3.2,0.21 -4.8,0.21 -2.4,0 -4.8,-0.16 -7.2,-0.53 -2.3,-0.31 -4.5,-0.79 -6.7,-1.42" /></g><g
         transform="scale(1.9799)"
         id="g190"><path
           id="path192"
           style="fill:#371b45;fill-opacity:1;fill-rule:nonzero;stroke:none"
           d="m 14182.6,6634.24 c -12.8,0 -25.6,0.15 -38.5,0.4 -591,12.38 -1035.2,327.24 -1284.6,910.56 -183.7,429.46 -196,849.08 -196.4,866.71 -1.3,52.78 40.4,96.57 93.1,97.88 0.8,0 1.6,0 2.5,0 51.6,0 94.1,-41.21 95.4,-93.19 0.1,-3.88 12.4,-404.91 183.1,-801 221.1,-513.36 594.8,-779.13 1110.9,-789.94 11.4,-0.25 22.9,-0.35 34.2,-0.35 910.6,0 1345.3,766 1524.3,1226.68 42,108.04 185.9,488.26 275.8,845.5 124.6,494.92 50.2,570.48 48.7,571.8 v 0 c -0.3,0 -7.5,1.92 -25.5,-2.58 -367.3,-90.91 -654.5,-68.94 -885.4,-51.26 -306.8,23.38 -448.3,26.41 -584,-150.32 -46.8,-60.96 -91.9,-133.74 -135.4,-204.15 -119.6,-193.44 -243.6,-393.81 -437.6,-389.41 -109.1,2.22 -189.1,119.9 -348.5,354.41 -293.1,430.98 -783.5,1152.42 -1683.4,1461.42 -49.9,17.1 -76.4,71.4 -59.3,121.3 17.2,50 71.6,76.6 121.4,59.4 960,-329.7 1493,-1113.56 1779.3,-1534.69 77.4,-113.89 164.7,-242.23 204,-270.37 83,9.7 177.7,162.79 261.6,298.4 46,74.5 93.6,151.48 146.3,220.11 204.6,266.18 457.3,246.79 750.2,224.41 217.1,-16.62 487.5,-37.27 824.9,46.27 118,29.04 185.8,-23.59 215.7,-57.63 66.4,-75.41 124.6,-230.98 -14.2,-769.49 -93,-360.67 -235.2,-735.94 -276.5,-842.37 -99.3,-255.57 -281.9,-620.23 -587.4,-905.95 -314.2,-293.76 -689.1,-442.55 -1114.7,-442.55" /></g><g
         transform="scale(1.69877)"
         id="g194"><path
           id="path196"
           style="fill:#371b45;fill-opacity:1;fill-rule:nonzero;stroke:none"
           d="m 16114.9,7780.97 c -35.8,0 -71,17.25 -92.5,49.15 -743.2,1102.86 22.1,2404.18 55,2459.08 31.7,52.7 100.1,69.8 152.8,38.1 52.7,-31.6 69.8,-99.9 38.2,-152.7 -7.3,-12.2 -724.5,-1235.91 -61.3,-2220.04 34.4,-50.97 20.9,-120.2 -30.1,-154.58 -19.1,-12.83 -40.7,-19.01 -62.1,-19.01" /></g><g
         transform="scale(2.00771)"
         id="g198"><path
           id="path200"
           style="fill:#ffffff;fill-opacity:1;fill-rule:nonzero;stroke:none"
           d="m 15671.1,9175.15 c 618.4,98.62 628.9,609.05 364.7,821.34 -162.1,130.21 -693.1,213.21 -765.8,-63.16 -67.9,-257.66 345.1,-281.07 342.5,-398.37 -1.6,-69.88 -56.3,-138.41 -282.3,-159.08 l 340.9,-200.73" /></g><g
         transform="scale(1.96753)"
         id="g202"><path
           id="path204"
           style="fill:#ffffff;fill-opacity:1;fill-rule:nonzero;stroke:none"
           d="m 15931.3,9729.72 c -1.7,-71.35 -57.4,-141.29 -288,-162.48 l 347.8,-204.73 c 83.7,13.42 156.5,34.11 219.2,60.53 89.7,186.28 26.7,406.91 -126.1,529.76 -97.1,78.1 -324,139.4 -509.8,119.7 8.6,-204.08 359.3,-233.65 356.9,-342.78" /></g><g
         transform="scale(1.88162)"
         id="g206"><path
           id="path208"
           style="fill:#2a50b5;fill-opacity:1;fill-rule:nonzero;stroke:none"
           d="m 16293,10598.3 c 2,9.2 4.3,16.6 7,22.3 -2.6,-7 -4.8,-14.2 -6.8,-21.6 -0.1,-0.3 -0.2,-0.5 -0.2,-0.7" /></g><g
         transform="scale(1.89796)"
         id="g210"><path
           id="path212"
           style="fill:#cdc6d0;fill-opacity:1;fill-rule:nonzero;stroke:none"
           d="m 16145.3,10441.7 c 1.5,28.1 4,49.5 7.4,65.4 0.1,0.2 0.2,0.4 0.2,0.6 2,7.4 4.2,14.6 6.8,21.5 5.3,11.4 11.8,16.2 19.5,16.2 26.6,0 67.5,-57.4 120.8,-103.5 -26.4,2.4 -52.9,3.6 -79,3.6 -25.7,0 -51.1,-1.2 -75.7,-3.8" /></g><g
         transform="scale(1.95759)"
         id="g214"><path
           id="path216"
           style="fill:#cdc6d0;fill-opacity:1;fill-rule:nonzero;stroke:none"
           d="m 16010.7,9762.26 c 0.9,5.62 1.3,11.24 1.5,16.86 0,0.46 0,0.87 0,1.28 -0.4,108.65 -350.1,138.94 -358.8,343.2 v 0 c 23.9,2.6 48.6,3.8 73.4,3.8 25.4,0 51,-1.3 76.7,-3.6 16.2,-14.1 33.6,-27 52.1,-36.9 114.1,-60.5 246.2,-32.1 310.3,-83.6 59.4,-47.79 105.3,-110.32 134.1,-179.89 -87.7,-17.93 -172.2,-37.8 -256.2,-54.51 -11,-2.24 -22.1,-4.49 -33.1,-6.64" /></g><g
         transform="scale(2.01131)"
         id="g218"><path
           id="path220"
           style="fill:#371b45;fill-opacity:1;fill-rule:nonzero;stroke:none"
           d="m 15642.9,9064.65 c -45.4,0 -85.4,33.02 -92.7,79.26 -8.2,51.31 26.7,99.53 78,107.69 240.5,38.33 396.1,146.52 438,304.63 33.2,125.34 -14.2,265.59 -118.1,349.07 -86.6,69.61 -350,133.3 -510.9,80.3 -86.4,-28.44 -99.4,-77.81 -103.6,-94.02 -18.9,-71.55 23.6,-106.8 160.8,-176.35 87.4,-44.4 186.5,-94.67 184.2,-199.48 -3.4,-144.08 -126.9,-228.3 -367.3,-250.28 -51.7,-4.77 -97.5,33.31 -102.2,85.07 -4.8,51.71 33.4,97.5 85.1,102.22 109.7,10.04 170.9,32.77 189.9,53.75 -18.9,12.58 -51.4,29.08 -74.9,40.97 -111.2,56.42 -318.3,161.48 -257.5,392.03 28.3,107.49 106.7,185.19 226.7,224.69 218.7,72.1 549.2,-1.2 687.5,-112.3 161,-129.25 234.1,-347.86 182.1,-543.9 -61.3,-230.95 -276.4,-392.14 -590.2,-442.15 -4.9,-0.8 -10,-1.2 -14.9,-1.2" /></g><g
         transform="scale(2.06891)"
         id="g222"><path
           id="path224"
           style="fill:#ffffff;fill-opacity:1;fill-rule:nonzero;stroke:none"
           d="m 14548.7,9100.28 c 290.5,-21.03 525.7,20.83 727.6,62.74 294.3,61.05 517.9,122.09 738.5,-11.89 285.2,-173.23 194.1,-786.74 -15.5,-996.37 -314.3,-314.27 -891.3,-503.45 -1086.4,-531.73 -384.1,-55.68 -899.6,-87.63 -1040.7,659.43 l 676.5,817.82" /></g><g
         transform="scale(2.06853)"
         id="g226"><path
           id="path228"
           style="fill:#371b45;fill-opacity:1;fill-rule:nonzero;stroke:none"
           d="m 14558,9193.18 c 209,-12.28 416.5,8.65 625.3,51.77 104.8,20.79 210.3,46.9 322.6,67.06 56.1,9.91 114.2,18.12 175,21.07 60.6,2.62 124.2,-0.33 187.4,-13.82 63.3,-13.2 125.3,-36.69 181.2,-68.12 l 21,-11.79 22.7,-15.43 c 15.6,-9.86 28.6,-22.72 42.7,-34.32 25.6,-25.38 49.6,-52.6 67.7,-82.04 38.1,-58.44 60.2,-121.24 74.7,-182.88 14.3,-61.88 20.6,-123.52 21,-184.14 0.7,-121.3 -18.3,-239.5 -54.7,-354.12 -18.2,-57.28 -41.5,-113.65 -71.9,-168.52 -14.8,-27.51 -32.8,-54.39 -52.2,-80.78 -19.4,-25.63 -45.5,-53.91 -66.2,-71.75 -173.6,-162.72 -375,-273.57 -580.9,-364.8 -103.4,-45.2 -208.9,-84.64 -317.3,-117.61 -54.7,-15.86 -108.9,-31.48 -166.9,-43.13 -61.5,-12.42 -114.4,-17.93 -171.2,-24.41 -112.5,-11.65 -229.7,-16.63 -349.2,0.1 -118.7,16.48 -241.8,57.57 -343.1,133.76 -50.6,37.66 -94.9,83.06 -131.5,132.56 -37.2,49.12 -66.8,102.49 -89.6,157.26 -46.1,109.6 -68.5,223.69 -74.8,336.38 -1.4,25.47 18.1,47.23 43.5,48.63 20.9,1.16 39.4,-11.85 46.1,-30.65 l 0.3,-0.97 c 35.6,-100.94 72.7,-198.83 123.3,-284.98 24.6,-43.46 53.4,-83.01 84.3,-118.88 31.6,-35.53 66.2,-66.76 104.1,-92.87 75.4,-52.55 165.2,-83.68 262.2,-95.57 97,-12.23 199.4,-7.3 303.3,5.12 51.5,6.43 107,13.59 152.2,23.69 48.9,10.44 99.4,25.67 149.1,40.9 99.8,32.15 198.6,69.9 294.7,112.74 191.2,85.81 376.2,192.11 520.2,330.04 20.4,18.13 30.7,30.65 44.7,48.1 12.7,17.55 25.4,35.92 36.4,56.51 22.6,40.42 41.5,85.23 56.3,131.74 29.9,93.06 45.9,192.84 45.4,289.62 -0.8,95.96 -19.5,192.02 -62.9,258.98 -10.2,17.31 -23.1,30.79 -35.8,44.09 -7.2,5.27 -13.3,12.42 -21,16.77 l -11,7.69 -14.7,8.22 c -39.1,22 -80.1,37.61 -123.6,46.84 -86.8,18.62 -185,10.4 -287.6,-6.09 -102.7,-16.82 -209.4,-41.52 -318.8,-61.73 -109.4,-20.6 -221.6,-37.13 -334.8,-45.11 -113.4,-8.17 -227.6,-6.62 -340.9,2.47 -50.3,3.96 -87.9,48.05 -83.9,98.38 4,49.7 47,86.92 96.4,84.07 l 0.7,-0.05" /></g><g
         transform="scale(2.06891)"
         id="g230"><path
           id="path232"
           style="fill:#ffffff;fill-opacity:1;fill-rule:nonzero;stroke:none"
           d="m 14548.7,9100.28 c 290.5,-21.03 525.7,20.83 727.6,62.74 294.3,61.05 517.9,122.09 738.5,-11.89 285.2,-173.23 194.1,-786.74 -15.5,-996.37 -314.3,-314.27 -891.3,-503.45 -1086.4,-531.73 -384.1,-55.68 -899.6,-87.63 -1040.7,659.43 l 676.5,817.82" /></g><g
         transform="scale(2.05659)"
         id="g234"><path
           id="path236"
           style="fill:#371b45;fill-opacity:1;fill-rule:nonzero;stroke:none"
           d="m 14826.7,7648.1 c 60.3,4.81 119.4,12.45 175.6,20.62 77.3,11.18 214.1,47.5 370.9,106.68 -156.8,-59.22 -293.7,-95.55 -370.9,-106.73 -56.3,-8.17 -115.3,-15.76 -175.6,-20.57 m 955.6,320.68 c 115.5,67.93 224.5,146.45 312.9,234.85 21.8,21.79 42.3,47.95 61.3,77.51 -19,-29.61 -39.5,-55.82 -61.3,-77.65 -88.4,-88.3 -197.4,-166.83 -312.9,-234.71 m 374.5,312.75 c 0,0.1 0.1,0.19 0.1,0.29 0,-0.1 -0.1,-0.19 -0.1,-0.29 m 110.6,281.15 c 25.6,116.94 32.5,241.8 13.7,352.76 0.1,0.15 0.1,0.29 0.1,0.44 18.8,-111.06 11.9,-236.12 -13.8,-353.2" /></g><g
         transform="scale(2.05657)"
         id="g238"><path
           id="path240"
           style="fill:#cdc6d0;fill-opacity:1;fill-rule:nonzero;stroke:none"
           d="m 14706.2,7643.11 c -308.7,0 -622.5,111.79 -739.7,636.11 154.6,-322.48 418.8,-399.4 679.7,-399.4 105.5,0 210.7,12.64 307.7,26.64 203.7,29.67 805.9,226.98 1134,555.1 95.4,95.6 167.4,271.09 193.4,453.96 18.7,-110.96 11.9,-235.83 -13.8,-352.77 -23.1,-105.47 -61.6,-204.47 -110.5,-280.86 0,-0.09 -0.1,-0.19 -0.1,-0.29 -0.1,-0.14 -0.2,-0.29 -0.2,-0.39 -19.1,-29.56 -39.6,-55.72 -61.4,-77.5 -88.4,-88.4 -197.4,-166.93 -312.9,-234.86 -135,-79.41 -278.9,-144.27 -409.1,-193.38 -156.8,-59.18 -293.6,-95.5 -370.8,-106.68 -56.3,-8.17 -115.3,-15.81 -175.6,-20.62 -39.9,-3.16 -80.2,-5.06 -120.7,-5.06" /></g><g
         transform="scale(2.0672)"
         id="g242"><path
           id="path244"
           style="fill:#371b45;fill-opacity:1;fill-rule:nonzero;stroke:none"
           d="m 14567.4,9199.1 c 104.3,-7.11 208.9,-7.16 313.2,1.26 104.5,8.12 208.7,24.04 313.7,44.55 105.1,20.08 210.9,45.47 323,64.82 56,9.53 113.9,17.27 174.1,19.79 60,2.51 122.8,-0.39 185.2,-13.74 62.3,-13.06 123.4,-36.23 178.4,-67.29 l 20.7,-11.66 22.2,-15.04 c 15.2,-9.63 27.9,-22.21 41.6,-33.53 25,-24.76 48.5,-51.37 66.1,-80.25 37.3,-57.23 59,-119 73.3,-179.86 14,-61.04 20.2,-122 20.7,-182.08 0.4,-120.16 -18,-237.52 -53.9,-351.2 -18,-56.89 -40.9,-112.76 -70.9,-167.03 -14.7,-27.24 -32.3,-53.8 -51.3,-79.87 -19.2,-25.21 -44.5,-52.97 -65.1,-71.02 -171.3,-162.68 -371.1,-275.78 -576.2,-368.76 -103.2,-45.81 -208.5,-85.62 -316.6,-119.62 -54.5,-16.31 -108.7,-32.32 -166.7,-44.46 -61.4,-13.01 -114.4,-18.87 -171.2,-25.2 -112.6,-11.66 -230.1,-17.27 -349.8,0.29 -118.7,17.17 -242,58.38 -342.7,135.64 -50.5,37.68 -94.8,82.96 -131.2,132.59 -37.1,49.2 -66.7,102.56 -89.3,157.37 -46.2,109.47 -68.8,223.39 -76,336.01 -1.6,25.44 17.7,47.35 43.1,49 21.2,1.31 40,-11.9 46.5,-31.06 l 0.4,-0.92 c 34.7,-101.2 71.6,-199.35 122.3,-285.7 24.6,-43.53 53.5,-83.15 84.7,-119.05 31.8,-35.45 66.4,-66.8 104.4,-92.92 76.4,-51.57 165.9,-82.63 263,-93.85 97,-11.47 199.2,-7.11 303.1,5.32 51.6,6.53 107.1,13.35 152.5,22.93 48.9,10.01 99.5,24.77 149.5,39.62 100.2,31.15 199.3,68.59 295.8,110.87 192.3,84.17 379.2,188.42 525.5,326.48 20.5,18 31.7,31.06 46.1,48.86 13,17.95 26,36.72 37.2,57.57 23.1,41.07 42.3,86.44 57.5,133.46 30.3,94.14 47,194.86 46.3,292.96 -0.3,49 -5.5,97.23 -16,142.56 -10.5,45.08 -26.2,87.7 -48.8,121.9 -10.7,17.9 -24.1,32.03 -37.5,45.91 -7.6,5.61 -13.9,13.01 -22.1,17.66 l -11.6,8.03 -15,8.37 c -40,22.44 -82.1,38.41 -126.5,47.84 -88.8,19.11 -188.3,10.11 -291.2,-7.35 -103,-17.66 -209.6,-43.11 -318.8,-64.05 -109.1,-21.29 -221,-38.56 -334.1,-47.36 -113.1,-9.05 -227.4,-9.1 -340.8,-1.31 -50.4,3.44 -88.5,47.12 -85,97.53 3.4,50.4 47.1,88.47 97.5,85.04 l 0.7,-0.05" /></g><g
         transform="scale(1.87858)"
         id="g246"><path
           id="path248"
           style="fill:#ffffff;fill-opacity:1;fill-rule:nonzero;stroke:none"
           d="m 15239.1,9711.79 c 0,0 -79.5,940.11 452.7,1082.91 458.6,123.1 582.4,-37.9 591.9,-138.6 16.3,-171.9 -352.6,-280.1 -358.3,-337.1 -5.7,-57 279.2,-381.72 17,-584" /></g><g
         transform="scale(1.88962)"
         id="g250"><path
           id="path252"
           style="fill:#371b45;fill-opacity:1;fill-rule:nonzero;stroke:none"
           d="m 15050.3,9646.65 c -3.5,37.04 -5.1,69.01 -6.4,103.3 -1.3,33.71 -1.8,67.32 -1.3,101.03 1.1,67.36 4.8,134.79 12.1,202.52 16,134.8 43.6,271.7 102.4,404.4 29.4,66 67,131.1 116.6,190.3 49.1,59.1 111.4,112 183.2,148.3 l 54.9,24.5 56.7,18.5 c 34.2,8.3 66.8,16.8 101,23.8 68.3,13.5 138.8,23.3 212.9,24.6 l 56.8,-2.1 c 19.1,-1.4 38.9,-4.6 58.3,-7 19.7,-3.4 40,-8.7 59.9,-13.6 l 30.5,-10.7 c 10.1,-3.4 20.2,-7.3 30.4,-12.7 40.6,-17.9 81.2,-47.5 114.1,-86 32.9,-39 57,-88.3 64.1,-144.1 3.5,-28.9 1.5,-62.7 -7.1,-90.7 -8.4,-28.3 -20.9,-53.5 -34.8,-73.9 -28,-41.1 -59.3,-69.4 -89.8,-93.5 -61.2,-47.3 -122.4,-79.6 -178.8,-110.5 l -40,-22.2 c -12,-6.8 -23.9,-14.2 -28.8,-17.9 -2.1,-1.4 -0.6,-0.6 -1.2,-0.7 0.3,0.4 2.1,2 2.8,3.1 l 1.7,2.3 c 1.4,1.9 2.8,3.8 4,5.8 1.2,2.1 2.2,4.2 3.1,6.4 1.1,2.3 4,8.6 5.1,13 1.4,4.9 2.3,10 2.6,15 0.5,3.6 0.7,6.8 0.7,10.3 -0.1,3.4 -0.5,6.8 -1.1,10.1 l -0.4,3 c -0.2,1.3 -1.4,4.4 -1.2,4 0,0 1.4,-4.2 4,-9.8 l 8.8,-18.4 c 27.7,-54.8 61.4,-119.1 84.3,-189.9 23,-70.32 34.6,-155.79 9,-240.04 -12.7,-41.49 -34.9,-80.44 -63.2,-110.87 -28.7,-30.27 -61.3,-53.34 -96.3,-67.79 -26.4,-10.9 -56.7,1.75 -67.6,28.21 -6.7,16.19 -4.5,33.87 4.2,47.57 l 2.2,3.5 c 32.5,50.22 48.4,93.77 49.1,136.05 1.5,42.39 -9,88.65 -27.2,139.4 -18.2,51.27 -45.2,101.07 -77.2,159.97 l -12.6,24.8 c -4.4,9 -9.2,19.3 -14.5,34.7 -1.2,3.4 -3,10.5 -4.1,15.7 l -1.8,8.8 c -0.7,5.3 -1.2,10.8 -1.4,16.2 -0.1,5.5 -0.1,10.7 0.5,16.3 0.9,6.9 2.2,14 4.2,20.8 1.8,6.3 4.9,14.6 7,18.7 1.9,3.9 4,7.7 6.3,11.4 2.3,3.8 4.6,7.5 7.2,11.1 2.1,2.9 3.6,4.5 5.5,6.8 3.5,4.1 7.7,8.9 11,12 5.4,5.2 12.5,11.9 17,15.1 20.4,16.2 36,25.6 51.6,35.3 l 43.7,25.7 c 55.6,32.1 107.4,62.5 147.1,95.3 19.4,16 35.3,32.8 43.1,45.1 4.3,6.2 5.4,10.6 6.3,13.1 0.8,2.8 -0.1,1.8 -0.1,4.6 -2.9,17.1 -18.5,40.8 -54.7,56.3 -34.8,17 -87.1,23.2 -140.5,22.7 -54.5,-1.3 -111.9,-8.9 -169.7,-20.5 -28.8,-5.9 -58.4,-13.8 -86.7,-20.6 l -35,-11.5 c -10.9,-5.1 -22,-10.1 -33.1,-14.9 -86,-43.7 -153.6,-127.2 -200,-229.8 -46.6,-102.4 -75.4,-219.6 -91.5,-339.5 -8.5,-59.97 -14,-120.94 -16.9,-182.11 -1.4,-30.65 -2.6,-61.29 -2.8,-91.87 -0.3,-30.01 0,-62.35 1.3,-89.44 l 0.1,-2.65 c 2.7,-55.19 -40,-102.13 -95.2,-104.73 -53.5,-2.59 -99.3,37.74 -104.4,90.55" /></g><g
         transform="scale(1.94896)"
         id="g254"><path
           id="path256"
           style="fill:#371b45;fill-opacity:1;fill-rule:nonzero;stroke:none"
           d="m 16043.5,9774.38 c 37.4,-19.65 64.1,-45.31 86.1,-70.81 21.6,-25.76 37.4,-51.92 51.5,-77.99 27.6,-52.18 45.3,-104.06 60.1,-155.73 28.9,-103.33 43.6,-206.1 51.3,-308.83 7.5,-102.72 7.5,-205.34 -0.7,-307.65 -8.3,-102.26 -23.8,-204.57 -56.5,-304.82 -8.3,-25.45 -35.7,-39.41 -61.2,-31.1 -24.2,7.85 -37.9,32.94 -32.2,57.26 l 0.2,0.87 c 21.7,90.72 28.7,186.98 28.5,282.67 -0.2,95.79 -8,191.95 -22.8,286.31 -14.8,94.2 -36.4,187.43 -68.2,273.01 -15.9,42.49 -34.4,83.59 -56.3,117.45 -10.9,16.67 -22.5,32.12 -34,43.36 -11.5,11.03 -22.6,18.41 -29.8,20.98 -50.7,18.01 -77.3,73.73 -59.3,124.48 18,50.74 73.7,77.32 124.5,59.26 4.2,-1.49 8.3,-3.23 12.2,-5.29 l 6.6,-3.43" /></g><g
         transform="scale(2.0242)"
         id="g258"><path
           id="path260"
           style="fill:#371b45;fill-opacity:1;fill-rule:nonzero;stroke:none"
           d="m 16262.3,9098.89 c -56.5,-0.05 -114.8,-3.16 -171.7,-8.44 -57.1,-5.49 -113.8,-13.15 -168.8,-24.7 -55,-11.42 -108.7,-26.58 -156.6,-47.88 -47.4,-20.89 -89.6,-49.89 -107.7,-81.26 -19.3,-33.7 -62.3,-45.3 -96,-25.94 -33.7,19.37 -45.3,62.4 -25.9,96.09 1.5,2.57 3.1,5.09 4.9,7.41 l 2.8,3.6 c 24.9,32.51 55.3,55.93 85.7,73.81 30.6,17.84 61.7,30.63 92.6,40.91 61.9,20.3 123.3,30.63 184.1,37.15 60.8,6.52 121.2,8.59 181.1,8.35 60.3,-0.5 119.3,-3.17 179.9,-9.19 19.3,-1.88 33.3,-19.02 31.4,-38.29 -1.8,-18.08 -16.9,-31.57 -34.7,-31.62 h -1.1" /></g><g
         transform="scale(2.02844)"
         id="g262"><path
           id="path264"
           style="fill:#371b45;fill-opacity:1;fill-rule:nonzero;stroke:none"
           d="m 16262.9,8711.61 c -53.9,-1.23 -110.7,-6.95 -165.3,-15.38 -54.9,-8.58 -109,-20.51 -161.5,-35.69 -52.4,-15.73 -102.8,-35.64 -150.2,-59.06 -47,-24.31 -89.6,-53.69 -127.1,-86.62 l -1.7,-1.48 c -29.1,-25.53 -73.4,-22.63 -98.9,6.51 -25.5,29.09 -22.6,73.36 6.5,98.89 1.7,1.48 3.6,2.96 5.3,4.24 52.7,37.77 108.7,67.69 166.3,90.32 57.8,21.64 116.4,37.91 175.4,49.2 59,10.75 118,17.55 177,20.66 59.4,2.95 117.2,3.1 177.7,-1.73 19.3,-1.53 33.6,-18.39 32.1,-37.62 -1.5,-17.99 -16.3,-31.74 -33.9,-32.19 l -1.7,-0.05" /></g><g
         transform="scale(1.62138)"
         id="g266"><path
           id="path268"
           style="fill:#ffffff;fill-opacity:1;fill-rule:nonzero;stroke:none"
           d="M 16292.7,5867.96 H 9650.17 c 0,0 -7.34,742.21 123.48,1844.48 23.31,197.8 51.19,407.43 84.68,626.51 146.57,965.9 395.67,2114.75 820.07,3256.65 63.9,171.8 131.8,343.3 203.6,514.1 57.3,135.6 117,270.6 179.8,404.7 45.6,98.3 92.9,196.1 141.7,293.4 h 3536.1 c 48.8,-97.3 96.1,-195.1 141.7,-293.4 63.6,-135.6 124,-272.4 181.7,-409.5 82.3,-195.6 159.2,-392.1 231.1,-588.7 406.3,-1115.6 647.6,-2233.68 790.4,-3177.01 33.6,-219.81 61.4,-430.19 84.9,-628.66 130.6,-1101.28 123.3,-1842.57 123.3,-1842.57" /></g><g
         transform="scale(1.59082)"
         id="g270"><path
           id="path272"
           style="fill:#cdc6d0;fill-opacity:1;fill-rule:nonzero;stroke:none"
           d="m 13651,7328.44 c -9.1,1.57 -18.2,3.15 -27.4,4.59 -503.2,82.54 -897.9,166.2 -1227.5,252.45 h 2078.7 c 341.2,0 618.8,277.59 618.8,618.86 v 51.36 c 174.9,-31.3 364.6,-43.37 553.3,-43.37 226.7,0 452.1,17.47 649.1,40.1 1.4,-9.49 2.7,-18.92 4,-28.35 -11.7,-4.08 -23.4,-8.42 -35.1,-12.95 -886.6,-342.34 -1317.2,-620.81 -2613.9,-882.69 m -2496.2,688.2 c -44.5,18.73 -89.2,37.59 -134.2,56.64 -107.8,45.64 -217.7,92.09 -334.3,139.8 27.9,-0.5 55.9,-0.75 83.8,-0.75 119.5,0 239.4,4.84 355.6,16.34 v -24.33 c 0,-65.44 10.2,-128.49 29.1,-187.7 m -690.9,1414.56 c -41,0.94 -82.7,2.13 -125.1,3.58 8.7,44.63 17.7,89.2 26.8,133.77 4.4,22.25 8.8,44.5 13.2,66.7 25.9,-69.15 54.3,-137.23 85.1,-204.05 m 5519,0.75 c 29.3,63.49 56.4,128.18 81.2,193.8 5,-24.76 9.9,-49.47 14.8,-74.24 7.8,-38.59 15.5,-77.25 23.2,-115.91 -40.3,-1.45 -80.1,-2.64 -119.2,-3.65" /></g><g
         transform="scale(1.63266)"
         id="g274"><path
           id="path276"
           style="fill:#371b45;fill-opacity:1;fill-rule:nonzero;stroke:none"
           d="m 15556.1,10489.9 c 151.9,-366.3 259.8,-748.05 341.7,-1134.29 45.1,-192.44 80.9,-386.67 119.8,-580.34 18.7,-97.02 33.7,-194.59 50.6,-291.92 l 24.8,-146.02 21.9,-146.51 c 59.9,-390.46 104.9,-783.2 136.1,-1177.03 16.6,-196.86 27.1,-394.21 35.9,-591.68 7.3,-198.14 13.1,-394.2 9.1,-595.65 v -0.07 -114.72 h -115.8 -3354.5 v 231.71 H 12938 V 5711.67 H 9583.58 9467.7 v 114.72 0.07 c -3.92,202.36 1.9,399.35 9.37,598.47 8.82,198.39 19.54,396.71 36.26,594.55 31.61,395.67 76.93,790.31 137.51,1182.55 l 22.05,147.18 24.99,146.7 c 17.15,97.75 32.34,195.88 51.32,293.2 39.2,194.66 75.28,389.74 120.85,583.04 83.05,388.02 193.45,770.85 343.85,1139.55 12.2,29.8 46.2,44 76,31.9 25.4,-10.4 39.5,-36.7 35.5,-62.7 l -0.2,-1.3 c -59.7,-391.4 -150.1,-771.55 -225.2,-1156.27 -78.8,-383.66 -142.24,-770.46 -197.8,-1158.11 -13.04,-97.08 -27.56,-193.86 -39.5,-291.12 l -35.83,-291.55 c -20.95,-194.71 -41.77,-389.43 -58.8,-584.51 -16.97,-195.08 -31.91,-390.22 -44.41,-585.55 -10.9,-194.71 -20.21,-391.87 -24.19,-583.83 v 0 l -115.89,114.72 H 12938 v -231.71 h -112.3 v 231.71 h 3354.5 l -115.9,-114.72 v 0 c -4,191.04 -13.3,387.22 -24.1,581.08 -12.3,194.34 -27.3,388.57 -44.1,582.73 -16.8,194.16 -37.7,387.9 -58.5,581.69 l -35.5,290.2 c -12,96.71 -26.3,193.12 -39.2,289.71 -55,385.88 -118.3,770.77 -196.1,1152.66 -74.8,382.94 -165.8,760.87 -222,1151.17 l -0.3,1.3 c -4.5,31.9 17.6,61.4 49.5,66 26.8,3.9 52.1,-11.3 62.1,-35.3" /></g><g
         transform="scale(1.13253)"
         id="g278"><path
           id="path280"
           style="fill:#ffffff;fill-opacity:1;fill-rule:nonzero;stroke:none"
           d="m 16300,11878 c -589.1,-238.5 -1501.1,-188.6 -2122.7,-113.3 -372.9,45.1 -634.6,389.1 -579.7,760.6 50.2,339.1 348.5,585.6 691,569.7 581.4,-27.3 1453.6,-40 2005.9,82.4 l 5.5,-1299.4" /></g><g
         transform="scale(1.08583)"
         id="g282"><path
           id="path284"
           style="fill:#b9afbe;fill-opacity:1;fill-rule:nonzero;stroke:none"
           d="m 15774.1,12380.5 c -292.9,0 -617.6,20.9 -966.1,63.1 -140.8,16.9 -265.6,88.4 -351.7,201.1 -86.3,113.1 -122.4,253 -101.5,393.9 4.1,28.2 10.5,55.6 18.7,81.9 106.7,-109 249.9,-184.1 413.6,-203.9 289.8,-35.2 640.4,-65 994.3,-65 174.3,0 349.4,7.2 518.6,24.6 v -469.7 c -160.8,-17.3 -336.7,-26 -525.9,-26" /></g><g
         transform="scale(1.16745)"
         id="g286"><path
           id="path288"
           style="fill:#371b45;fill-opacity:1;fill-rule:nonzero;stroke:none"
           d="m 13830.3,12541.9 c -239.8,0 -443.7,-174.7 -479.1,-414.8 -19.4,-131.1 14.2,-261.2 94.5,-366.4 80,-104.8 196.1,-171.3 327,-187.1 860.7,-104.1 1563.5,-68.8 1979,99.4 v 0 c 114.4,46.2 150.4,232.1 160.6,309.9 37.8,288.1 -47.5,562.2 -103.9,635 -544.6,-113.1 -1360.5,-104.3 -1954.8,-76.5 -7.8,0.4 -15.6,0.5 -23.3,0.5 m 845.5,-1351.4 c -331.1,0 -660.3,27.3 -942,61.4 -218.4,26.5 -412.2,137.3 -545.7,312.2 -133.8,175.3 -189.7,392.1 -157.5,610.3 61.1,413.3 420.9,709.5 838.1,690.8 830,-39 1506,-11.9 1903.4,76.3 82.7,18.6 288.1,19.4 407.7,-365.6 120.2,-386.6 105.9,-1036.3 -306.5,-1203.3 -336.7,-136.3 -768.7,-182.1 -1197.5,-182.1" /></g><g
         transform="scale(1.63725)"
         id="g290"><path
           id="path292"
           style="fill:#ffffff;fill-opacity:1;fill-rule:nonzero;stroke:none"
           d="m 15861,8138 c -201.7,-24.49 -448,-45.08 -694.5,-42.76 -17,0 -33.7,0.25 -50.7,0.8 -17.8,0.24 -35.8,0.73 -53.6,1.52 -12,0.25 -23.8,0.8 -35.4,1.29 -14.1,0.79 -28.1,1.52 -42,2.32 -17.7,1.04 -35.5,2.32 -53,3.6 h -1.2 c -17.6,1.28 -35.3,2.81 -52.8,4.64 -11.6,1.04 -23.2,2.33 -34.5,3.61 -9.8,0.73 -19.6,2.01 -29.1,3.11 -15.2,1.77 -30.3,3.79 -45,5.86 -14.2,2.08 -28,4.16 -41.7,6.42 -2.8,0.31 -5.6,0.55 -8.2,1.34 -16.3,2.32 -32.3,5.13 -47.9,8.25 -15.9,2.81 -31.6,5.86 -47.1,9.22 -1.3,0.24 -2.5,0.55 -3.8,0.79 -8.8,2.08 -17.6,3.85 -26,5.93 -9.6,2.01 -19.1,4.34 -28.6,6.96 h -0.3 c -29,7.15 -57.6,15.39 -85.4,24.13 -14.9,4.64 -29.8,9.83 -44.5,14.9 -14.6,5.19 -29.1,10.87 -43,16.49 l 1.8,431.58 2.1,467.31 c 97.8,-21.93 210.2,-37.32 329.9,-48.13 347.9,-31.64 758.3,-22.9 1057.6,-9.04 7.2,0.25 14.4,0.55 21.8,0.55 227.5,0 422.6,-167.29 456,-394.5 38.1,-257.08 -143.1,-495.1 -400.9,-526.19" /></g><g
         transform="scale(1.62334)"
         id="g294"><path
           id="path296"
           style="fill:#cdc6d0;fill-opacity:1;fill-rule:nonzero;stroke:none"
           d="m 15336.7,8281.15 c -207.4,0 -391.2,15.65 -545.4,46.63 v 348.36 c 1.9,-0.31 3.8,-0.68 5.8,-1.05 15.8,-3.08 31.9,-5.97 48.3,-8.26 2.6,-0.79 5.4,-1.04 8.3,-1.35 13.8,-2.34 27.8,-4.43 42,-6.47 14.8,-2.09 30.2,-4.12 45.5,-5.97 9.6,-1.05 19.4,-2.34 29.3,-3.08 11.4,-1.36 23.1,-2.59 34.8,-3.64 17.6,-1.84 35.5,-3.38 53.2,-4.68 h 1.3 c 17.6,-1.29 35.5,-2.59 53.4,-3.63 14,-0.8 28.1,-1.54 42.3,-2.41 11.7,-0.49 23.7,-0.98 35.9,-1.23 17.9,-0.8 36,-1.29 53.9,-1.54 17.1,-0.55 34,-0.8 51.1,-0.8 13,-0.12 26,-0.18 39,-0.18 235.5,0 468.7,19.89 661.5,43.24 104.7,12.63 197,59.14 267.2,127.15 10.3,-25.51 17.8,-52.55 22,-80.89 13.9,-94.25 -10.2,-187.82 -68,-263.47 -57.5,-75.4 -141,-123.2 -235.2,-134.53 -233.2,-28.22 -450.2,-42.2 -646.2,-42.2" /></g><g
         transform="scale(1.64722)"
         id="g298"><path
           id="path300"
           style="fill:#371b45;fill-opacity:1;fill-rule:nonzero;stroke:none"
           d="m 14308.4,8942.76 c -39.9,-51.54 -100.4,-245.75 -73.6,-450.03 7.2,-55.12 32.7,-186.86 113.8,-219.64 v 0 c 294.5,-119.23 792.7,-144.25 1402.6,-70.42 92.8,11.16 175.1,58.28 231.8,132.58 56.9,74.55 80.7,166.77 66.9,259.65 -25.9,175.69 -179.3,302.33 -356,293.65 -421.3,-19.67 -999.6,-25.92 -1385.5,54.21 m 802.7,-1011.64 c -303.9,0 -610.1,32.48 -848.7,129.06 -292.3,118.32 -302.5,578.86 -217.3,852.83 84.9,272.95 230.5,272.16 289,259.11 281.7,-62.47 760.7,-81.66 1349,-54.1 295.3,13.3 550.7,-196.63 594,-489.55 22.9,-154.68 -16.7,-308.27 -111.6,-432.54 -94.6,-123.97 -231.9,-202.53 -386.7,-221.29 -199.7,-24.16 -433,-43.52 -667.7,-43.52" /></g><g
         transform="scale(1.46148)"
         id="g302"><path
           id="path304"
           style="fill:#ffffff;fill-opacity:1;fill-rule:nonzero;stroke:none"
           d="M 16300,10544.2 V 8930.57 c 0,-299.41 -245,-544.51 -544.4,-544.51 h -2971.8 c -299,0 -544.1,245.1 -544.1,544.51 v 1613.63 c 0,299.4 245.1,544 544.1,544 h 2971.8 c 176.2,0 333.6,-84.9 433.4,-215.6 69.6,-91.4 111,-205.2 111,-328.4" /></g><g
         transform="scale(1.44987)"
         id="g306"><path
           id="path308"
           style="fill:#cdc6d0;fill-opacity:1;fill-rule:nonzero;stroke:none"
           d="m 15882,8583.8 h -2995.7 c -230.6,0 -418.1,187.53 -418.1,418.1 v 418.73 c 361,-410.72 1103.6,-606.95 1809.3,-606.95 124.9,0 248.5,6.14 368.7,18.28 200.4,20.28 343.7,210.71 295.9,406.38 -14.3,58.35 -21.9,120.28 -21.9,184.36 0,108.7 22,211.12 61,300.92 42.7,-217.4 234.3,-381.41 464.2,-381.41 229.9,0 421.5,164.08 464.2,381.55 34.9,-80.22 56.2,-170.57 60.4,-266.44 193.2,252.44 288.1,550.68 330,835.28 V 9001.9 c 0,-230.57 -187.5,-418.1 -418,-418.1" /></g><g
         transform="scale(1.47308)"
         id="g310"><path
           id="path312"
           style="fill:#371b45;fill-opacity:1;fill-rule:nonzero;stroke:none"
           d="m 12683.3,10872.7 c -226.9,0 -411.5,-184.6 -411.5,-411.5 V 8860.08 c 0,-226.94 184.6,-411.52 411.5,-411.52 h 2948.4 c 226.9,0 411.5,184.58 411.5,411.52 v 1601.12 c 0,226.9 -184.6,411.5 -411.5,411.5 h -2948.4 m 2948.4,-2680.95 h -2948.4 c -368.6,0 -668.3,299.78 -668.3,668.33 v 1601.12 c 0,368.5 299.7,668.3 668.3,668.3 h 2948.4 c 368.5,0 668.3,-299.8 668.3,-668.3 V 8860.08 c 0,-368.55 -299.8,-668.33 -668.3,-668.33" /></g><g
         transform="scale(1.41593)"
         id="g314"><path
           id="path316"
           style="fill:#3ba1da;fill-opacity:1;fill-rule:nonzero;stroke:none"
           d="m 16300,10050.6 c 0,-267.53 -216.8,-484.43 -484.3,-484.43 -267.6,0 -484.5,216.9 -484.5,484.43 0,267.5 216.9,484.3 484.5,484.3 267.5,0 484.3,-216.8 484.3,-484.3" /></g><g
         transform="scale(1.41594)"
         id="g318"><path
           id="path320"
           style="fill:#ffffff;fill-opacity:1;fill-rule:nonzero;stroke:none"
           d="m 16300,10050.4 c 0,-26.3 -2.1,-52.09 -6.3,-77.23 -36.9,230.93 -236.9,407.33 -478.2,407.33 -241.2,0 -441.3,-176.4 -478.2,-407.33 -4.3,25.14 -6.3,50.93 -6.3,77.23 0,267.5 216.9,484.4 484.5,484.4 267.5,0 484.5,-216.9 484.5,-484.4" /></g><g
         transform="scale(1.41539)"
         id="g322"><path
           id="path324"
           style="fill:#3a72a6;fill-opacity:1;fill-rule:nonzero;stroke:none"
           d="m 15821.6,9569.96 c -241.7,0 -442,176.99 -478.5,408.45 0.1,-0.5 0.1,-0.92 0.2,-1.35 10.2,63.54 32.7,123.04 65,175.84 84.9,-139 238.3,-231.79 413.3,-231.79 175.1,0 328.5,92.79 413.3,231.89 32.4,-52.7 54.9,-112.1 65.1,-175.65 -37,-230.9 -237,-407.39 -478.4,-407.39" /></g><g
         transform="scale(1.41592)"
         id="g326"><path
           id="path328"
           style="fill:#b9afbe;fill-opacity:1;fill-rule:nonzero;stroke:none"
           d="m 15337.5,9973.3 c -0.1,0.43 -0.1,0.85 -0.2,1.34 -3.9,24.79 -5.9,50.16 -5.9,76.06 0,61.9 11.6,120.9 33.2,175.3 10.3,-26.9 23.1,-52.6 37.9,-76.9 -32.3,-52.8 -54.8,-112.2 -65,-175.8 m 956.4,0.28 c -10.2,63.52 -32.7,122.92 -65.1,175.62 14.8,24.3 27.6,49.9 37.9,76.8 21.6,-54.4 33.3,-113.4 33.3,-175.3 0,-26.2 -2.1,-51.97 -6.1,-77.12" /></g><g
         transform="scale(1.42463)"
         id="g330"><path
           id="path332"
           style="fill:#371b45;fill-opacity:1;fill-rule:nonzero;stroke:none"
           d="m 15719,10371 c -210.6,0 -381.8,-171.3 -381.8,-381.82 0,-210.58 171.2,-381.86 381.8,-381.86 210.5,0 381.9,171.28 381.9,381.86 0,210.52 -171.4,381.82 -381.9,381.82 z m 0,-962.88 c -320.4,0 -581,260.69 -581,581.06 0,320.32 260.6,581.02 581,581.02 320.4,0 581,-260.7 581,-581.02 0,-320.37 -260.6,-581.06 -581,-581.06" /></g><g
         transform="scale(1.26331)"
         id="g334"><path
           id="path336"
           style="fill:#371b45;fill-opacity:1;fill-rule:nonzero;stroke:none"
           d="m 16187.8,9589.39 c -62.1,0 -112.4,50.27 -112.4,112.32 v 900.89 c 0,234.3 -111.7,458.4 -298.9,599.4 -243.4,183.1 -388.6,474.2 -388.6,778.8 v 847 c 0,62 50.2,112.3 112.2,112.3 62.1,0 112.3,-50.3 112.3,-112.3 v -847 c 0,-234.4 111.8,-458.5 299.1,-599.4 243.3,-183.2 388.5,-474.3 388.5,-778.8 v -900.89 c 0,-62.05 -50.3,-112.32 -112.2,-112.32" /></g><g
         transform="scale(1.79533)"
         id="g338"><path
           id="path340"
           style="fill:#ffffff;fill-opacity:1;fill-rule:nonzero;stroke:none"
           d="m 15489.3,13085.1 c -42.8,-0.2 -77.7,34.3 -77.9,77 l -12.5,2231.4 c -0.2,42.9 34.2,77.7 77,78 448.8,2.5 814.7,-359.3 817.3,-808.2 l 4.3,-760.9 c 2.5,-448.8 -359.3,-814.7 -808.2,-817.3" /></g><g
         transform="scale(1.79741)"
         id="g342"><path
           id="path344"
           style="fill:#371b45;fill-opacity:1;fill-rule:nonzero;stroke:none"
           d="m 15462.5,15434.6 c -1.5,0 -2.9,0 -4.4,0 -32.3,-0.2 -58.4,-26.5 -58.2,-58.8 l 12.5,-2228.8 c 0.1,-15.7 6.3,-30.3 17.4,-41.3 11,-10.9 25.6,-16.9 41.1,-16.9 h 0.4 c 437.1,2.5 790.8,360.2 788.4,797.3 l -4.3,760.1 c -2.5,435.7 -357.8,788.4 -792.9,788.4 m 8.4,-2383.6 c -25.5,0 -49.6,9.9 -67.7,27.9 -18.3,18 -28.4,42.1 -28.6,67.8 l -12.5,2228.9 c -0.3,53.1 42.7,96.5 95.7,96.8 1.6,0 3.2,0 4.8,0 455.9,0 828,-369.5 830.6,-826 l 4.3,-760 c 2.5,-458 -368.1,-832.7 -826.1,-835.4 h -0.5" /></g><g
         transform="scale(1.78366)"
         id="g346"><path
           id="path348"
           style="fill:#cdc6d0;fill-opacity:1;fill-rule:nonzero;stroke:none"
           d="m 15664.1,13281 c 48.6,173.4 85.5,351 110.2,531.8 215.5,38.8 401.6,162 522.8,334.1 l 0.9,-154.2 c 2,-367.5 -276.2,-672.5 -633.9,-711.7" /></g><g
         transform="scale(1.80696)"
         id="g350"><path
           id="path352"
           style="fill:#371b45;fill-opacity:1;fill-rule:nonzero;stroke:none"
           d="m 15404.5,15266.8 12.2,-2160.6 c 374.6,16.8 673.2,327.8 671.1,706.1 l -4.2,756 c -2.2,378.2 -304.3,685.9 -679.1,698.5 m -15.5,-2161.3 v 0 0 m 0.1,-209.3 c -48.2,0 -93.4,18.6 -127.7,52.4 -34.5,34.2 -53.6,79.7 -54,128.2 l -12.4,2217 c -0.5,100.3 80.6,182.2 180.7,182.7 1.6,0 3.4,0 5.1,0 500.6,0 909.3,-405.8 912.1,-907 l 4.3,-756 c 2.8,-503 -404.1,-914.5 -907.1,-917.3 h -1" /></g><g
         transform="scale(1.69953)"
         id="g354"><path
           id="path356"
           style="fill:#ffffff;fill-opacity:1;fill-rule:nonzero;stroke:none"
           d="m 8567.64,16299.7 c 45.25,0.3 82.08,-36.1 82.32,-81.3 l 13.24,-2357.2 c 0.29,-45.2 -36.13,-82 -81.32,-82.3 -474.19,-2.7 -860.7,379.5 -863.41,853.6 l -4.53,803.9 c -2.65,474.1 379.57,860.7 853.7,863.3" /></g><g
         transform="scale(1.70159)"
         id="g358"><path
           id="path360"
           style="fill:#371b45;fill-opacity:1;fill-rule:nonzero;stroke:none"
           d="m 8557.41,16260.1 c -461.74,-2.6 -835.39,-380.5 -832.81,-842.2 l 4.53,-802.9 c 2.58,-460.2 377.88,-832.8 837.51,-832.8 1.59,0 3.11,0 4.76,0 34.03,0.2 61.59,28.1 61.41,62.2 l -13.28,2354.3 c -0.12,16.4 -6.58,32 -18.33,43.5 -11.76,11.6 -28.51,18.7 -43.79,17.9 m 9.23,-2517.8 c -481.55,0 -874.71,390.3 -877.41,872.5 l -4.59,802.8 c -2.7,483.8 388.81,879.6 872.6,882.4 26.62,-0.1 52.77,-10.3 72.05,-29.4 19.33,-19.1 30.03,-44.5 30.21,-71.7 l 13.22,-2354.4 c 0.35,-56 -45.02,-101.9 -101.08,-102.2 -1.65,0 -3.35,0 -5,0" /></g><g
         transform="scale(1.54214)"
         id="g362"><path
           id="path364"
           style="fill:#cdc6d0;fill-opacity:1;fill-rule:nonzero;stroke:none"
           d="m 9371.42,15311.8 c -414.16,40.7 -740.08,389.9 -742.47,814.9 l -0.98,173.3 c 147.33,-182.2 361.19,-308.6 604.17,-342.6 30.67,-219 77.29,-434.7 139.28,-645.6" /></g><g
         transform="scale(1.71111)"
         id="g366"><path
           id="path368"
           style="fill:#371b45;fill-opacity:1;fill-rule:nonzero;stroke:none"
           d="m 8510.32,16078.9 v 0 0 m -29.28,-0.7 c -395.59,-17.7 -710.94,-346.3 -708.72,-745.6 l 4.5,-798.4 c 2.28,-399.4 321.31,-724.3 717.08,-737.6 l -12.86,2281.6 m 37.99,-2503.1 c -528.72,0 -960.31,428.6 -963.29,957.9 l -4.5,798.3 c -2.98,531.1 426.74,965.7 957.85,968.7 50.38,-0.2 99.53,-19.4 135.94,-55.4 36.41,-36.1 56.69,-84.1 56.92,-135.4 l 13.21,-2341.2 c 0.58,-105.7 -84.92,-192.3 -190.7,-192.9 -1.81,0 -3.62,0 -5.43,0" /></g><g
         transform="scale(1.59033)"
         id="g370"><path
           id="path372"
           style="fill:#cdc6d0;fill-opacity:1;fill-rule:nonzero;stroke:none"
           d="m 16230.4,12487.6 c -54.4,50.5 -110.9,100.4 -169.7,149.4 23,18.2 45.8,36.7 68.5,55.4 60.4,-36.4 117.6,-77.9 170.8,-123.8 -22.9,-27.3 -46.2,-54.4 -69.6,-81 m -5944.2,40.8 c -25.4,29.7 -50.4,59.6 -75.1,90 70.3,53.2 146.4,99.2 227.2,136.9 19.1,-16.6 38.5,-33.2 57.9,-49.4 -73.3,-57.7 -143.2,-117.1 -210,-177.5" /></g><g
         transform="scale(1.59759)"
         id="g374"><path
           id="path376"
           style="fill:#371b45;fill-opacity:1;fill-rule:nonzero;stroke:none"
           d="m 16225.9,12511.5 c -53,45.6 -109.9,86.9 -170.1,123.2 31.6,26.1 62.9,52.7 93.8,79.7 52.8,-34 103,-71.5 150.4,-112.2 -24.4,-30.7 -49,-60.9 -74.1,-90.7 m -6061.2,49.5 c -24.7,30.3 -49,61 -72.9,92.1 63.9,48.7 132.2,91.8 204.2,128.7 31.2,-28.6 62.9,-56.9 94.8,-84.5 -80.4,-37.5 -156.1,-83.3 -226.1,-136.3" /></g><g
         transform="scale(1.22496)"
         id="g378"><path
           id="path380"
           style="fill:#cdc6d0;fill-opacity:1;fill-rule:nonzero;stroke:none"
           d="m 14182.4,15476.5 c -220.4,170.1 -428.7,358.2 -623.1,561.9 99.2,89.6 204.1,177.3 314.8,261.6 161.9,-121.1 329.7,-233 502.6,-335.6 -67.5,-162.3 -132.3,-325 -194.3,-487.9" /></g><g
         transform="scale(1.23966)"
         id="g382"><path
           id="path384"
           style="fill:#371b45;fill-opacity:1;fill-rule:nonzero;stroke:none"
           d="m 13398.6,15848.3 c -69.4,72.6 -137.1,147.4 -202.8,224.1 85.7,77.4 175.4,153.5 269.4,227.6 79.9,-66.8 161.3,-131.2 244.3,-193.3 -109.3,-83.3 -213,-169.9 -310.9,-258.4" /></g><g
         transform="scale(1.56789)"
         id="g386"><path
           id="path388"
           style="fill:#cdc6d0;fill-opacity:1;fill-rule:nonzero;stroke:none"
           d="m 15770.5,12031.4 c -44.1,117.5 -90.1,234.8 -137.9,352 158.6,85.7 312.6,181.4 461.1,286.7 72.2,-58.2 140.8,-118.1 206.3,-178.9 -165.2,-168.5 -342.2,-322.4 -529.5,-459.8" /></g><g
         transform="scale(1.58353)"
         id="g390"><path
           id="path392"
           style="fill:#371b45;fill-opacity:1;fill-rule:nonzero;stroke:none"
           d="m 16139,12367.8 c -64.9,60.2 -132.8,119.5 -204.3,177.1 66.2,46.9 131,95.6 194.9,146.3 59.1,-49.2 115.8,-99.3 170.4,-150.1 -52.3,-59.3 -106,-117.2 -161,-173.3" /></g><g
         transform="scale(1.51696)"
         id="g394"><path
           id="path396"
           style="fill:#cdc6d0;fill-opacity:1;fill-rule:nonzero;stroke:none"
           d="m 13922.1,11640.5 c -95.3,0 -191.3,3.5 -287.8,10.6 -812.4,59.3 -1557.8,364.5 -2181.8,846.4 50.1,131.5 102.4,262.9 156.9,394 617.5,-366.3 1317.1,-584.5 2054.3,-632.7 103.3,-6.8 206.2,-10.2 308.7,-10.2 770.7,0 1517.2,189.7 2185.1,550.6 49.4,-121.1 96.9,-242.4 142.5,-363.8 -686.4,-503.9 -1505.6,-794.9 -2377.9,-794.9" /></g><g
         transform="scale(2.00341)"
         id="g398"><path
           id="path400"
           style="fill:#ffffff;fill-opacity:1;fill-rule:nonzero;stroke:none"
           d="m 13975.1,12554.2 c -122.9,-1878 -1745,-3300.71 -3622.9,-3177.82 -1877.98,122.94 -3300.71,1745.02 -3177.77,3622.92 122.89,1878 1744.93,3300.7 3622.97,3177.8 1877.9,-122.9 3300.6,-1745 3177.7,-3622.9" /></g><g
         transform="scale(1.99773)"
         id="g402"><path
           id="path404"
           style="fill:#371b45;fill-opacity:1;fill-rule:nonzero;stroke:none"
           d="m 10602.5,16213.4 c -1774.65,0 -3273.2,-1382.5 -3390.73,-3178.3 -59.37,-906.3 237.82,-1781.5 836.75,-2464.3 598.88,-682.75 1427.87,-1091.46 2334.18,-1150.83 906.2,-59.22 1781.4,237.87 2464.3,836.73 682.8,598.9 1091.5,1427.9 1150.8,2334.2 l 17,-1.1 -17,1.1 c 59.3,906.3 -237.8,1781.5 -836.7,2464.3 -599,682.8 -1427.9,1091.5 -2334.2,1150.8 -75.1,4.9 -150.2,7.4 -224.4,7.4 m 7.2,-6834.88 c -76.2,0 -152.6,2.51 -229.2,7.51 -915.43,59.92 -1752.68,472.74 -2357.56,1162.37 -604.94,689.6 -905.08,1573.6 -845.16,2488.9 59.97,915.4 472.74,1752.7 1162.37,2357.6 689.68,604.9 1573.53,905.1 2488.95,845.1 915.4,-59.9 1752.7,-472.7 2357.5,-1162.4 604.9,-689.6 905.1,-1573.6 845.1,-2488.9 -59.9,-915.4 -472.7,-1752.7 -1162.3,-2357.6 -631.8,-554.19 -1426.9,-852.58 -2259.7,-852.58" /></g><g
         transform="scale(1.57596)"
         id="g406"><path
           id="path408"
           style="fill:#cdc6d0;fill-opacity:1;fill-rule:nonzero;stroke:none"
           d="m 13449.5,12030.1 c -93.4,0 -187.5,3.1 -281.6,9.2 -1122.6,73.5 -2149.5,579.8 -2891.4,1425.5 -8.3,9.7 -16.8,19.4 -25.1,29 322.4,-244.3 770.2,-503 1293.3,-704.8 505.3,-195.2 1080.9,-337.1 1682.2,-361.8 79.7,-3.3 158.6,-4.9 237,-4.9 328.9,0.1 646.1,28 946.4,76.3 772.4,124.4 1432.5,383.7 1889.7,648.9 -26.2,-24.2 -52.8,-48.1 -79.7,-71.7 -774.9,-679.7 -1749.5,-1045.8 -2770.8,-1045.7" /></g><g
         transform="scale(2.01537)"
         id="g410"><path
           id="path412"
           style="fill:#371b45;fill-opacity:1;fill-rule:nonzero;stroke:none"
           d="m 13892.1,12479.6 h 0.3 -0.3 m -3382.4,3514.9 c -1718.87,0 -3170.37,-1339.1 -3284.24,-3078.5 -57.46,-877.8 230.38,-1725.5 810.47,-2386.9 580.14,-661.35 1383.07,-1057.26 2260.87,-1114.72 877.9,-57.65 1725.6,230.38 2387,810.52 661.3,580 1057.2,1383 1114.6,2260.8 57.5,877.9 -230.3,1725.6 -810.4,2387 -580.1,661.3 -1383.1,1057.2 -2260.9,1114.6 -72.8,4.8 -145.4,7.2 -217.4,7.2 m 7.3,-6775.07 c -77.2,0 -154.7,2.53 -232.4,7.64 -927.92,60.74 -1776.6,479.17 -2389.79,1178.23 -613.18,699.1 -917.39,1595.1 -856.66,2523 125.38,1915.4 1785.77,3371.7 3701.15,3246.4 928,-60.8 1776.6,-479.2 2389.8,-1178.3 613.2,-699.1 917.4,-1595.1 856.7,-2522.9 -60.8,-927.9 -479.2,-1776.6 -1178.3,-2389.8 C 12167,9521.91 11361.1,9219.43 10517,9219.43" /></g><g
         transform="scale(1.87123)"
         id="g414"><path
           id="path416"
           style="fill:#371b45;fill-opacity:1;fill-rule:nonzero;stroke:none"
           d="m 14944.4,13348.2 c -35.8,-713 -300.6,-1363.4 -723.9,-1891.2 -317.5,-395.6 -1573.5,-1052.9 -3080.7,-990.7 -1397.38,57.7 -2630.74,866.4 -2906.87,1291.9 -368.26,567.6 -566.42,1241.3 -530.56,1954.3 94.91,1886.9 1755.37,2587.5 3755.33,2486.9 1999.9,-100.6 3581.7,-964.3 3486.7,-2851.2" /></g><g
         transform="scale(1.6418)"
         id="g418"><path
           id="path420"
           style="fill:#9b8da2;fill-opacity:1;fill-rule:nonzero;stroke:none"
           d="m 15628.5,14846.3 c -29.9,0 -59.9,3.3 -89.7,10.3 -286.7,67 -444.2,442.1 -351.8,837.8 82.9,354.8 338.5,605.6 597,605.6 30,0 60,-3.3 89.7,-10.3 231.7,-54.1 379.1,-309.5 378.2,-614.4 -40.2,-178.2 -90.6,-352.6 -150.5,-522.7 -119.8,-188.5 -295.6,-306.4 -472.9,-306.3" /></g><g
         transform="scale(1.54291)"
         id="g422"><path
           id="path424"
           style="fill:#9b8da2;fill-opacity:1;fill-rule:nonzero;stroke:none"
           d="m 15908.5,14703.7 c -32.7,0 -65.4,5.9 -97.1,18 -158.9,61.3 -229.8,261.2 -158.4,446.3 57.3,148.4 188.5,242.4 320.2,242.4 32.6,0 65.3,-5.9 96.9,-18 159,-61.3 229.9,-261.2 158.5,-446.3 -57.3,-148.4 -188.5,-242.4 -320.1,-242.4" /></g><g
         transform="scale(1.73851)"
         id="g426"><path
           id="path428"
           style="fill:#acafb4;fill-opacity:1;fill-rule:nonzero;stroke:none"
           d="m 15895.3,15574.8 c -113.3,273.5 -273.4,514.6 -472.6,724.9 -0.1,0.1 -0.1,0.2 -0.1,0.3 199.4,-210.4 359.4,-451.6 472.7,-725.2" /></g><g
         transform="scale(1.39325)"
         id="g430"><path
           id="path432"
           style="fill:#8c8a95;fill-opacity:1;fill-rule:nonzero;stroke:none"
           d="m 15229.6,14051.3 c -88.8,0 -178,1.8 -268.1,5.5 -680.2,28 -1331.3,188.5 -1902.9,409.3 571.6,-220.5 1222.7,-381.1 1902.9,-409.1 90.3,-3.8 180,-5.6 268.8,-5.6 371.8,0 730.3,31.6 1069.7,86.2 -339.6,-54.6 -698.4,-86.2 -1070.4,-86.3" /></g><g
         transform="scale(1.65272)"
         id="g434"><path
           id="path436"
           style="fill:#2a1b3b;fill-opacity:1;fill-rule:nonzero;stroke:none"
           d="m 15736.3,12657.6 c 164.2,111 288.1,219.2 364.3,314.1 70.4,87.9 137,178.7 199.4,272.3 -62.4,-93.6 -128.9,-184.4 -199.4,-272.2 -76.1,-94.9 -200.1,-203.2 -364.3,-314.2" /></g><g
         transform="scale(1.73848)"
         id="g438"><path
           id="path440"
           style="fill:#2a1b3b;fill-opacity:1;fill-rule:nonzero;stroke:none"
           d="m 12205.9,11261.1 c -71.2,0 -143.1,1.4 -215.4,4.4 -545.1,22.5 -1067,151.2 -1525.1,327.9 -23.2,9 -46.3,18.1 -69.2,27.3 44.2,-0.8 88.3,-1.3 132.1,-1.3 1936,0 3520.3,842.3 3934.6,1358.8 319,397.6 572,846.1 743,1331.7 51.9,81.6 92.7,177.3 117.3,282.6 16.7,71.7 24.8,142.7 24.9,211.1 55.6,245.6 90.7,498.7 103.7,758.1 13.3,260.1 2.7,506.1 -28.8,738.3 199.2,-210.3 359.3,-451.4 472.6,-724.9 144.5,-348.9 212.9,-750.4 190,-1207.5 -32.9,-654.8 -245.3,-1260.4 -589.6,-1776.9 -59.4,-89 -122.7,-175.3 -189.6,-258.8 -72.4,-90.3 -190.2,-193.2 -346.4,-298.7 -410.2,-277.1 -1085.2,-572.2 -1896.9,-703 -272,-43.8 -559.3,-69.1 -857.2,-69.1" /></g><g
         transform="scale(1.63696)"
         id="g442"><path
           id="path444"
           style="fill:#6b6577;fill-opacity:1;fill-rule:nonzero;stroke:none"
           d="m 16149,15197.4 c 60.1,170.6 110.6,345.5 151,524.3 -0.2,-72.7 -8.7,-148 -26.5,-224.2 -26.2,-111.8 -69.4,-213.4 -124.5,-300.1" /></g><g
         transform="scale(1.92374)"
         id="g446"><path
           id="path448"
           style="fill:#371b45;fill-opacity:1;fill-rule:nonzero;stroke:none"
           d="m 14314.3,14510.3 c -23.6,0 -47.3,8.6 -66.2,25.8 l -9.4,8.7 -7.3,11.2 c -553.6,865 -1680.8,1401.8 -3092.6,1472.9 -1419.7,71.4 -2594.6,-365.2 -3223.69,-1197.8 l -9.35,-10.7 c -38.42,-38.4 -100.64,-38.4 -139.06,0 -36.07,36 -38.25,93.2 -6.55,131.8 669.38,883.7 1904.27,1347.8 3388.55,1273.1 1475,-74.2 2658.3,-643.3 3247,-1561.3 24.9,-36.9 22.5,-87.4 -8.8,-121.6 -19.5,-21.2 -46,-32.1 -72.6,-32.1" /></g><g
         transform="scale(1.80396)"
         id="g450"><path
           id="path452"
           style="fill:#9b8da2;fill-opacity:1;fill-rule:nonzero;stroke:none"
           d="m 8774.54,13017 c 0,0 -509.04,1961.3 570.25,2678.4 725.31,481.9 1639.21,604.6 2148.71,604.6 248.6,0 400.7,-29.2 387.7,-60.1 0,0 -1677.6,-317.9 -2392,-1595.5 C 8938.3,13659.1 8774.54,13017 8774.54,13017" /></g><g
         transform="scale(1.60177)"
         id="g454"><path
           id="path456"
           style="fill:#ffffff;fill-opacity:1;fill-rule:nonzero;stroke:none"
           d="m 13070.2,4895.7 c 0,0 -2566.2,-290.8 -3706.83,689.3 -1558.39,1338.95 -222.12,3016.97 935.43,2569.97 1007.9,-389.14 1422.4,-695.24 3212.5,-988.6 1500.2,-245.91 2788.7,-1785.95 1712.3,-2679.78 -759.9,-631.11 -2153.4,409.11 -2153.4,409.11" /></g><g
         transform="scale(1.51648)"
         id="g458"><path
           id="path460"
           style="fill:#cdc6d0;fill-opacity:1;fill-rule:nonzero;stroke:none"
           d="m 15435.9,4648.33 c -0.1,0 -0.1,0 -0.2,0 -498.1,0.07 -1058.2,302.94 -1351.6,486.26 33.1,22.95 51.1,36.4 51.1,36.4 0,0 375.7,-42.6 909.7,-42.6 367.1,0 809.2,20.18 1255.1,88.1 -62.1,-139.2 -162.3,-267.39 -299.8,-381.6 -161.9,-134.4 -357.6,-186.56 -564.3,-186.56 m -4181.1,768.03 c -486.9,110.06 -948.7,289.69 -1283.54,577.33 -382.4,328.59 -584.71,669.97 -663.18,989.99 40.02,-38.64 82.23,-77.09 126.67,-115.2 539.61,-463.71 1381.35,-658.1 2146.15,-731.43 -93.8,-193.81 -144.2,-392.69 -140.4,-586.82 -56.8,-49.73 -118.4,-94.63 -185.7,-133.87" /></g><g
         transform="scale(1.55456)"
         id="g462"><path
           id="path464"
           style="fill:#371b45;fill-opacity:1;fill-rule:nonzero;stroke:none"
           d="m 13501.2,5170.65 38.7,-28.76 c 10.5,-7.78 825.4,-607.31 1517.6,-607.44 201.7,0 392.7,50.82 550.7,181.98 318.3,264.39 431.9,605.19 328.6,985.68 -195.9,720.85 -1089.7,1406.89 -2034.8,1561.79 -1452.8,238.14 -2039.6,486.25 -2719.2,773.53 -190.8,80.67 -388.2,164.1 -615,251.71 -487.9,188.41 -1055.68,-32.42 -1350.3,-524.84 -282.65,-472.42 -297.25,-1224.27 509.47,-1917.45 1121.13,-963.23 3700.53,-684.5 3726.43,-681.61 l 47.8,5.41 m 1558.3,-879.48 c -694.9,-0.06 -1444.6,498.92 -1626,627.32 -376,-36.99 -2737,-225.54 -3865.1,743.81 -921.35,791.66 -893.3,1669.46 -559.77,2226.92 355.67,594.44 1048.17,858.06 1646.77,626.93 230.4,-88.96 429.6,-173.17 622.2,-254.61 665.2,-281.17 1239.6,-524.07 2663.7,-757.51 1031.8,-169.05 2011.5,-932.54 2230.3,-1738.17 128.4,-472.35 -16.5,-911.57 -408,-1236.62 -207.6,-172.46 -452.4,-238.01 -704.1,-238.07" /></g><g
         transform="scale(1.17179)"
         id="g466"><path
           id="path468"
           style="fill:#371b45;fill-opacity:1;fill-rule:nonzero;stroke:none"
           d="m 14589.8,6676.82 c -57.7,0 -113.5,31.06 -142.6,85.51 -41.9,78.69 -12.1,176.48 66.6,218.39 1433.7,764.22 1026.3,3454.68 1022.1,3481.78 -13.9,88 46.1,170.7 134.2,184.7 88.1,13.9 170.8,-46.3 184.7,-134.3 18.9,-119.9 445.2,-2945.81 -1189.2,-3817.13 -24.2,-12.81 -50.2,-18.95 -75.8,-18.95" /></g><g
         transform="scale(1.83246)"
         id="g470"><path
           id="path472"
           style="fill:#ffffff;fill-opacity:1;fill-rule:nonzero;stroke:none"
           d="m 11697.6,4279.38 c 0,0 2243.2,-254.19 3240.2,602.53 C 16300,6052.3 15132,7519.07 14120.1,7128.34 13239.1,6788.2 12876.8,6520.63 11312,6264.2 10000.7,6049.24 8874.41,4703.08 9815.33,3921.78 c 664.27,-551.66 1882.27,357.6 1882.27,357.6" /></g><g
         transform="scale(1.68896)"
         id="g474"><path
           id="path476"
           style="fill:#2a50b5;fill-opacity:1;fill-rule:nonzero;stroke:none"
           d="m 11225.9,4062.21 c -208.7,0 -408.9,53.47 -576.7,192.78 -121.5,100.89 -211.2,210.43 -272.6,325.59 v 0 c 61.4,-115.16 151.1,-224.7 272.7,-325.59 167.7,-139.31 368,-192.72 576.6,-192.78 444.6,0 926.9,242.76 1212.4,414.4 0,-0.06 0,-0.06 0,-0.06 -285.4,-171.58 -767.8,-414.34 -1212.4,-414.34 m 3663.2,666.21 v 0.06 c 494.9,99.53 974.5,273.07 1317.9,568.22 31.4,26.94 61.5,54 90.4,81.24 -28.9,-27.24 -59,-54.36 -90.4,-81.3 -343.4,-295.03 -823.1,-468.69 -1317.9,-568.22 M 16297.5,5378 c 0.4,0.41 0.9,0.88 1.3,1.3 -0.4,-0.42 -0.9,-0.89 -1.3,-1.3 m 1.9,1.77 c 0.2,0.18 0.4,0.47 0.6,0.59 -0.2,-0.18 -0.4,-0.35 -0.6,-0.59" /></g><g
         transform="scale(1.51648)"
         id="g478"><path
           id="path480"
           style="fill:#a79bad;fill-opacity:1;fill-rule:nonzero;stroke:none"
           d="m 15044.8,5128.37 c -533.9,0 -909.7,42.6 -909.7,42.6 0,0 -18,-13.45 -51.1,-36.4 0,0 0,0.07 -0.1,0.07 33.1,23.01 51,36.4 51,36.4 0,0 376.2,-42.6 910.1,-42.6 367.2,0 809,20.11 1255,88.1 -0.1,-0.07 -0.1,-0.07 -0.1,-0.07 -445.9,-67.92 -887.9,-88.1 -1255.1,-88.1" /></g><g
         transform="scale(1.54277)"
         id="g482"><path
           id="path484"
           style="fill:#371b45;fill-opacity:1;fill-rule:nonzero;stroke:none"
           d="m 13617,4900.74 c 0,0 -0.1,0 -0.1,0.07 101.2,60.86 179.8,113.56 227.1,146.36 0,0 0.1,-0.07 0.1,-0.07 -47.3,-32.86 -125.9,-85.56 -227.1,-146.36 m -2257.1,113.89 v 0 c -5.2,9.91 -10.4,19.9 -15.3,29.94 4.9,-10.04 10,-20.03 15.3,-29.94 m -15.5,30.27 c -0.1,0.32 -0.2,0.65 -0.4,0.9 0.2,-0.32 0.3,-0.58 0.4,-0.9 m -0.8,1.55 c 0,0.13 -0.1,0.26 -0.1,0.39 0.1,-0.13 0.1,-0.26 0.1,-0.39 m 4678.7,81.16 c 0,0 0,0 0,0.06 92.6,14.07 185.5,30.34 277.7,48.88 v -0.07 c -92.4,-18.54 -185.1,-34.74 -277.7,-48.87" /></g><g
         transform="scale(1.75558)"
         id="g486"><path
           id="path488"
           style="fill:#cdc6d0;fill-opacity:1;fill-rule:nonzero;stroke:none"
           d="m 10799.9,3908.05 c -200.7,0.05 -393.4,51.43 -554.8,185.46 -116.9,97.06 -203.2,202.44 -262.26,313.23 -4.67,8.72 -9.12,17.49 -13.44,26.32 -0.06,0.05 -0.12,0.17 -0.17,0.28 -0.12,0.29 -0.23,0.52 -0.4,0.8 -0.12,0.23 -0.17,0.4 -0.29,0.57 -0.06,0.12 -0.06,0.23 -0.11,0.34 -97.97,200.85 -108.68,418.15 -51.27,634.55 50.13,-169.46 99.34,-430.12 275.94,-567.16 221,-171.51 451.6,-241.52 672.5,-241.52 317.4,0 614.7,144.4 834.8,339.6 283.3,251.32 237.1,457.12 418.9,559.36 24.2,13.62 49.6,19.6 76.6,19.6 200.9,0 492.3,-332.88 1053.8,-362.16 92.8,-4.79 183.3,-7.12 271.5,-7.12 1050.8,0 1774.1,330.32 2129.8,693.73 335.4,342.62 495.3,739.41 560.3,1054.75 88.7,-418.04 -38.4,-918.61 -529.9,-1382.51 -0.2,-0.11 -0.4,-0.4 -0.6,-0.57 -0.1,-0.17 -0.3,-0.28 -0.5,-0.45 -0.4,-0.4 -0.9,-0.86 -1.3,-1.25 0,0 0,-0.06 -0.1,-0.06 -27.8,-26.2 -56.7,-52.24 -86.9,-78.15 -330.5,-283.95 -791.8,-450.91 -1267.9,-546.66 -81.1,-16.29 -162.7,-30.59 -244,-42.95 -385.3,-58.73 -766.9,-76.1 -1084.1,-76.1 -461.2,0 -786.2,36.8 -786.2,36.8 0,0 -15.4,-11.56 -44,-31.44 -41.6,-28.83 -110.6,-75.14 -199.6,-128.62 -274.6,-165.13 -738.6,-398.67 -1166.3,-398.67" /></g><g
         transform="scale(1.77476)"
         id="g490"><path
           id="path492"
           style="fill:#371b45;fill-opacity:1;fill-rule:nonzero;stroke:none"
           d="m 14932.8,7319.24 c -106.3,0 -212.8,-18.99 -315.3,-58.54 -198.7,-76.69 -371.5,-149.83 -538.6,-220.48 -595.3,-251.64 -1109.3,-468.97 -2381.9,-677.56 -827.9,-135.68 -1610.8,-736.6 -1782.37,-1368.07 -90.49,-333.23 9.02,-631.75 287.87,-863.33 613.2,-509.19 1799.8,363.82 1811.7,372.67 l 33.8,25.19 41.9,-4.74 c 22.7,-2.47 2282.1,-246.68 3264.1,597.04 706.6,607.18 693.9,1265.69 446.3,1679.5 -196.2,327.93 -530.7,518.32 -867.5,518.32 z M 10683.1,3758.76 c -220.6,0 -434.8,57.42 -616.8,208.54 -342.85,284.71 -469.8,669.38 -357.33,1083.18 191.69,705.68 1049.73,1374.44 1953.53,1522.52 1247.5,204.48 1750.7,417.24 2333.4,663.58 168.6,71.28 343,145.04 544.8,222.96 524.4,202.51 1131,-28.51 1442.5,-549.14 292.2,-488.35 316.8,-1257.19 -490.3,-1950.63 -988.1,-849.08 -3056.2,-683.98 -3385.5,-651.53 -159,-112.46 -815.7,-549.48 -1424.3,-549.48" /></g><g
         transform="scale(1.56387)"
         id="g494"><path
           id="path496"
           style="fill:#371b45;fill-opacity:1;fill-rule:nonzero;stroke:none"
           d="m 16161.8,5002.86 c -19.2,0 -38.7,4.61 -56.8,14.26 -1224.7,652.81 -905.2,2770.25 -891,2860.09 10.3,65.93 72.2,110.82 138.2,100.53 66,-10.36 111.1,-72.33 100.7,-138.25 -3.2,-20.34 -306.8,-2037.07 765.9,-2608.92 58.9,-31.4 81.2,-104.68 49.8,-163.64 -21.7,-40.79 -63.6,-64.07 -106.8,-64.07" /></g></g></g></svg>